<svg width="62" height="71" viewBox="0 0 62 71" fill="none" xmlns="http://www.w3.org/2000/svg">
<path d="M3.91969 69.8394C18.4948 65.5242 27.8179 45.4491 17.4724 32.2615C14.9936 29.1018 9.46838 29.5875 6.31134 31.3582C1.3171 34.1593 0.127285 39.0857 1.57232 44.5466C4.19734 54.4668 14.9718 64.3798 25.5774 61.2579C42.1745 56.3722 50.4233 39.2153 52.1071 22.7315C52.4424 19.4481 50.8945 -5.2269 47.4123 8.18819C46.7804 10.6229 45.1699 17.9847 45.9508 15.5954C47.2454 11.6337 47.8109 9.35285 47.8109 5.07175C47.8109 4.22182 47.2017 -0.220009 49.051 1.32301C52.8376 4.48239 56.8451 7.32915 60.5664 10.582" stroke="#485169" stroke-linecap="round"/>
</svg>
