<svg width="58" height="73" viewBox="0 0 58 73" fill="none" xmlns="http://www.w3.org/2000/svg">
<path d="M1 72.5C27.0445 72.5 50 48.1355 26.4595 48.4595C20 48.5484 19.6067 55.9922 20.5 59.5C21.9131 65.049 28.5619 66.9798 34.2108 66.9974C44.4724 67.0294 56.8363 59.1878 56.5656 48.1355C56.1421 30.8394 41.7047 18.4312 26.2184 12.5385C23.1337 11.3647 -1.10119 6.47355 10.9555 13.3091C13.1437 14.5497 19.8379 18.0106 17.732 16.638C14.2405 14.3621 12.1837 13.2255 8.04846 12.1175C7.22749 11.8975 2.77934 11.3364 4.74842 9.94942C8.78018 7.10959 12.5671 3.97547 16.6723 1.22282" stroke="#485169" stroke-linecap="round"/>
</svg>
