<svg width="20" height="20" viewBox="0 0 20 20" fill="none" xmlns="http://www.w3.org/2000/svg">
<path d="M4.19729 2.61204C4.197 3.17191 3.97564 3.70874 3.58186 4.10442C3.1881 4.50012 2.65419 4.72225 2.0976 4.72198C1.54101 4.72169 1.00732 4.49901 0.613931 4.10293C0.220562 3.70685 -0.000283044 3.1698 2.72258e-07 2.60994C0.000283589 2.05005 0.221648 1.51324 0.615426 1.11754C1.00919 0.72186 1.5431 0.499715 2.09969 0.5C2.65628 0.500285 3.18997 0.722952 3.58334 1.11905C3.97673 1.51513 4.19755 2.05218 4.19729 2.61204ZM4.26025 6.28517H0.0629594V19.5H4.26025V6.28517ZM10.892 6.28517H6.71561V19.5H10.85V12.5654C10.85 8.70231 15.8552 8.34339 15.8552 12.5654V19.5H20V11.1299C20 4.61748 12.5919 4.86024 10.85 8.0584L10.892 6.28517Z" fill="#475268"/>
</svg>
