<svg width="17" height="16" viewBox="0 0 17 16" fill="none" xmlns="http://www.w3.org/2000/svg">
<path d="M14.4996 10.4843V12.2908C14.5003 12.4585 14.4659 12.6245 14.3986 12.7781C14.3313 12.9318 14.2325 13.0697 14.1087 13.1831C13.9849 13.2965 13.8387 13.3828 13.6795 13.4365C13.5203 13.4903 13.3517 13.5102 13.1843 13.4951C11.3277 13.2938 9.54426 12.6606 7.97734 11.6465C6.51953 10.722 5.28356 9.48843 4.3572 8.03351C3.33752 6.46259 2.70294 4.67405 2.5049 2.81277C2.48982 2.64625 2.50965 2.47843 2.56312 2.31998C2.61659 2.16153 2.70254 2.01592 2.81548 1.89244C2.92843 1.76896 3.0659 1.6703 3.21915 1.60274C3.37239 1.53519 3.53805 1.50022 3.70558 1.50006H5.51565C5.80846 1.49718 6.09233 1.60067 6.31435 1.79122C6.53636 1.98178 6.68138 2.24641 6.72236 2.53578C6.79876 3.11389 6.94044 3.68152 7.14471 4.22785C7.22589 4.44338 7.24346 4.67761 7.19534 4.9028C7.14721 5.12799 7.03542 5.33469 6.8732 5.49841L6.10694 6.26315C6.96585 7.77069 8.21655 9.01891 9.72708 9.87612L10.4933 9.11138C10.6574 8.94948 10.8645 8.83791 11.0901 8.78988C11.3158 8.74185 11.5505 8.75939 11.7664 8.8404C12.3138 9.04427 12.8826 9.18567 13.4619 9.26192C13.7549 9.30318 14.0226 9.45052 14.214 9.6759C14.4053 9.90128 14.507 10.189 14.4996 10.4843Z" fill="#485169"/>
</svg>
