<svg width="21" height="20" viewBox="0 0 21 20" fill="none" xmlns="http://www.w3.org/2000/svg">
<path fill-rule="evenodd" clip-rule="evenodd" d="M5.34305 1.12402C4.35669 1.12402 3.41071 1.51575 2.71311 2.21308C2.01552 2.91041 1.62343 3.85624 1.62305 4.8426V14.7626C1.62305 15.7492 2.01497 16.6954 2.71261 17.393C3.41024 18.0907 4.35644 18.4826 5.34305 18.4826H15.263C16.2494 18.4822 17.1952 18.0901 17.8926 17.3925C18.5899 16.6949 18.9816 15.749 18.9816 14.7626V4.8426C18.9812 3.85648 18.5893 2.91087 17.8921 2.21359C17.1948 1.5163 16.2492 1.1244 15.263 1.12402H5.34305ZM16.333 4.84831C16.333 5.13247 16.2202 5.40499 16.0192 5.60592C15.8183 5.80686 15.5458 5.91974 15.2616 5.91974C14.9775 5.91974 14.7049 5.80686 14.504 5.60592C14.3031 5.40499 14.1902 5.13247 14.1902 4.84831C14.1902 4.56415 14.3031 4.29163 14.504 4.09069C14.7049 3.88976 14.9775 3.77688 15.2616 3.77688C15.5458 3.77688 15.8183 3.88976 16.0192 4.09069C16.2202 4.29163 16.333 4.56415 16.333 4.84831ZM10.3045 6.83117C9.5164 6.83117 8.76061 7.14423 8.20336 7.70148C7.64611 8.25873 7.33305 9.01452 7.33305 9.8026C7.33305 10.5907 7.64611 11.3465 8.20336 11.9037C8.76061 12.461 9.5164 12.774 10.3045 12.774C11.0925 12.774 11.8483 12.461 12.4056 11.9037C12.9628 11.3465 13.2759 10.5907 13.2759 9.8026C13.2759 9.01452 12.9628 8.25873 12.4056 7.70148C11.8483 7.14423 11.0925 6.83117 10.3045 6.83117ZM5.90305 9.8026C5.90305 8.63564 6.36662 7.51649 7.19178 6.69133C8.01694 5.86617 9.13609 5.4026 10.303 5.4026C11.47 5.4026 12.5892 5.86617 13.4143 6.69133C14.2395 7.51649 14.703 8.63564 14.703 9.8026C14.703 10.9695 14.2395 12.0887 13.4143 12.9139C12.5892 13.739 11.47 14.2026 10.303 14.2026C9.13609 14.2026 8.01694 13.739 7.19178 12.9139C6.36662 12.0887 5.90305 10.9695 5.90305 9.8026Z" fill="#485169"/>
</svg>
