<svg width="19" height="16" viewBox="0 0 19 16" fill="none" xmlns="http://www.w3.org/2000/svg">
<path d="M18.6673 0.499591C17.8693 1.06249 16.9857 1.49302 16.0507 1.77459C15.5488 1.19752 14.8818 0.788501 14.1398 0.602862C13.3979 0.417224 12.6169 0.46392 11.9024 0.736635C11.1879 1.00935 10.5744 1.49493 10.1448 2.12769C9.71525 2.76045 9.4904 3.50987 9.50065 4.27459V5.10792C8.03618 5.1459 6.58505 4.8211 5.27649 4.16246C3.96794 3.50382 2.84258 2.53179 2.00065 1.33292C2.00065 1.33292 -1.33268 8.83292 6.16732 12.1663C4.45109 13.3312 2.40662 13.9154 0.333984 13.8329C7.83398 17.9996 17.0007 13.8329 17.0007 4.24959C16.9999 4.01747 16.9776 3.78592 16.934 3.55792C17.7845 2.71917 18.3847 1.66018 18.6673 0.499591Z" fill="#485169"/>
</svg>
