<svg width="20" height="20" viewBox="0 0 20 20" fill="none" xmlns="http://www.w3.org/2000/svg">
<path fill-rule="evenodd" clip-rule="evenodd" d="M4.845 1.12402C3.85864 1.12402 2.91266 1.51575 2.21507 2.21308C1.51747 2.91041 1.12538 3.85624 1.125 4.8426V14.7626C1.125 15.7492 1.51693 16.6954 2.21456 17.393C2.9122 18.0907 3.85839 18.4826 4.845 18.4826H14.765C15.7514 18.4822 16.6972 18.0901 17.3945 17.3925C18.0918 16.6949 18.4836 15.749 18.4836 14.7626V4.8426C18.4832 3.85648 18.0913 2.91087 17.394 2.21359C16.6967 1.5163 15.7511 1.1244 14.765 1.12402H4.845ZM15.835 4.84831C15.835 5.13247 15.7221 5.40499 15.5212 5.60592C15.3203 5.80686 15.0477 5.91974 14.7636 5.91974C14.4794 5.91974 14.2069 5.80686 14.006 5.60592C13.805 5.40499 13.6921 5.13247 13.6921 4.84831C13.6921 4.56415 13.805 4.29163 14.006 4.09069C14.2069 3.88976 14.4794 3.77688 14.7636 3.77688C15.0477 3.77688 15.3203 3.88976 15.5212 4.09069C15.7221 4.29163 15.835 4.56415 15.835 4.84831ZM9.80643 6.83117C9.01836 6.83117 8.26256 7.14423 7.70531 7.70148C7.14806 8.25873 6.835 9.01452 6.835 9.8026C6.835 10.5907 7.14806 11.3465 7.70531 11.9037C8.26256 12.461 9.01836 12.774 9.80643 12.774C10.5945 12.774 11.3503 12.461 11.9075 11.9037C12.4648 11.3465 12.7779 10.5907 12.7779 9.8026C12.7779 9.01452 12.4648 8.25873 11.9075 7.70148C11.3503 7.14423 10.5945 6.83117 9.80643 6.83117ZM5.405 9.8026C5.405 8.63564 5.86857 7.51649 6.69373 6.69133C7.51889 5.86617 8.63805 5.4026 9.805 5.4026C10.972 5.4026 12.0911 5.86617 12.9163 6.69133C13.7414 7.51649 14.205 8.63564 14.205 9.8026C14.205 10.9695 13.7414 12.0887 12.9163 12.9139C12.0911 13.739 10.972 14.2026 9.805 14.2026C8.63805 14.2026 7.51889 13.739 6.69373 12.9139C5.86857 12.0887 5.405 10.9695 5.405 9.8026Z" fill="#F8F8F8"/>
</svg>
