<svg width="16" height="16" viewBox="0 0 16 16" fill="none" xmlns="http://www.w3.org/2000/svg">
<path d="M12.3279 7.13914L6.57055 13.0591C6.41055 13.2231 6.14521 13.0331 6.24921 12.8291L8.29855 8.78514C8.31407 8.75462 8.3215 8.72062 8.32012 8.68641C8.31874 8.65219 8.30859 8.61891 8.29066 8.58974C8.27273 8.56057 8.24761 8.53649 8.21771 8.51981C8.18781 8.50312 8.15412 8.4944 8.11988 8.49447H3.80921C3.76984 8.49444 3.73135 8.48279 3.69858 8.46097C3.6658 8.43916 3.64019 8.40816 3.62495 8.37185C3.60972 8.33555 3.60554 8.29555 3.61294 8.25688C3.62034 8.21821 3.63899 8.18259 3.66655 8.15447L9.00655 2.74447C9.16121 2.5878 9.41855 2.7598 9.33255 2.96314L7.80121 6.57314C7.78825 6.60374 7.78311 6.6371 7.78628 6.67018C7.78944 6.70327 7.8008 6.73505 7.81933 6.76264C7.83786 6.79024 7.86297 6.81278 7.8924 6.82823C7.92183 6.84368 7.95464 6.85155 7.98788 6.85114L12.1819 6.79914C12.2215 6.7985 12.2603 6.80962 12.2936 6.8311C12.3268 6.85257 12.353 6.88343 12.3687 6.91976C12.3844 6.9561 12.389 6.99627 12.3818 7.03521C12.3747 7.07414 12.3561 7.11008 12.3285 7.13847" fill="#7373FF"/>
</svg>
