<svg width="182" height="40" viewBox="0 0 182 40" fill="none" xmlns="http://www.w3.org/2000/svg">
<path d="M33.2849 25.9194V29.0848C33.2849 29.852 33.1044 30.429 32.7434 30.8126C32.3824 31.1962 31.9247 31.3896 31.3702 31.3896C30.8158 31.3896 30.3742 31.1962 30.0228 30.8062C29.6714 30.4161 29.4941 29.8424 29.4941 29.0848V18.5344C29.4941 16.8324 30.1098 15.9814 31.3412 15.9814C31.9698 15.9814 32.4243 16.1813 32.7015 16.5778C32.9787 16.9743 33.1302 17.5642 33.1592 18.341C33.6137 17.5642 34.0779 16.9775 34.555 16.5778C35.0321 16.1813 35.6671 15.9814 36.4633 15.9814C37.2595 15.9814 38.0331 16.1813 38.781 16.5778C39.532 16.9743 39.906 17.5029 39.906 18.1605C39.906 18.6247 39.7448 19.0051 39.4257 19.3048C39.1065 19.6046 38.7616 19.7561 38.3909 19.7561C38.2523 19.7561 37.9171 19.6723 37.3852 19.4982C36.8533 19.3274 36.3827 19.2404 35.9765 19.2404C35.4221 19.2404 34.9676 19.3854 34.6162 19.6788C34.2649 19.9721 33.9909 20.404 33.7975 20.9778C33.6041 21.5516 33.4687 22.235 33.3945 23.0247C33.3204 23.8145 33.2849 24.7815 33.2849 25.9194Z" fill="#7373FF"/>
<path d="M50.8455 29.2492C49.93 29.9616 49.0436 30.4967 48.1861 30.8513C47.3287 31.2059 46.3713 31.3864 45.3044 31.3864C44.3309 31.3864 43.4799 31.193 42.7417 30.8094C42.0067 30.4258 41.4394 29.9036 41.0397 29.246C40.6432 28.5884 40.4434 27.876 40.4434 27.1089C40.4434 26.0709 40.7722 25.1877 41.4298 24.456C42.0873 23.7242 42.9899 23.2343 44.1375 22.9861C44.3792 22.9313 44.9756 22.8055 45.9297 22.6121C46.8839 22.4187 47.6994 22.2414 48.3796 22.077C49.0597 21.9159 49.7979 21.7192 50.5941 21.4871C50.549 20.4879 50.3459 19.7529 49.9913 19.2855C49.6335 18.8181 48.8985 18.5828 47.7767 18.5828C46.8129 18.5828 46.0909 18.7182 45.6041 18.9857C45.1174 19.2533 44.7016 19.6562 44.3534 20.1945C44.0053 20.7328 43.7603 21.0842 43.6185 21.2551C43.4734 21.4259 43.1672 21.5129 42.6966 21.5129C42.2711 21.5129 41.9036 21.3775 41.5942 21.1035C41.2847 20.8296 41.13 20.4814 41.13 20.0559C41.13 19.3887 41.3653 18.7407 41.8391 18.1122C42.3098 17.4836 43.0479 16.9646 44.0472 16.5585C45.0465 16.1523 46.2907 15.9492 47.78 15.9492C49.4465 15.9492 50.7553 16.1459 51.7094 16.5391C52.6635 16.9324 53.3373 17.5545 53.7305 18.4055C54.1238 19.2565 54.3204 20.3847 54.3204 21.7934C54.3204 22.683 54.3204 23.4373 54.3139 24.0562C54.3075 24.6751 54.3011 25.365 54.2946 26.1257C54.2946 26.8381 54.4139 27.5827 54.6492 28.3531C54.8845 29.1268 55.0038 29.6232 55.0038 29.8456C55.0038 30.2356 54.8201 30.587 54.4558 30.9093C54.0915 31.2285 53.6757 31.3864 53.2148 31.3864C52.8247 31.3864 52.4411 31.2027 52.064 30.8384C51.6836 30.4742 51.2807 29.9423 50.8552 29.2492H50.8455ZM50.5941 23.7661C50.0397 23.9692 49.2306 24.1852 48.17 24.4108C47.1095 24.6365 46.3778 24.8041 45.9684 24.9105C45.5622 25.0168 45.1722 25.2264 44.8015 25.5358C44.4308 25.8453 44.2471 26.2772 44.2471 26.8349C44.2471 27.3925 44.463 27.8954 44.8982 28.2983C45.3334 28.7013 45.9007 28.9011 46.6067 28.9011C47.3577 28.9011 48.0475 28.7367 48.6826 28.4079C49.3176 28.0791 49.7817 27.6569 50.0783 27.1379C50.42 26.5641 50.5909 25.6196 50.5909 24.3077V23.7661H50.5941Z" fill="#7373FF"/>
<path d="M61.6023 18.0741V18.5318C62.2696 17.6518 62.9981 17.0071 63.7878 16.5945C64.5776 16.1819 65.4898 15.9756 66.5149 15.9756C67.54 15.9756 68.4071 16.1916 69.1936 16.6267C69.9801 17.0619 70.5668 17.6776 70.9568 18.4738C71.2083 18.938 71.3694 19.4376 71.4436 19.9727C71.5177 20.511 71.5532 21.1944 71.5532 22.026V29.079C71.5532 29.8365 71.3791 30.4103 71.0342 30.8003C70.6893 31.1903 70.2348 31.3838 69.6804 31.3838C69.1259 31.3838 68.6585 31.1839 68.3072 30.7874C67.9558 30.3909 67.7785 29.8204 67.7785 29.079V22.7642C67.7785 21.5135 67.6044 20.5594 67.2595 19.8985C66.9114 19.2377 66.2216 18.9057 65.1836 18.9057C64.5067 18.9057 63.8942 19.1056 63.3366 19.5085C62.7821 19.9114 62.3728 20.4626 62.1149 21.1686C61.9312 21.7327 61.8377 22.7868 61.8377 24.334V29.0822C61.8377 29.8494 61.6604 30.4264 61.3026 30.81C60.9448 31.1936 60.487 31.387 59.9229 31.387C59.3588 31.387 58.9268 31.1871 58.5755 30.7906C58.2241 30.3942 58.0469 29.8236 58.0469 29.0822V18.1289C58.0469 17.4068 58.2048 16.8685 58.5175 16.5107C58.8334 16.1529 59.2621 15.9756 59.8101 15.9756C60.1421 15.9756 60.4451 16.0529 60.7126 16.2109C60.9802 16.3688 61.1962 16.6042 61.3573 16.9201C61.5185 17.236 61.5991 17.6196 61.5991 18.0708L61.6023 18.0741Z" fill="#7373FF"/>
<path d="M85.7147 29.2236V28.8497C85.2054 29.4331 84.7025 29.907 84.2093 30.2712C83.7129 30.6355 83.1778 30.9159 82.5976 31.1029C82.0173 31.2931 81.3888 31.3865 80.7022 31.3865C79.7964 31.3865 78.9551 31.1931 78.1814 30.8095C77.4078 30.4259 76.7405 29.878 76.1764 29.1656C75.6123 28.4532 75.1836 27.6151 74.8935 26.6545C74.6034 25.6907 74.4551 24.6495 74.4551 23.531C74.4551 21.1617 75.0321 19.3147 76.1893 17.993C77.3465 16.6714 78.868 16.0074 80.757 16.0074C81.8497 16.0074 82.7684 16.1943 83.5195 16.5683C84.2705 16.9422 84.999 17.5192 85.7114 18.296V12.7033C85.7114 11.9265 85.8662 11.3398 86.1756 10.9401C86.4851 10.5436 86.9267 10.3438 87.5005 10.3438C88.0743 10.3438 88.5159 10.5275 88.8253 10.8917C89.1348 11.256 89.2895 11.7975 89.2895 12.5099V29.2236C89.2895 29.9456 89.1219 30.4872 88.7899 30.8482C88.4578 31.2092 88.0259 31.3898 87.5005 31.3898C86.975 31.3898 86.5527 31.2028 86.2175 30.8289C85.879 30.455 85.7114 29.9199 85.7114 29.2268L85.7147 29.2236ZM78.262 23.6567C78.262 24.6849 78.4232 25.5585 78.7423 26.2806C79.0614 27.0026 79.4998 27.5474 80.0542 27.9116C80.6087 28.2759 81.2147 28.4596 81.8723 28.4596C82.5299 28.4596 83.1456 28.2856 83.6968 27.9407C84.248 27.5957 84.6864 27.0606 85.0152 26.345C85.3439 25.6294 85.5084 24.7333 85.5084 23.6599C85.5084 22.6509 85.3439 21.7838 85.0152 21.0553C84.6864 20.33 84.2415 19.7724 83.6839 19.3888C83.123 19.0052 82.5105 18.8118 81.8433 18.8118C81.176 18.8118 80.5281 19.0084 79.9833 19.4017C79.4386 19.795 79.0131 20.3591 78.7133 21.094C78.4135 21.829 78.262 22.6832 78.262 23.6567Z" fill="#7373FF"/>
<path d="M103.68 24.6142H96.2659C96.2756 25.4749 96.4497 26.2324 96.7881 26.89C97.1266 27.5475 97.5747 28.0407 98.1355 28.376C98.6964 28.7112 99.3121 28.8756 99.989 28.8756C100.444 28.8756 100.856 28.8208 101.23 28.7144C101.604 28.6081 101.968 28.4404 102.32 28.2148C102.671 27.9892 102.997 27.7442 103.293 27.4863C103.59 27.2284 103.973 26.8771 104.444 26.4322C104.637 26.2646 104.915 26.1808 105.276 26.1808C105.666 26.1808 105.978 26.2872 106.22 26.4999C106.462 26.7127 106.581 27.0124 106.581 27.4025C106.581 27.7442 106.446 28.1439 106.178 28.6016C105.911 29.0593 105.504 29.4977 104.963 29.92C104.421 30.3423 103.741 30.6904 102.922 30.9676C102.104 31.2449 101.162 31.3835 100.099 31.3835C97.6649 31.3835 95.7727 30.6904 94.4221 29.3011C93.0715 27.9118 92.3945 26.0293 92.3945 23.6504C92.3945 22.5318 92.5622 21.4906 92.8942 20.5333C93.2262 19.5759 93.713 18.7539 94.3512 18.0706C94.9894 17.3872 95.776 16.8617 96.7108 16.4943C97.6456 16.13 98.6803 15.9463 99.8214 15.9463C101.301 15.9463 102.571 16.259 103.632 16.8843C104.692 17.5097 105.485 18.3155 106.014 19.3084C106.542 20.3012 106.803 21.3069 106.803 22.3352C106.803 23.2893 106.529 23.905 105.985 24.1887C105.44 24.4724 104.669 24.611 103.68 24.611V24.6142ZM96.2659 22.4609H103.138C103.045 21.1651 102.697 20.1948 102.091 19.5533C101.485 18.9086 100.685 18.5895 99.6957 18.5895C98.7061 18.5895 97.9776 18.9151 97.3716 19.5695C96.7656 20.2206 96.3981 21.1876 96.2691 22.4641L96.2659 22.4609Z" fill="#7373FF"/>
<path d="M120.381 29.2236V28.8497C119.871 29.4331 119.368 29.907 118.875 30.2712C118.379 30.6355 117.844 30.9159 117.264 31.1029C116.683 31.2898 116.055 31.3865 115.368 31.3865C114.462 31.3865 113.621 31.1931 112.847 30.8095C112.074 30.4259 111.407 29.878 110.842 29.1656C110.278 28.4532 109.85 27.6151 109.559 26.6545C109.269 25.6939 109.121 24.6495 109.121 23.531C109.121 21.1617 109.698 19.3147 110.855 17.993C112.013 16.6682 113.534 16.0074 115.423 16.0074C116.516 16.0074 117.434 16.1943 118.185 16.5683C118.937 16.9422 119.665 17.5192 120.377 18.296V12.7033C120.377 11.9265 120.532 11.3398 120.842 10.9401C121.151 10.5436 121.593 10.3438 122.166 10.3438C122.74 10.3438 123.182 10.5275 123.491 10.8917C123.801 11.256 123.955 11.7975 123.955 12.5099V29.2236C123.955 29.9456 123.788 30.4872 123.456 30.8482C123.124 31.2092 122.692 31.3898 122.163 31.3898C121.635 31.3898 121.216 31.2028 120.88 30.8289C120.542 30.455 120.374 29.9199 120.374 29.2268L120.381 29.2236ZM112.925 23.6567C112.925 24.6849 113.086 25.5585 113.405 26.2806C113.724 27.0026 114.163 27.5474 114.717 27.9116C115.271 28.2759 115.877 28.4596 116.535 28.4596C117.193 28.4596 117.808 28.2856 118.36 27.9407C118.911 27.5925 119.349 27.0606 119.678 26.345C120.007 25.6294 120.171 24.7333 120.171 23.6599C120.171 22.6509 120.007 21.7838 119.678 21.0553C119.349 20.33 118.904 19.7724 118.347 19.3888C117.786 19.0052 117.173 18.8118 116.506 18.8118C115.839 18.8118 115.191 19.0084 114.646 19.4017C114.101 19.795 113.676 20.3591 113.376 21.094C113.076 21.829 112.925 22.6832 112.925 23.6567Z" fill="#7373FF"/>
<path d="M129.68 14.2155C129.152 14.2155 128.7 14.0543 128.327 13.7287C127.953 13.4064 127.766 12.9454 127.766 12.3555C127.766 11.8204 127.959 11.3756 128.343 11.0307C128.726 10.6826 129.174 10.5117 129.684 10.5117C130.193 10.5117 130.609 10.6697 130.989 10.9823C131.369 11.2982 131.56 11.756 131.56 12.3555C131.56 12.9551 131.376 13.3935 131.005 13.7223C130.635 14.0511 130.196 14.2155 129.687 14.2155H129.68ZM131.553 18.132V29.0853C131.553 29.8428 131.373 30.4166 131.012 30.8067C130.651 31.1967 130.193 31.3901 129.638 31.3901C129.084 31.3901 128.633 31.1903 128.285 30.7938C127.936 30.3973 127.766 29.8267 127.766 29.0853V18.2448C127.766 17.4937 127.94 16.9296 128.285 16.5525C128.633 16.1721 129.084 15.9819 129.638 15.9819C130.193 15.9819 130.651 16.1721 131.012 16.5525C131.373 16.9329 131.553 17.4583 131.553 18.1352V18.132Z" fill="#7373FF"/>
<path d="M135.163 16.3107H136.065V15.1728C136.065 13.9898 136.217 13.0453 136.517 12.349C136.817 11.6496 137.326 11.1402 138.045 10.8211C138.76 10.502 139.747 10.3408 140.994 10.3408C143.205 10.3408 144.311 10.8824 144.311 11.9655C144.311 12.3168 144.195 12.6166 143.963 12.868C143.731 13.1194 143.46 13.2419 143.144 13.2419C142.996 13.2419 142.741 13.2129 142.38 13.1581C142.019 13.1033 141.713 13.0743 141.465 13.0743C140.778 13.0743 140.34 13.2742 140.146 13.6771C139.953 14.08 139.856 14.657 139.856 15.4049V16.3075H140.788C142.232 16.3075 142.954 16.7426 142.954 17.613C142.954 18.2319 142.761 18.6251 142.377 18.7928C141.993 18.9604 141.465 19.0442 140.788 19.0442H139.856V29.0821C139.856 29.8331 139.679 30.4037 139.321 30.7969C138.963 31.1902 138.506 31.3868 137.938 31.3868C137.371 31.3868 136.955 31.1902 136.597 30.7969C136.24 30.4037 136.062 29.8331 136.062 29.0821V19.0442H135.021C134.457 19.0442 134.022 18.9185 133.716 18.6638C133.409 18.4092 133.258 18.0771 133.258 17.671C133.258 16.7652 133.893 16.3107 135.16 16.3107H135.163Z" fill="#7373FF"/>
<path d="M148.434 31.8608L148.782 31.0131L144.118 19.27C143.831 18.593 143.689 18.1031 143.689 17.8001C143.689 17.4777 143.773 17.1747 143.941 16.8975C144.108 16.6203 144.337 16.3979 144.627 16.2302C144.917 16.0626 145.22 15.9788 145.536 15.9788C146.081 15.9788 146.494 16.1529 146.771 16.4978C147.048 16.8459 147.293 17.3423 147.506 17.9903L150.713 27.319L153.753 18.6414C153.994 17.9387 154.21 17.3875 154.404 16.991C154.597 16.5945 154.804 16.3237 155.023 16.1851C155.242 16.0465 155.548 15.9756 155.945 15.9756C156.232 15.9756 156.506 16.0529 156.77 16.2044C157.034 16.356 157.237 16.5623 157.379 16.8234C157.521 17.0812 157.595 17.3552 157.595 17.6421C157.56 17.8194 157.498 18.0676 157.415 18.3932C157.331 18.7188 157.231 19.0443 157.108 19.3796L152.167 32.3186C151.741 33.4564 151.325 34.3493 150.916 34.9973C150.51 35.6452 149.968 36.1416 149.298 36.4897C148.627 36.8379 147.722 37.0087 146.584 37.0087C145.446 37.0087 144.64 36.8894 144.086 36.6477C143.531 36.4059 143.254 35.9675 143.254 35.3293C143.254 34.8941 143.386 34.5589 143.65 34.3236C143.915 34.0882 144.305 33.969 144.824 33.969C145.027 33.969 145.227 33.998 145.42 34.0528C145.662 34.1076 145.868 34.1366 146.045 34.1366C146.481 34.1366 146.822 34.0721 147.074 33.9432C147.325 33.8143 147.548 33.5886 147.747 33.2695C147.947 32.9504 148.176 32.4797 148.434 31.8608Z" fill="#7373FF"/>
<path d="M12.4942 8.19727C9.39641 8.19727 6.39536 9.36739 4.10669 11.4401V2.05335C4.10669 0.918687 3.18801 0 2.05335 0C0.918687 0 0 0.918687 0 2.05335V20.6914C0 26.5388 4.0519 31.6029 9.75744 32.8826L10.3151 33.0083L10.1958 31.3869C10.0862 29.9299 9.31259 28.5889 8.07155 27.8217C5.55403 26.2648 4.00355 23.4668 4.11637 20.3723C4.27755 15.9884 7.88783 12.4232 12.2717 12.3072C17.0006 12.1815 20.8848 15.9916 20.8848 20.6914C20.8848 23.4765 19.5181 26.0134 17.3197 27.5542C15.9078 28.5438 15.0213 30.1233 14.8989 31.8446L14.8151 32.9825L15.1825 32.8955C20.7817 31.5706 24.8916 26.6613 24.9915 20.9074C25.1108 13.9189 19.4601 8.19405 12.4974 8.19405L12.4942 8.19727Z" fill="#7373FF"/>
<path d="M12.4949 40.0005C13.8425 40.0005 14.935 38.9079 14.935 37.5603C14.935 36.2126 13.8425 35.1201 12.4949 35.1201C11.1472 35.1201 10.0547 36.2126 10.0547 37.5603C10.0547 38.9079 11.1472 40.0005 12.4949 40.0005Z" fill="#7373FF"/>
</svg>
