<svg width="31" height="14" viewBox="0 0 31 14" fill="none" xmlns="http://www.w3.org/2000/svg">
<path d="M1.548 0.377999V10.5H0.176V0.377999H1.548ZM0.414 10.5V9.226H6V10.5H0.414ZM6.68173 7.07C6.68173 6.37 6.83573 5.74933 7.14373 5.208C7.45173 4.66667 7.87173 4.242 8.40373 3.934C8.94507 3.626 9.56107 3.472 10.2517 3.472C10.9424 3.472 11.5537 3.626 12.0857 3.934C12.6177 4.242 13.0377 4.66667 13.3457 5.208C13.6537 5.74933 13.8077 6.37 13.8077 7.07C13.8077 7.77 13.6537 8.39067 13.3457 8.932C13.0377 9.47333 12.6177 9.898 12.0857 10.206C11.5537 10.514 10.9424 10.668 10.2517 10.668C9.56107 10.668 8.94507 10.514 8.40373 10.206C7.87173 9.898 7.45173 9.47333 7.14373 8.932C6.83573 8.39067 6.68173 7.77 6.68173 7.07ZM8.01173 7.07C8.01173 7.546 8.10507 7.966 8.29173 8.33C8.48773 8.694 8.75373 8.97867 9.08973 9.184C9.42573 9.38933 9.81307 9.492 10.2517 9.492C10.6904 9.492 11.0777 9.38933 11.4137 9.184C11.7497 8.97867 12.0111 8.694 12.1977 8.33C12.3937 7.966 12.4917 7.546 12.4917 7.07C12.4917 6.58467 12.3937 6.16467 12.1977 5.81C12.0111 5.446 11.7497 5.16133 11.4137 4.956C11.0777 4.75067 10.6904 4.648 10.2517 4.648C9.81307 4.648 9.42573 4.75067 9.08973 4.956C8.75373 5.16133 8.48773 5.446 8.29173 5.81C8.10507 6.16467 8.01173 6.58467 8.01173 7.07ZM14.8305 6.902C14.8305 6.258 14.9612 5.67933 15.2225 5.166C15.4838 4.64333 15.8572 4.228 16.3425 3.92C16.8278 3.612 17.4018 3.458 18.0645 3.458C18.6805 3.458 19.2078 3.60733 19.6465 3.906C20.0852 4.19533 20.3978 4.60133 20.5845 5.124L20.4165 5.306L20.5565 3.654H21.7325V10.22C21.7325 10.9387 21.5925 11.5593 21.3125 12.082C21.0325 12.614 20.6358 13.0247 20.1225 13.314C19.6092 13.6033 19.0025 13.748 18.3025 13.748C17.3692 13.748 16.6038 13.5007 16.0065 13.006C15.4092 12.5113 15.0452 11.83 14.9145 10.962H16.2305C16.3145 11.466 16.5385 11.858 16.9025 12.138C17.2665 12.418 17.7332 12.558 18.3025 12.558C18.9465 12.558 19.4598 12.362 19.8425 11.97C20.2345 11.5873 20.4305 11.0693 20.4305 10.416V8.484L20.5985 8.666C20.4212 9.17933 20.0992 9.58533 19.6325 9.884C19.1658 10.1733 18.6245 10.318 18.0085 10.318C17.3552 10.318 16.7905 10.1687 16.3145 9.87C15.8385 9.562 15.4698 9.15133 15.2085 8.638C14.9565 8.12467 14.8305 7.546 14.8305 6.902ZM16.1465 6.874C16.1465 7.30333 16.2305 7.69067 16.3985 8.036C16.5758 8.38133 16.8185 8.65667 17.1265 8.862C17.4438 9.06733 17.8125 9.17 18.2325 9.17C18.6805 9.17 19.0632 9.072 19.3805 8.876C19.6978 8.68 19.9405 8.40933 20.1085 8.064C20.2858 7.71867 20.3745 7.322 20.3745 6.874C20.3745 6.426 20.2905 6.034 20.1225 5.698C19.9545 5.362 19.7118 5.096 19.3945 4.9C19.0772 4.704 18.6945 4.606 18.2465 4.606C17.8078 4.606 17.4298 4.70867 17.1125 4.914C16.8045 5.11933 16.5665 5.39467 16.3985 5.74C16.2305 6.076 16.1465 6.454 16.1465 6.874ZM23.1837 7.07C23.1837 6.37 23.3377 5.74933 23.6457 5.208C23.9537 4.66667 24.3737 4.242 24.9057 3.934C25.447 3.626 26.063 3.472 26.7537 3.472C27.4444 3.472 28.0557 3.626 28.5877 3.934C29.1197 4.242 29.5397 4.66667 29.8477 5.208C30.1557 5.74933 30.3097 6.37 30.3097 7.07C30.3097 7.77 30.1557 8.39067 29.8477 8.932C29.5397 9.47333 29.1197 9.898 28.5877 10.206C28.0557 10.514 27.4444 10.668 26.7537 10.668C26.063 10.668 25.447 10.514 24.9057 10.206C24.3737 9.898 23.9537 9.47333 23.6457 8.932C23.3377 8.39067 23.1837 7.77 23.1837 7.07ZM24.5137 7.07C24.5137 7.546 24.607 7.966 24.7937 8.33C24.9897 8.694 25.2557 8.97867 25.5917 9.184C25.9277 9.38933 26.315 9.492 26.7537 9.492C27.1924 9.492 27.5797 9.38933 27.9157 9.184C28.2517 8.97867 28.513 8.694 28.6997 8.33C28.8957 7.966 28.9937 7.546 28.9937 7.07C28.9937 6.58467 28.8957 6.16467 28.6997 5.81C28.513 5.446 28.2517 5.16133 27.9157 4.956C27.5797 4.75067 27.1924 4.648 26.7537 4.648C26.315 4.648 25.9277 4.75067 25.5917 4.956C25.2557 5.16133 24.9897 5.446 24.7937 5.81C24.607 6.16467 24.5137 6.58467 24.5137 7.07Z" fill="#030A1D"/>
</svg>
