<svg width="123" height="22" viewBox="0 0 123 22" fill="none" xmlns="http://www.w3.org/2000/svg">
<path d="M15.4492 17.6097V5.16896H18.0169V6.88454C18.9249 5.55836 20.2044 4.89526 21.8575 4.89526C22.2898 4.89526 22.6308 4.94867 22.885 5.05547V7.93704C22.3484 7.739 21.8271 7.63887 21.3231 7.63887C20.3847 7.63887 19.6113 7.98599 19.0009 8.68023C18.3905 9.37448 18.0864 10.3535 18.0864 11.6196V17.612H15.4514L15.4492 17.6097Z" fill="black"/>
<path d="M29.8961 17.8612C28.0952 17.8612 26.655 17.2737 25.5754 16.1011C24.4958 14.9262 23.957 13.3486 23.957 11.366C23.957 9.38338 24.4936 7.8102 25.5645 6.64423C26.6355 5.47825 28.0431 4.89526 29.7831 4.89526C31.5231 4.89526 32.7526 5.38257 33.6911 6.35941V5.17118H36.3261V17.612H33.7367V16.308C32.8743 17.3449 31.5926 17.8634 29.8961 17.8634V17.8612ZM30.4087 15.4602C31.093 15.4602 31.7338 15.3089 32.329 15.0019C32.9242 14.697 33.3935 14.2386 33.7345 13.629V9.07853C33.3783 8.51557 32.8851 8.07722 32.2617 7.76347C31.6361 7.45195 30.9887 7.29397 30.3197 7.29397C29.2335 7.29397 28.3581 7.65222 27.6955 8.36871C27.033 9.08521 26.7028 10.0754 26.7028 11.3415C26.7028 12.6076 27.0373 13.629 27.7064 14.361C28.3755 15.0931 29.277 15.458 30.4087 15.458V15.4602Z" fill="black"/>
<path d="M39.3594 17.6098V5.16904H41.927V6.42625C43.087 5.42048 44.4273 4.9176 45.9457 4.9176C47.4642 4.9176 48.6655 5.32258 49.4627 6.13031C50.2578 6.93803 50.6575 8.30205 50.6575 10.2246V17.6121H48.0225V10.7742C48.0225 9.47915 47.7726 8.57796 47.2752 8.07508C46.7756 7.5722 46.0804 7.32076 45.1876 7.32076C43.9972 7.32076 42.9328 7.81697 41.9944 8.80715V17.6121H39.3594V17.6098Z" fill="black"/>
<path d="M58.7633 17.8613C56.9624 17.8613 55.5222 17.2738 54.4426 16.1012C53.3629 14.9263 52.8242 13.3487 52.8242 11.3661C52.8242 9.38348 53.3608 7.8103 54.4317 6.64433C55.5027 5.47835 56.9103 4.89537 58.6503 4.89537C60.3903 4.89537 61.6198 5.38267 62.5582 6.35951V0.298218H65.1932V17.6098H62.6039V16.3059C61.7415 17.3428 60.4598 17.8613 58.7633 17.8613ZM59.2759 15.4604C59.9602 15.4604 60.601 15.309 61.1962 15.002C61.7914 14.6971 62.2606 14.2387 62.6017 13.6291V9.07864C62.2454 8.51567 61.7523 8.07732 61.1289 7.76358C60.5033 7.45206 59.8559 7.29407 59.1869 7.29407C58.1007 7.29407 57.2253 7.65232 56.5627 8.36882C55.9002 9.08531 55.57 10.0755 55.57 11.3416C55.57 12.6077 55.9045 13.6291 56.5736 14.3611C57.2427 15.0932 58.1441 15.4581 59.2759 15.4581V15.4604Z" fill="black"/>
<path d="M80.0628 11.4128C80.0628 11.7777 80.0541 12.038 80.041 12.1916H70.2397C70.4026 13.2596 70.8284 14.0896 71.5126 14.6837C72.1969 15.2779 73.0832 15.576 74.1693 15.576C75.7616 15.576 77.0042 15.0042 77.897 13.8604L79.6153 15.3246C78.3944 17.0179 76.5197 17.8635 73.989 17.8635C71.9949 17.8635 70.42 17.2738 69.2665 16.0923C68.113 14.9107 67.5352 13.3286 67.5352 11.346C67.5352 9.36342 68.1152 7.82362 69.2773 6.6354C70.4373 5.44717 71.9492 4.85083 73.8087 4.85083C75.8333 4.85083 77.38 5.44939 78.4531 6.64652C79.524 7.84365 80.0606 9.4324 80.0606 11.415L80.0628 11.4128ZM73.8109 7.11158C72.9029 7.11158 72.1296 7.37414 71.4887 7.9015C70.8479 8.42664 70.4395 9.17874 70.2614 10.1533H77.4061C77.317 9.25439 76.9716 8.52232 76.3677 7.95713C75.7638 7.39417 74.9123 7.11158 73.8109 7.11158Z" fill="black"/>
<path d="M87.4742 17.8613C85.6734 17.8613 84.2331 17.2738 83.1535 16.1012C82.0739 14.9263 81.5352 13.3487 81.5352 11.3661C81.5352 9.38348 82.0717 7.8103 83.1426 6.64433C84.2136 5.47835 85.6212 4.89537 87.3612 4.89537C89.1012 4.89537 90.3307 5.38267 91.2692 6.35951V0.298218H93.9042V17.6098H91.3148V16.3059C90.4524 17.3428 89.1707 17.8613 87.4742 17.8613ZM87.9868 15.4604C88.6711 15.4604 89.3119 15.309 89.9071 15.002C90.5023 14.6971 90.9716 14.2387 91.3126 13.6291V9.07864C90.9564 8.51567 90.4633 8.07732 89.8398 7.76358C89.2142 7.45206 88.5668 7.29407 87.8978 7.29407C86.8116 7.29407 85.9362 7.65232 85.2737 8.36882C84.6111 9.08531 84.2809 10.0755 84.2809 11.3416C84.2809 12.6077 84.6154 13.6291 85.2845 14.3611C85.9536 15.0932 86.8551 15.4581 87.9868 15.4581V15.4604Z" fill="black"/>
<path d="M99.5099 3.06407C99.1818 3.40006 98.78 3.56695 98.3042 3.56695C97.8285 3.56695 97.4223 3.40006 97.0877 3.06407C96.7532 2.72807 96.5859 2.31642 96.5859 1.82911C96.5859 1.3418 96.7532 0.952405 97.0877 0.616408C97.4223 0.280411 97.8285 0.113525 98.3042 0.113525C98.78 0.113525 99.1818 0.280411 99.5099 0.616408C99.8379 0.952405 100.001 1.35516 100.001 1.82911C100.001 2.30307 99.8379 2.72807 99.5099 3.06407Z" fill="#7373FF"/>
<path d="M99.6199 5.16907H96.9414V17.6098H99.6199V5.16907Z" fill="black"/>
<path d="M103.349 17.6098V7.54769H101.539V5.16901H103.349V4.1855C103.349 2.81258 103.672 1.77344 104.32 1.06362C104.967 0.353798 105.901 0 107.122 0C108.089 0 108.901 0.144634 109.555 0.433903V2.53889C108.914 2.34085 108.334 2.24072 107.813 2.24072C107.157 2.24072 106.685 2.40761 106.394 2.7436C106.103 3.0796 105.96 3.65814 105.96 4.48144V5.16678H109.42V7.54546H105.981V17.6076H103.346L103.349 17.6098Z" fill="black"/>
<path d="M119.737 5.16907H122.572L117.504 17.8613C117.147 18.7602 116.752 19.5034 116.32 20.0909C115.888 20.6783 115.423 21.1011 114.925 21.3592C114.426 21.6173 113.976 21.7909 113.574 21.8732C113.172 21.9578 112.703 22.0001 112.166 22.0001C111.421 22.0001 110.783 21.9088 110.246 21.7264V19.3944C110.991 19.5925 111.586 19.6926 112.032 19.6926C113.326 19.6926 114.278 19.0606 114.89 17.7945L109.375 5.17129H112.366L116.14 14.617L119.735 5.17129L119.737 5.16907Z" fill="black"/>
<path d="M12.369 10.3603C11.7586 9.69051 10.9244 9.2388 9.86871 9.01184C11.3567 8.49338 12.1018 7.31183 12.1018 5.46718C12.1018 4.17215 11.6587 3.17751 10.7724 2.48326C9.88608 1.78902 8.60226 1.44189 6.92091 1.44189H0V10.545H7.09904C9.34736 10.545 10.4704 11.3082 10.4704 12.8324C10.4704 14.3566 9.47986 15.1888 7.50091 15.1888H0V17.612H7.50091C9.47986 17.612 10.9396 17.2159 11.8759 16.4238C12.8143 15.6316 13.2835 14.4568 13.2835 12.9014C13.2835 11.88 12.9773 11.0345 12.369 10.3625V10.3603ZM6.6081 8.27976H2.72405V3.82057H6.83184C7.63559 3.82057 8.26338 4.00081 8.71739 4.35906C9.17139 4.71731 9.39731 5.24689 9.39731 5.94781C9.39731 7.50319 8.46758 8.27976 6.60593 8.27976H6.6081Z" fill="#7373FF"/>
<path d="M8.80673 14.0229C8.5265 14.3099 8.18328 14.4523 7.77706 14.4523C7.37085 14.4523 7.02327 14.3099 6.7387 14.0229C6.45196 13.7358 6.30859 13.3843 6.30859 12.9682C6.30859 12.5521 6.45196 12.2183 6.7387 11.9335C7.02544 11.6464 7.37085 11.504 7.77706 11.504C8.18328 11.504 8.5265 11.6464 8.80673 11.9335C9.08695 12.2205 9.22598 12.5654 9.22598 12.9682C9.22598 13.3709 9.08695 13.7358 8.80673 14.0229Z" fill="#7373FF"/>
</svg>
