<svg width="16" height="16" viewBox="0 0 16 16" fill="none" xmlns="http://www.w3.org/2000/svg">
<path d="M13.9996 10.4843V12.2908C14.0003 12.4585 13.9659 12.6245 13.8986 12.7781C13.8313 12.9318 13.7325 13.0697 13.6087 13.1831C13.4849 13.2965 13.3387 13.3828 13.1795 13.4365C13.0203 13.4903 12.8517 13.5102 12.6843 13.4951C10.8277 13.2938 9.04426 12.6606 7.47734 11.6465C6.01953 10.722 4.78356 9.48843 3.8572 8.03351C2.83752 6.46259 2.20294 4.67405 2.0049 2.81277C1.98982 2.64625 2.00965 2.47843 2.06312 2.31998C2.11659 2.16153 2.20254 2.01592 2.31548 1.89244C2.42843 1.76896 2.5659 1.6703 2.71915 1.60274C2.87239 1.53519 3.03805 1.50022 3.20558 1.50006H5.01565C5.30846 1.49718 5.59233 1.60067 5.81435 1.79122C6.03636 1.98178 6.18138 2.24641 6.22236 2.53578C6.29876 3.11389 6.44044 3.68152 6.64471 4.22785C6.72589 4.44338 6.74346 4.67761 6.69534 4.9028C6.64721 5.12799 6.53542 5.33469 6.3732 5.49841L5.60694 6.26315C6.46585 7.77069 7.71655 9.01891 9.22708 9.87612L9.99334 9.11138C10.1574 8.94948 10.3645 8.83791 10.5901 8.78988C10.8158 8.74185 11.0505 8.75939 11.2664 8.8404C11.8138 9.04427 12.3826 9.18567 12.9619 9.26192C13.2549 9.30318 13.5226 9.45052 13.714 9.6759C13.9053 9.90128 14.007 10.189 13.9996 10.4843Z" fill="#F8F8F8"/>
</svg>
