<svg width="20" height="20" viewBox="0 0 20 20" fill="none" xmlns="http://www.w3.org/2000/svg">
<path d="M19.1693 2.49959C18.3713 3.06249 17.4877 3.49302 16.5526 3.77459C16.0507 3.19752 15.3837 2.7885 14.6418 2.60286C13.8999 2.41722 13.1189 2.46392 12.4043 2.73664C11.6898 3.00935 11.0763 3.49493 10.6468 4.12769C10.2172 4.76045 9.99235 5.50987 10.0026 6.27459V7.10792C8.53813 7.1459 7.087 6.8211 5.77845 6.16246C4.46989 5.50382 3.34454 4.53179 2.5026 3.33292C2.5026 3.33292 -0.830729 10.8329 6.66927 14.1663C4.95304 15.3312 2.90857 15.9154 0.835938 15.8329C8.33594 19.9996 17.5026 15.8329 17.5026 6.24959C17.5018 6.01747 17.4795 5.78592 17.4359 5.55792C18.2864 4.71917 18.8866 3.66018 19.1693 2.49959Z" fill="#F8F8F8"/>
</svg>
