<svg width="99" height="64" viewBox="0 0 99 64" fill="none" xmlns="http://www.w3.org/2000/svg">
<path opacity="0.4" d="M18.0165 6.5128L16.3412 16.3958L15.3474 16.2273L17.0226 6.34433L18.0165 6.5128ZM15.513 16.2554L15.6674 15.3444L21.0368 16.2546L20.8824 17.1656L15.513 16.2554ZM24.8023 18.0005C24.1582 17.8913 23.6126 17.6473 23.1656 17.2686C22.7278 16.8915 22.4154 16.4173 22.2282 15.846C22.0411 15.2746 22.0068 14.6393 22.1253 13.94C22.2423 13.2498 22.4787 12.6651 22.8344 12.1858C23.201 11.6989 23.6485 11.3487 24.1769 11.1354C24.7069 10.9128 25.2893 10.8554 25.9243 10.963C26.5316 11.0659 27.0381 11.2891 27.4438 11.6324C27.8586 11.9772 28.1497 12.41 28.3171 12.9306C28.4952 13.4436 28.5304 14.0175 28.4228 14.6525L28.3432 15.1218L22.6288 14.1531L22.7734 13.4676L27.5078 14.2702C27.617 13.626 27.5111 13.0779 27.1901 12.6259C26.8799 12.1663 26.412 11.8834 25.7862 11.7774C25.3261 11.6994 24.9033 11.7366 24.5177 11.8889C24.1414 12.0429 23.8276 12.3021 23.5765 12.6666C23.327 13.0219 23.157 13.4664 23.0665 14.0001C22.9167 14.8835 23.003 15.6034 23.3252 16.1597C23.6566 16.7176 24.1996 17.0605 24.9542 17.1884C25.4971 17.2805 25.9629 17.2411 26.3516 17.0703C26.7403 16.8995 27.0318 16.6034 27.2263 16.182L28.1373 16.3364C27.844 17.0062 27.4122 17.4868 26.8422 17.7783C26.2737 18.0605 25.5937 18.1346 24.8023 18.0005ZM31.144 19.0755C30.4354 18.9553 29.9099 18.6769 29.5674 18.2402C29.2341 17.8051 29.1166 17.2976 29.2149 16.7179C29.3194 16.1013 29.6237 15.6465 30.1278 15.3533C30.6319 15.0601 31.2805 14.9475 32.0736 15.0157L34.3125 15.2106L34.3499 14.9898C34.4248 14.5481 34.4051 14.1898 34.2907 13.9148C34.178 13.6306 33.9967 13.4153 33.747 13.2688C33.4973 13.1224 33.2069 13.0211 32.8756 12.9649C32.2867 12.8651 31.8101 12.9121 31.4459 13.106C31.0817 13.2998 30.8614 13.6222 30.785 14.0731L29.9154 13.9257C29.9918 13.4748 30.1731 13.1032 30.4593 12.8109C30.7455 12.5186 31.1113 12.3156 31.5566 12.2017C32.0019 12.0879 32.496 12.077 33.0389 12.169C33.5634 12.2579 34.0079 12.4279 34.3724 12.679C34.7385 12.921 35.0045 13.2501 35.1706 13.6663C35.3475 14.075 35.386 14.5738 35.2862 15.1627L34.5538 19.4831L33.7532 19.3474L33.8279 18.153C33.5537 18.542 33.1755 18.8187 32.6932 18.9831C32.2217 19.1398 31.7053 19.1706 31.144 19.0755ZM31.4959 18.3399C32.2044 18.46 32.7902 18.3274 33.2531 17.942C33.716 17.5566 34.0083 17.005 34.13 16.2873L34.1908 15.9284L32.1912 15.7456C31.5561 15.6948 31.0787 15.7748 30.759 15.9856C30.4392 16.1965 30.2482 16.486 30.1858 16.8541C30.1171 17.259 30.2029 17.5906 30.4431 17.8491C30.6848 18.0983 31.0358 18.2619 31.4959 18.3399ZM41.1037 13.6355L40.9586 14.4913L40.4341 14.4024C39.8176 14.2978 39.2933 14.403 38.8612 14.7179C38.4384 15.0344 38.1724 15.5147 38.0632 16.1588L37.4174 19.9685L36.465 19.807L37.5975 13.1263L38.4947 13.2784L38.3552 14.6038L38.2586 14.5874C38.4239 14.1705 38.7086 13.859 39.1128 13.653C39.5184 13.4378 39.9789 13.3738 40.4943 13.4612C40.5955 13.4783 40.6959 13.5001 40.7956 13.5265C40.8952 13.5528 40.9979 13.5892 41.1037 13.6355ZM42.1757 20.7751L41.2233 20.6136L42.3558 13.9329L43.1839 14.0733L43.1254 15.2562C43.418 14.8703 43.7863 14.5967 44.2302 14.4352C44.6848 14.2662 45.156 14.223 45.6437 14.3057C46.5639 14.4617 47.1836 14.827 47.5027 15.4018C47.8218 15.9765 47.9103 16.6826 47.7684 17.52L47.0758 21.6057L46.1234 21.4442L46.7809 17.5656C46.9135 16.7834 46.8406 16.2078 46.5624 15.8388C46.2934 15.4713 45.8828 15.2408 45.3307 15.1472C44.6497 15.0318 44.0816 15.1721 43.6263 15.5683C43.1818 15.9568 42.8956 16.5283 42.7677 17.2829L42.1757 20.7751ZM53.7547 22.7378L52.8023 22.5764L53.9347 15.8957L54.7629 16.0361L54.688 17.3156L54.557 17.2507C54.7668 16.8508 55.0814 16.5586 55.5008 16.3741C55.9309 16.182 56.4037 16.1296 56.919 16.217C57.5171 16.3183 57.986 16.5682 58.3255 16.9666C58.6758 17.3573 58.8586 17.8426 58.8739 18.4227L58.6668 18.3876C58.854 17.8419 59.1773 17.4423 59.6368 17.1888C60.107 16.9278 60.6504 16.8495 61.267 16.954C61.9847 17.0757 62.527 17.3948 62.8939 17.9113C63.2607 18.4279 63.3786 19.0727 63.2476 19.8457L62.5058 24.2212L61.581 24.0645L62.29 19.8821C62.3867 19.3116 62.3151 18.8404 62.0753 18.4684C61.8354 18.0964 61.4578 17.8667 60.9425 17.7794C60.5744 17.717 60.2421 17.7506 59.9456 17.8802C59.6507 18.0006 59.4054 18.1909 59.2098 18.4512C59.0234 18.7131 58.9014 19.0143 58.8437 19.3548L58.1441 23.4819L57.2055 23.3228L57.9167 19.1266C58.0135 18.5561 57.9365 18.0887 57.6859 17.7243C57.4444 17.3615 57.0707 17.1372 56.5646 17.0515C56.1965 16.9891 55.8604 17.0173 55.5562 17.1361C55.2613 17.2565 55.016 17.4469 54.8204 17.7072C54.6356 17.9599 54.5143 18.2564 54.4566 18.5969L53.7547 22.7378ZM64.5186 21.1261C64.6356 20.4359 64.8858 19.8536 65.2691 19.379C65.6525 18.9044 66.1276 18.5589 66.6944 18.3426C67.2612 18.1263 67.8667 18.0727 68.5108 18.1819C69.1641 18.2926 69.7181 18.5428 70.1728 18.9322C70.6366 19.3232 70.9713 19.806 71.1769 20.3804C71.3824 20.9548 71.4267 21.5871 71.3097 22.2773C71.1958 22.949 70.9464 23.5268 70.5615 24.0106C70.1781 24.4852 69.703 24.8307 69.1362 25.047C68.5787 25.2649 67.9732 25.3184 67.3198 25.2077C66.6757 25.0985 66.1217 24.8484 65.6579 24.4574C65.194 24.0663 64.8593 23.5836 64.6538 23.0092C64.4498 22.4255 64.4047 21.7979 64.5186 21.1261ZM65.4871 21.2761C65.3982 21.8006 65.4207 22.2825 65.5545 22.7217C65.6991 23.1532 65.9313 23.5145 66.2512 23.8053C66.5818 24.0886 66.9864 24.2708 67.4649 24.3519C67.9434 24.433 68.3808 24.3935 68.7771 24.2335C69.1842 24.0659 69.5225 23.8014 69.792 23.44C70.0723 23.071 70.2569 22.6242 70.3458 22.0997C70.4332 21.5844 70.4046 21.1109 70.26 20.6794C70.1246 20.2494 69.8924 19.8881 69.5633 19.5957C69.2434 19.3048 68.8442 19.1188 68.3657 19.0377C67.8872 18.9566 67.4444 18.9998 67.0374 19.1675C66.6395 19.3367 66.3012 19.6012 66.0225 19.9611C65.7529 20.3224 65.5745 20.7608 65.4871 21.2761ZM76.9055 19.7043L76.7604 20.5601L76.2359 20.4712C75.6193 20.3667 75.0951 20.4718 74.663 20.7867C74.2402 21.1032 73.9742 21.5835 73.865 22.2276L73.2192 26.0373L72.2668 25.8758L73.3992 19.1951L74.2964 19.3472L74.157 20.6726L74.0604 20.6562C74.2257 20.2393 74.5104 19.9278 74.9145 19.7218C75.3202 19.5066 75.7807 19.4426 76.296 19.53C76.3972 19.5471 76.4977 19.5689 76.5973 19.5953C76.697 19.6216 76.7997 19.658 76.9055 19.7043ZM79.5429 27.2796C78.8988 27.1704 78.3532 26.9265 77.9062 26.5478C77.4684 26.1707 77.1559 25.6964 76.9688 25.1251C76.7816 24.5538 76.7473 23.9185 76.8659 23.2191C76.9829 22.529 77.2193 21.9442 77.575 21.465C77.9416 20.978 78.389 20.6279 78.9175 20.4145C79.4474 20.192 80.0299 20.1345 80.6649 20.2421C81.2722 20.3451 81.7787 20.5682 82.1844 20.9115C82.5992 21.2564 82.8903 21.6891 83.0577 22.2097C83.2358 22.7227 83.271 23.2967 83.1634 23.9316L83.0838 24.4009L77.3693 23.4322L77.5139 22.7468L82.2484 23.5493C82.3576 22.9052 82.2517 22.3571 81.9307 21.9051C81.6205 21.4455 81.1525 21.1626 80.5268 21.0565C80.0667 20.9785 79.6439 21.0157 79.2583 21.1681C78.882 21.322 78.5682 21.5812 78.3171 21.9457C78.0676 22.301 77.8975 22.7455 77.8071 23.2793C77.6573 24.1626 77.7436 24.8825 78.0658 25.4389C78.3972 25.9968 78.9402 26.3397 79.6948 26.4676C80.2377 26.5596 80.7035 26.5202 81.0922 26.3495C81.4808 26.1787 81.7724 25.8826 81.9669 25.4612L82.8779 25.6156C82.5845 26.2853 82.1528 26.7659 81.5827 27.0574C81.0142 27.3397 80.3343 27.4138 79.5429 27.2796Z" fill="#485169"/>
<path opacity="0.4" d="M42.2201 30.3168C38.717 35.3233 34.4622 38.631 28.1243 38.0413C25.9909 37.8428 23.3531 36.3512 26.2625 34.4567C28.9651 32.6969 33.5356 34.2412 35.0697 36.9798C37.3719 41.0895 34.2969 45.3023 30.9709 47.7948C25.8251 51.6511 20.3446 55.0703 14.3448 57.3781C13.1227 57.8482 17.0743 50.5963 16.0404 53.2356C15.3107 55.0984 14.23 56.4644 12.9991 58.012C12.1128 59.1265 13.0534 58.7109 14.1218 58.5051C15.858 58.1707 18.1338 58.2943 19.7602 59.0341" stroke="#485169" stroke-linecap="round"/>
</svg>
