<svg width="488" height="699" viewBox="0 0 488 699" fill="none" xmlns="http://www.w3.org/2000/svg">
<g opacity="0.5" clip-path="url(#clip0_2042_25046)">
<path d="M510.25 38.25L510.25 -2.25L469.75 -2.25L469.75 38.25L510.25 38.25Z" stroke="#F0F0F0" stroke-width="0.5"/>
<path d="M510.25 79.25L510.25 38.75L469.75 38.75L469.75 79.25L510.25 79.25Z" stroke="#F0F0F0" stroke-width="0.5"/>
<path d="M510.25 120.25L510.25 79.75L469.75 79.75L469.75 120.25L510.25 120.25Z" stroke="#F0F0F0" stroke-width="0.5"/>
<path d="M510.25 161.25L510.25 120.75L469.75 120.75L469.75 161.25L510.25 161.25Z" stroke="#F0F0F0" stroke-width="0.5"/>
<path d="M510.25 202.25L510.25 161.75L469.75 161.75L469.75 202.25L510.25 202.25Z" stroke="#F0F0F0" stroke-width="0.5"/>
<path d="M510.25 243.25L510.25 202.75L469.75 202.75L469.75 243.25L510.25 243.25Z" stroke="#F0F0F0" stroke-width="0.5"/>
<path d="M510.25 284.25L510.25 243.75L469.75 243.75L469.75 284.25L510.25 284.25Z" stroke="#F0F0F0" stroke-width="0.5"/>
<path d="M510.25 325.25L510.25 284.75L469.75 284.75L469.75 325.25L510.25 325.25Z" stroke="#F0F0F0" stroke-width="0.5"/>
<path d="M510.25 366.25L510.25 325.75L469.75 325.75L469.75 366.25L510.25 366.25Z" stroke="#F0F0F0" stroke-width="0.5"/>
<path d="M510.25 407.25L510.25 366.75L469.75 366.75L469.75 407.25L510.25 407.25Z" stroke="#F0F0F0" stroke-width="0.5"/>
<path d="M510.25 448.25L510.25 407.75L469.75 407.75L469.75 448.25L510.25 448.25Z" stroke="#F0F0F0" stroke-width="0.5"/>
<path d="M510.25 489.25L510.25 448.75L469.75 448.75L469.75 489.25L510.25 489.25Z" stroke="#F0F0F0" stroke-width="0.5"/>
<path d="M510.25 530.25L510.25 489.75L469.75 489.75L469.75 530.25L510.25 530.25Z" stroke="#F0F0F0" stroke-width="0.5"/>
<path d="M510.25 571.25L510.25 530.75L469.75 530.75L469.75 571.25L510.25 571.25Z" stroke="#F0F0F0" stroke-width="0.5"/>
<path d="M510.25 612.25L510.25 571.75L469.75 571.75L469.75 612.25L510.25 612.25Z" stroke="#F0F0F0" stroke-width="0.5"/>
<path d="M510.25 653.25L510.25 612.75L469.75 612.75L469.75 653.25L510.25 653.25Z" stroke="#F0F0F0" stroke-width="0.5"/>
<path d="M510.25 694.25L510.25 653.75L469.75 653.75L469.75 694.25L510.25 694.25Z" stroke="#F0F0F0" stroke-width="0.5"/>
<path d="M510.25 735.25L510.25 694.75L469.75 694.75L469.75 735.25L510.25 735.25Z" stroke="#F0F0F0" stroke-width="0.5"/>
<path d="M469.25 38.25L469.25 -2.25L428.75 -2.25L428.75 38.25L469.25 38.25Z" stroke="#F0F0F0" stroke-width="0.5"/>
<path d="M469.25 79.25L469.25 38.75L428.75 38.75L428.75 79.25L469.25 79.25Z" stroke="#F0F0F0" stroke-width="0.5"/>
<path d="M469.25 120.25L469.25 79.75L428.75 79.75L428.75 120.25L469.25 120.25Z" stroke="#F0F0F0" stroke-width="0.5"/>
<path d="M469.25 161.25L469.25 120.75L428.75 120.75L428.75 161.25L469.25 161.25Z" stroke="#F0F0F0" stroke-width="0.5"/>
<path d="M469.25 202.25L469.25 161.75L428.75 161.75L428.75 202.25L469.25 202.25Z" stroke="#F0F0F0" stroke-width="0.5"/>
<path d="M469.25 243.25L469.25 202.75L428.75 202.75L428.75 243.25L469.25 243.25Z" stroke="#F0F0F0" stroke-width="0.5"/>
<path d="M469.25 284.25L469.25 243.75L428.75 243.75L428.75 284.25L469.25 284.25Z" stroke="#F0F0F0" stroke-width="0.5"/>
<path d="M469.25 325.25L469.25 284.75L428.75 284.75L428.75 325.25L469.25 325.25Z" stroke="#C6C6C6" stroke-width="0.5"/>
<path d="M469.25 366.25L469.25 325.75L428.75 325.75L428.75 366.25L469.25 366.25Z" stroke="#F0F0F0" stroke-width="0.5"/>
<path d="M469.25 407.25L469.25 366.75L428.75 366.75L428.75 407.25L469.25 407.25Z" stroke="#F0F0F0" stroke-width="0.5"/>
<path d="M469.25 448.25L469.25 407.75L428.75 407.75L428.75 448.25L469.25 448.25Z" stroke="#F0F0F0" stroke-width="0.5"/>
<path d="M469.25 489.25L469.25 448.75L428.75 448.75L428.75 489.25L469.25 489.25Z" stroke="#F0F0F0" stroke-width="0.5"/>
<path d="M469.25 530.25L469.25 489.75L428.75 489.75L428.75 530.25L469.25 530.25Z" stroke="#F0F0F0" stroke-width="0.5"/>
<path d="M469.25 571.25L469.25 530.75L428.75 530.75L428.75 571.25L469.25 571.25Z" stroke="#F0F0F0" stroke-width="0.5"/>
<path d="M469.25 612.25L469.25 571.75L428.75 571.75L428.75 612.25L469.25 612.25Z" stroke="#F0F0F0" stroke-width="0.5"/>
<path d="M469.25 653.25L469.25 612.75L428.75 612.75L428.75 653.25L469.25 653.25Z" stroke="#F0F0F0" stroke-width="0.5"/>
<path d="M469.25 694.25L469.25 653.75L428.75 653.75L428.75 694.25L469.25 694.25Z" stroke="#F0F0F0" stroke-width="0.5"/>
<path d="M469.25 735.25L469.25 694.75L428.75 694.75L428.75 735.25L469.25 735.25Z" stroke="#F0F0F0" stroke-width="0.5"/>
<path d="M428.25 38.25L428.25 -2.25L387.75 -2.25L387.75 38.25L428.25 38.25Z" stroke="#F0F0F0" stroke-width="0.5"/>
<path d="M428.25 79.25L428.25 38.75L387.75 38.75L387.75 79.25L428.25 79.25Z" stroke="#F0F0F0" stroke-width="0.5"/>
<path d="M428.25 120.25L428.25 79.75L387.75 79.75L387.75 120.25L428.25 120.25Z" stroke="#F0F0F0" stroke-width="0.5"/>
<path d="M428.25 161.25L428.25 120.75L387.75 120.75L387.75 161.25L428.25 161.25Z" stroke="#F0F0F0" stroke-width="0.5"/>
<path d="M428.25 202.25L428.25 161.75L387.75 161.75L387.75 202.25L428.25 202.25Z" stroke="#F0F0F0" stroke-width="0.5"/>
<path d="M428.25 243.25L428.25 202.75L387.75 202.75L387.75 243.25L428.25 243.25Z" stroke="#C6C6C6" stroke-width="0.5"/>
<path d="M428.25 284.25L428.25 243.75L387.75 243.75L387.75 284.25L428.25 284.25Z" stroke="#C6C6C6" stroke-width="0.5"/>
<path d="M428.25 325.25L428.25 284.75L387.75 284.75L387.75 325.25L428.25 325.25Z" stroke="#F0F0F0" stroke-width="0.5"/>
<path d="M428.25 366.25L428.25 325.75L387.75 325.75L387.75 366.25L428.25 366.25Z" stroke="#F0F0F0" stroke-width="0.5"/>
<path d="M428.25 407.25L428.25 366.75L387.75 366.75L387.75 407.25L428.25 407.25Z" stroke="#F0F0F0" stroke-width="0.5"/>
<path d="M428.25 448.25L428.25 407.75L387.75 407.75L387.75 448.25L428.25 448.25Z" stroke="#F0F0F0" stroke-width="0.5"/>
<path d="M428.25 489.25L428.25 448.75L387.75 448.75L387.75 489.25L428.25 489.25Z" stroke="#F0F0F0" stroke-width="0.5"/>
<path d="M428.25 530.25L428.25 489.75L387.75 489.75L387.75 530.25L428.25 530.25Z" stroke="#F0F0F0" stroke-width="0.5"/>
<path d="M428.25 571.25L428.25 530.75L387.75 530.75L387.75 571.25L428.25 571.25Z" stroke="#F0F0F0" stroke-width="0.5"/>
<path d="M428.25 612.25L428.25 571.75L387.75 571.75L387.75 612.25L428.25 612.25Z" stroke="#F0F0F0" stroke-width="0.5"/>
<path d="M428.25 653.25L428.25 612.75L387.75 612.75L387.75 653.25L428.25 653.25Z" stroke="#F0F0F0" stroke-width="0.5"/>
<path d="M428.25 694.25L428.25 653.75L387.75 653.75L387.75 694.25L428.25 694.25Z" stroke="#F0F0F0" stroke-width="0.5"/>
<path d="M428.25 735.25L428.25 694.75L387.75 694.75L387.75 735.25L428.25 735.25Z" stroke="#F0F0F0" stroke-width="0.5"/>
<path d="M387.25 38.25L387.25 -2.25L346.75 -2.25L346.75 38.25L387.25 38.25Z" stroke="#F0F0F0" stroke-width="0.5"/>
<path d="M387.25 79.25L387.25 38.75L346.75 38.75L346.75 79.25L387.25 79.25Z" stroke="#F0F0F0" stroke-width="0.5"/>
<path d="M387.25 120.25L387.25 79.75L346.75 79.75L346.75 120.25L387.25 120.25Z" stroke="#F0F0F0" stroke-width="0.5"/>
<path d="M387.25 161.25L387.25 120.75L346.75 120.75L346.75 161.25L387.25 161.25Z" stroke="#F0F0F0" stroke-width="0.5"/>
<path d="M387.25 202.25L387.25 161.75L346.75 161.75L346.75 202.25L387.25 202.25Z" stroke="#F0F0F0" stroke-width="0.5"/>
<path d="M387.25 243.25L387.25 202.75L346.75 202.75L346.75 243.25L387.25 243.25Z" stroke="#F0F0F0" stroke-width="0.5"/>
<path d="M387.25 284.25L387.25 243.75L346.75 243.75L346.75 284.25L387.25 284.25Z" stroke="#F0F0F0" stroke-width="0.5"/>
<path d="M387.25 325.25L387.25 284.75L346.75 284.75L346.75 325.25L387.25 325.25Z" stroke="#C6C6C6" stroke-width="0.5"/>
<path d="M387.25 366.25L387.25 325.75L346.75 325.75L346.75 366.25L387.25 366.25Z" stroke="#C6C6C6" stroke-width="0.5"/>
<path d="M387.25 407.25L387.25 366.75L346.75 366.75L346.75 407.25L387.25 407.25Z" stroke="#F0F0F0" stroke-width="0.5"/>
<path d="M387.25 448.25L387.25 407.75L346.75 407.75L346.75 448.25L387.25 448.25Z" stroke="#F0F0F0" stroke-width="0.5"/>
<path d="M387.25 489.25L387.25 448.75L346.75 448.75L346.75 489.25L387.25 489.25Z" stroke="#F0F0F0" stroke-width="0.5"/>
<path d="M387.25 530.25L387.25 489.75L346.75 489.75L346.75 530.25L387.25 530.25Z" stroke="#F0F0F0" stroke-width="0.5"/>
<path d="M387.25 571.25L387.25 530.75L346.75 530.75L346.75 571.25L387.25 571.25Z" stroke="#F0F0F0" stroke-width="0.5"/>
<path d="M387.25 612.25L387.25 571.75L346.75 571.75L346.75 612.25L387.25 612.25Z" stroke="#F0F0F0" stroke-width="0.5"/>
<path d="M387.25 653.25L387.25 612.75L346.75 612.75L346.75 653.25L387.25 653.25Z" stroke="#F0F0F0" stroke-width="0.5"/>
<path d="M387.25 694.25L387.25 653.75L346.75 653.75L346.75 694.25L387.25 694.25Z" stroke="#F0F0F0" stroke-width="0.5"/>
<path d="M387.25 735.25L387.25 694.75L346.75 694.75L346.75 735.25L387.25 735.25Z" stroke="#F0F0F0" stroke-width="0.5"/>
<path d="M346.25 38.25L346.25 -2.25L305.75 -2.25L305.75 38.25L346.25 38.25Z" stroke="#F0F0F0" stroke-width="0.5"/>
<path d="M346.25 79.25L346.25 38.75L305.75 38.75L305.75 79.25L346.25 79.25Z" stroke="#F0F0F0" stroke-width="0.5"/>
<path d="M346.25 120.25L346.25 79.75L305.75 79.75L305.75 120.25L346.25 120.25Z" stroke="#F0F0F0" stroke-width="0.5"/>
<path d="M346.25 161.25L346.25 120.75L305.75 120.75L305.75 161.25L346.25 161.25Z" stroke="#F0F0F0" stroke-width="0.5"/>
<path d="M346.25 202.25L346.25 161.75L305.75 161.75L305.75 202.25L346.25 202.25Z" stroke="#F0F0F0" stroke-width="0.5"/>
<path d="M346.25 243.25L346.25 202.75L305.75 202.75L305.75 243.25L346.25 243.25Z" stroke="#F0F0F0" stroke-width="0.5"/>
<path d="M346.25 284.25L346.25 243.75L305.75 243.75L305.75 284.25L346.25 284.25Z" stroke="#F0F0F0" stroke-width="0.5"/>
<path d="M346.25 325.25L346.25 284.75L305.75 284.75L305.75 325.25L346.25 325.25Z" stroke="#F0F0F0" stroke-width="0.5"/>
<path d="M346.25 366.25L346.25 325.75L305.75 325.75L305.75 366.25L346.25 366.25Z" stroke="#F0F0F0" stroke-width="0.5"/>
<path d="M346.25 407.25L346.25 366.75L305.75 366.75L305.75 407.25L346.25 407.25Z" stroke="#F0F0F0" stroke-width="0.5"/>
<path d="M346.25 448.25L346.25 407.75L305.75 407.75L305.75 448.25L346.25 448.25Z" stroke="#F0F0F0" stroke-width="0.5"/>
<path d="M346.25 489.25L346.25 448.75L305.75 448.75L305.75 489.25L346.25 489.25Z" stroke="#F0F0F0" stroke-width="0.5"/>
<path d="M346.25 530.25L346.25 489.75L305.75 489.75L305.75 530.25L346.25 530.25Z" stroke="#F0F0F0" stroke-width="0.5"/>
<path d="M346.25 571.25L346.25 530.75L305.75 530.75L305.75 571.25L346.25 571.25Z" stroke="#F0F0F0" stroke-width="0.5"/>
<path d="M346.25 612.25L346.25 571.75L305.75 571.75L305.75 612.25L346.25 612.25Z" stroke="#F0F0F0" stroke-width="0.5"/>
<path d="M346.25 653.25L346.25 612.75L305.75 612.75L305.75 653.25L346.25 653.25Z" stroke="#F0F0F0" stroke-width="0.5"/>
<path d="M346.25 694.25L346.25 653.75L305.75 653.75L305.75 694.25L346.25 694.25Z" stroke="#F0F0F0" stroke-width="0.5"/>
<path d="M346.25 735.25L346.25 694.75L305.75 694.75L305.75 735.25L346.25 735.25Z" stroke="#F0F0F0" stroke-width="0.5"/>
<path d="M305.25 38.25L305.25 -2.25L264.75 -2.25L264.75 38.25L305.25 38.25Z" stroke="#F0F0F0" stroke-width="0.5"/>
<path d="M305.25 79.25L305.25 38.75L264.75 38.75L264.75 79.25L305.25 79.25Z" stroke="#F0F0F0" stroke-width="0.5"/>
<path d="M305.25 120.25L305.25 79.75L264.75 79.75L264.75 120.25L305.25 120.25Z" stroke="#F0F0F0" stroke-width="0.5"/>
<path d="M305.25 161.25L305.25 120.75L264.75 120.75L264.75 161.25L305.25 161.25Z" stroke="#F0F0F0" stroke-width="0.5"/>
<path d="M305.25 202.25L305.25 161.75L264.75 161.75L264.75 202.25L305.25 202.25Z" stroke="#F0F0F0" stroke-width="0.5"/>
<path d="M305.25 243.25L305.25 202.75L264.75 202.75L264.75 243.25L305.25 243.25Z" stroke="#F0F0F0" stroke-width="0.5"/>
<path d="M305.25 284.25L305.25 243.75L264.75 243.75L264.75 284.25L305.25 284.25Z" stroke="#F0F0F0" stroke-width="0.5"/>
<path d="M305.25 325.25L305.25 284.75L264.75 284.75L264.75 325.25L305.25 325.25Z" stroke="#F0F0F0" stroke-width="0.5"/>
<path d="M305.25 366.25L305.25 325.75L264.75 325.75L264.75 366.25L305.25 366.25Z" stroke="#F0F0F0" stroke-width="0.5"/>
<path d="M305.25 407.25L305.25 366.75L264.75 366.75L264.75 407.25L305.25 407.25Z" stroke="#F0F0F0" stroke-width="0.5"/>
<path d="M305.25 448.25L305.25 407.75L264.75 407.75L264.75 448.25L305.25 448.25Z" stroke="#F0F0F0" stroke-width="0.5"/>
<path d="M305.25 489.25L305.25 448.75L264.75 448.75L264.75 489.25L305.25 489.25Z" stroke="#F0F0F0" stroke-width="0.5"/>
<path d="M305.25 530.25L305.25 489.75L264.75 489.75L264.75 530.25L305.25 530.25Z" stroke="#F0F0F0" stroke-width="0.5"/>
<path d="M305.25 571.25L305.25 530.75L264.75 530.75L264.75 571.25L305.25 571.25Z" stroke="#F0F0F0" stroke-width="0.5"/>
<path d="M305.25 612.25L305.25 571.75L264.75 571.75L264.75 612.25L305.25 612.25Z" stroke="#F0F0F0" stroke-width="0.5"/>
<path d="M305.25 653.25L305.25 612.75L264.75 612.75L264.75 653.25L305.25 653.25Z" stroke="#F0F0F0" stroke-width="0.5"/>
<path d="M305.25 694.25L305.25 653.75L264.75 653.75L264.75 694.25L305.25 694.25Z" stroke="#F0F0F0" stroke-width="0.5"/>
<path d="M305.25 735.25L305.25 694.75L264.75 694.75L264.75 735.25L305.25 735.25Z" stroke="#F0F0F0" stroke-width="0.5"/>
<path d="M264.25 38.25L264.25 -2.25L223.75 -2.25L223.75 38.25L264.25 38.25Z" stroke="#F0F0F0" stroke-width="0.5"/>
<path d="M264.25 79.25L264.25 38.75L223.75 38.75L223.75 79.25L264.25 79.25Z" stroke="#F0F0F0" stroke-width="0.5"/>
<path d="M264.25 120.25L264.25 79.75L223.75 79.75L223.75 120.25L264.25 120.25Z" stroke="#F0F0F0" stroke-width="0.5"/>
<path d="M264.25 161.25L264.25 120.75L223.75 120.75L223.75 161.25L264.25 161.25Z" stroke="#F0F0F0" stroke-width="0.5"/>
<path d="M264.25 202.25L264.25 161.75L223.75 161.75L223.75 202.25L264.25 202.25Z" stroke="#F0F0F0" stroke-width="0.5"/>
<path d="M264.25 243.25L264.25 202.75L223.75 202.75L223.75 243.25L264.25 243.25Z" stroke="#F0F0F0" stroke-width="0.5"/>
<path d="M264.25 284.25L264.25 243.75L223.75 243.75L223.75 284.25L264.25 284.25Z" stroke="#F0F0F0" stroke-width="0.5"/>
<path d="M264.25 325.25L264.25 284.75L223.75 284.75L223.75 325.25L264.25 325.25Z" stroke="#F0F0F0" stroke-width="0.5"/>
<path d="M264.25 366.25L264.25 325.75L223.75 325.75L223.75 366.25L264.25 366.25Z" stroke="#F0F0F0" stroke-width="0.5"/>
<path d="M264.25 407.25L264.25 366.75L223.75 366.75L223.75 407.25L264.25 407.25Z" stroke="#F0F0F0" stroke-width="0.5"/>
<path d="M264.25 448.25L264.25 407.75L223.75 407.75L223.75 448.25L264.25 448.25Z" stroke="#F0F0F0" stroke-width="0.5"/>
<path d="M264.25 489.25L264.25 448.75L223.75 448.75L223.75 489.25L264.25 489.25Z" stroke="#F0F0F0" stroke-width="0.5"/>
<path d="M264.25 530.25L264.25 489.75L223.75 489.75L223.75 530.25L264.25 530.25Z" stroke="#F0F0F0" stroke-width="0.5"/>
<path d="M264.25 571.25L264.25 530.75L223.75 530.75L223.75 571.25L264.25 571.25Z" stroke="#F0F0F0" stroke-width="0.5"/>
<path d="M264.25 612.25L264.25 571.75L223.75 571.75L223.75 612.25L264.25 612.25Z" stroke="#F0F0F0" stroke-width="0.5"/>
<path d="M264.25 653.25L264.25 612.75L223.75 612.75L223.75 653.25L264.25 653.25Z" stroke="#F0F0F0" stroke-width="0.5"/>
<path d="M264.25 694.25L264.25 653.75L223.75 653.75L223.75 694.25L264.25 694.25Z" stroke="#F0F0F0" stroke-width="0.5"/>
<path d="M264.25 735.25L264.25 694.75L223.75 694.75L223.75 735.25L264.25 735.25Z" stroke="#F0F0F0" stroke-width="0.5"/>
<path d="M223.25 38.25L223.25 -2.25L182.75 -2.25L182.75 38.25L223.25 38.25Z" stroke="#F0F0F0" stroke-width="0.5"/>
<path d="M223.25 79.25L223.25 38.75L182.75 38.75L182.75 79.25L223.25 79.25Z" stroke="#F0F0F0" stroke-width="0.5"/>
<path d="M223.25 120.25L223.25 79.75L182.75 79.75L182.75 120.25L223.25 120.25Z" stroke="#F0F0F0" stroke-width="0.5"/>
<path d="M223.25 161.25L223.25 120.75L182.75 120.75L182.75 161.25L223.25 161.25Z" stroke="#F0F0F0" stroke-width="0.5"/>
<path d="M223.25 202.25L223.25 161.75L182.75 161.75L182.75 202.25L223.25 202.25Z" stroke="#C6C6C6" stroke-width="0.5"/>
<path d="M223.25 243.25L223.25 202.75L182.75 202.75L182.75 243.25L223.25 243.25Z" stroke="#F0F0F0" stroke-width="0.5"/>
<path d="M223.25 284.25L223.25 243.75L182.75 243.75L182.75 284.25L223.25 284.25Z" stroke="#F0F0F0" stroke-width="0.5"/>
<path d="M223.25 325.25L223.25 284.75L182.75 284.75L182.75 325.25L223.25 325.25Z" stroke="#F0F0F0" stroke-width="0.5"/>
<path d="M223.25 366.25L223.25 325.75L182.75 325.75L182.75 366.25L223.25 366.25Z" stroke="#F0F0F0" stroke-width="0.5"/>
<path d="M223.25 407.25L223.25 366.75L182.75 366.75L182.75 407.25L223.25 407.25Z" stroke="#F0F0F0" stroke-width="0.5"/>
<path d="M223.25 448.25L223.25 407.75L182.75 407.75L182.75 448.25L223.25 448.25Z" stroke="#F0F0F0" stroke-width="0.5"/>
<path d="M223.25 489.25L223.25 448.75L182.75 448.75L182.75 489.25L223.25 489.25Z" stroke="#F0F0F0" stroke-width="0.5"/>
<path d="M223.25 530.25L223.25 489.75L182.75 489.75L182.75 530.25L223.25 530.25Z" stroke="#F0F0F0" stroke-width="0.5"/>
<path d="M223.25 571.25L223.25 530.75L182.75 530.75L182.75 571.25L223.25 571.25Z" stroke="#F0F0F0" stroke-width="0.5"/>
<path d="M223.25 612.25L223.25 571.75L182.75 571.75L182.75 612.25L223.25 612.25Z" stroke="#F0F0F0" stroke-width="0.5"/>
<path d="M223.25 653.25L223.25 612.75L182.75 612.75L182.75 653.25L223.25 653.25Z" stroke="#F0F0F0" stroke-width="0.5"/>
<path d="M223.25 694.25L223.25 653.75L182.75 653.75L182.75 694.25L223.25 694.25Z" stroke="#F0F0F0" stroke-width="0.5"/>
<path d="M223.25 735.25L223.25 694.75L182.75 694.75L182.75 735.25L223.25 735.25Z" stroke="#F0F0F0" stroke-width="0.5"/>
<path d="M182.25 38.25L182.25 -2.25L141.75 -2.25L141.75 38.25L182.25 38.25Z" stroke="#F0F0F0" stroke-width="0.5"/>
<path d="M182.25 79.25L182.25 38.75L141.75 38.75L141.75 79.25L182.25 79.25Z" stroke="#F0F0F0" stroke-width="0.5"/>
<path d="M182.25 120.25L182.25 79.75L141.75 79.75L141.75 120.25L182.25 120.25Z" stroke="#F0F0F0" stroke-width="0.5"/>
<path d="M182.25 161.25L182.25 120.75L141.75 120.75L141.75 161.25L182.25 161.25Z" stroke="#C6C6C6" stroke-width="0.5"/>
<path d="M182.25 202.25L182.25 161.75L141.75 161.75L141.75 202.25L182.25 202.25Z" stroke="#F0F0F0" stroke-width="0.5"/>
<path d="M182.25 243.25L182.25 202.75L141.75 202.75L141.75 243.25L182.25 243.25Z" stroke="#C6C6C6" stroke-width="0.5"/>
<path d="M182.25 284.25L182.25 243.75L141.75 243.75L141.75 284.25L182.25 284.25Z" stroke="#F0F0F0" stroke-width="0.5"/>
<path d="M182.25 325.25L182.25 284.75L141.75 284.75L141.75 325.25L182.25 325.25Z" stroke="#C6C6C6" stroke-width="0.5"/>
<path d="M182.25 366.25L182.25 325.75L141.75 325.75L141.75 366.25L182.25 366.25Z" stroke="#F0F0F0" stroke-width="0.5"/>
<path d="M182.25 407.25L182.25 366.75L141.75 366.75L141.75 407.25L182.25 407.25Z" stroke="#F0F0F0" stroke-width="0.5"/>
<path d="M182.25 448.25L182.25 407.75L141.75 407.75L141.75 448.25L182.25 448.25Z" stroke="#F0F0F0" stroke-width="0.5"/>
<path d="M182.25 489.25L182.25 448.75L141.75 448.75L141.75 489.25L182.25 489.25Z" stroke="#F0F0F0" stroke-width="0.5"/>
<path d="M182.25 530.25L182.25 489.75L141.75 489.75L141.75 530.25L182.25 530.25Z" stroke="#F0F0F0" stroke-width="0.5"/>
<path d="M182.25 571.25L182.25 530.75L141.75 530.75L141.75 571.25L182.25 571.25Z" stroke="#F0F0F0" stroke-width="0.5"/>
<path d="M182.25 612.25L182.25 571.75L141.75 571.75L141.75 612.25L182.25 612.25Z" stroke="#F0F0F0" stroke-width="0.5"/>
<path d="M182.25 653.25L182.25 612.75L141.75 612.75L141.75 653.25L182.25 653.25Z" stroke="#F0F0F0" stroke-width="0.5"/>
<path d="M182.25 694.25L182.25 653.75L141.75 653.75L141.75 694.25L182.25 694.25Z" stroke="#F0F0F0" stroke-width="0.5"/>
<path d="M182.25 735.25L182.25 694.75L141.75 694.75L141.75 735.25L182.25 735.25Z" stroke="#F0F0F0" stroke-width="0.5"/>
<path d="M141.25 38.25L141.25 -2.25L100.75 -2.25L100.75 38.25L141.25 38.25Z" stroke="#F0F0F0" stroke-width="0.5"/>
<path d="M141.25 79.25L141.25 38.75L100.75 38.75L100.75 79.25L141.25 79.25Z" stroke="#F0F0F0" stroke-width="0.5"/>
<path d="M141.25 120.25L141.25 79.75L100.75 79.75L100.75 120.25L141.25 120.25Z" stroke="#F0F0F0" stroke-width="0.5"/>
<path d="M141.25 161.25L141.25 120.75L100.75 120.75L100.75 161.25L141.25 161.25Z" stroke="#F0F0F0" stroke-width="0.5"/>
<path d="M141.25 202.25L141.25 161.75L100.75 161.75L100.75 202.25L141.25 202.25Z" stroke="#C6C6C6" stroke-width="0.5"/>
<path d="M141.25 243.25L141.25 202.75L100.75 202.75L100.75 243.25L141.25 243.25Z" stroke="#F0F0F0" stroke-width="0.5"/>
<path d="M141.25 284.25L141.25 243.75L100.75 243.75L100.75 284.25L141.25 284.25Z" stroke="#C6C6C6" stroke-width="0.5"/>
<path d="M141.25 325.25L141.25 284.75L100.75 284.75L100.75 325.25L141.25 325.25Z" stroke="#F0F0F0" stroke-width="0.5"/>
<path d="M141.25 366.25L141.25 325.75L100.75 325.75L100.75 366.25L141.25 366.25Z" stroke="#F0F0F0" stroke-width="0.5"/>
<path d="M141.25 407.25L141.25 366.75L100.75 366.75L100.75 407.25L141.25 407.25Z" stroke="#F0F0F0" stroke-width="0.5"/>
<path d="M141.25 448.25L141.25 407.75L100.75 407.75L100.75 448.25L141.25 448.25Z" stroke="#F0F0F0" stroke-width="0.5"/>
<path d="M141.25 489.25L141.25 448.75L100.75 448.75L100.75 489.25L141.25 489.25Z" stroke="#F0F0F0" stroke-width="0.5"/>
<path d="M141.25 530.25L141.25 489.75L100.75 489.75L100.75 530.25L141.25 530.25Z" stroke="#F0F0F0" stroke-width="0.5"/>
<path d="M141.25 571.25L141.25 530.75L100.75 530.75L100.75 571.25L141.25 571.25Z" stroke="#F0F0F0" stroke-width="0.5"/>
<path d="M141.25 612.25L141.25 571.75L100.75 571.75L100.75 612.25L141.25 612.25Z" stroke="#F0F0F0" stroke-width="0.5"/>
<path d="M141.25 653.25L141.25 612.75L100.75 612.75L100.75 653.25L141.25 653.25Z" stroke="#F0F0F0" stroke-width="0.5"/>
<path d="M141.25 694.25L141.25 653.75L100.75 653.75L100.75 694.25L141.25 694.25Z" stroke="#F0F0F0" stroke-width="0.5"/>
<path d="M141.25 735.25L141.25 694.75L100.75 694.75L100.75 735.25L141.25 735.25Z" stroke="#F0F0F0" stroke-width="0.5"/>
<path d="M100.25 38.25L100.25 -2.25L59.75 -2.25L59.75 38.25L100.25 38.25Z" stroke="#F0F0F0" stroke-width="0.5"/>
<path d="M100.25 79.25L100.25 38.75L59.75 38.75L59.75 79.25L100.25 79.25Z" stroke="#F0F0F0" stroke-width="0.5"/>
<path d="M100.25 120.25L100.25 79.75L59.75 79.75L59.75 120.25L100.25 120.25Z" stroke="#F0F0F0" stroke-width="0.5"/>
<path d="M100.25 161.25L100.25 120.75L59.75 120.75L59.75 161.25L100.25 161.25Z" stroke="#F0F0F0" stroke-width="0.5"/>
<path d="M100.25 202.25L100.25 161.75L59.75 161.75L59.75 202.25L100.25 202.25Z" stroke="#F0F0F0" stroke-width="0.5"/>
<path d="M100.25 243.25L100.25 202.75L59.75 202.75L59.75 243.25L100.25 243.25Z" stroke="#F0F0F0" stroke-width="0.5"/>
<path d="M100.25 284.25L100.25 243.75L59.75 243.75L59.75 284.25L100.25 284.25Z" stroke="#F0F0F0" stroke-width="0.5"/>
<path d="M100.25 325.25L100.25 284.75L59.75 284.75L59.75 325.25L100.25 325.25Z" stroke="#F0F0F0" stroke-width="0.5"/>
<path d="M100.25 366.25L100.25 325.75L59.75 325.75L59.75 366.25L100.25 366.25Z" stroke="#F0F0F0" stroke-width="0.5"/>
<path d="M100.25 407.25L100.25 366.75L59.75 366.75L59.75 407.25L100.25 407.25Z" stroke="#F0F0F0" stroke-width="0.5"/>
<path d="M100.25 448.25L100.25 407.75L59.75 407.75L59.75 448.25L100.25 448.25Z" stroke="#F0F0F0" stroke-width="0.5"/>
<path d="M100.25 489.25L100.25 448.75L59.75 448.75L59.75 489.25L100.25 489.25Z" stroke="#F0F0F0" stroke-width="0.5"/>
<path d="M100.25 530.25L100.25 489.75L59.75 489.75L59.75 530.25L100.25 530.25Z" stroke="#F0F0F0" stroke-width="0.5"/>
<path d="M100.25 571.25L100.25 530.75L59.75 530.75L59.75 571.25L100.25 571.25Z" stroke="#F0F0F0" stroke-width="0.5"/>
<path d="M100.25 612.25L100.25 571.75L59.75 571.75L59.75 612.25L100.25 612.25Z" stroke="#F0F0F0" stroke-width="0.5"/>
<path d="M100.25 653.25L100.25 612.75L59.75 612.75L59.75 653.25L100.25 653.25Z" stroke="#F0F0F0" stroke-width="0.5"/>
<path d="M100.25 694.25L100.25 653.75L59.75 653.75L59.75 694.25L100.25 694.25Z" stroke="#F0F0F0" stroke-width="0.5"/>
<path d="M100.25 735.25L100.25 694.75L59.75 694.75L59.75 735.25L100.25 735.25Z" stroke="#F0F0F0" stroke-width="0.5"/>
<path d="M59.25 38.25L59.25 -2.25L18.75 -2.25L18.75 38.25L59.25 38.25Z" stroke="#F0F0F0" stroke-width="0.5"/>
<path d="M59.25 79.25L59.25 38.75L18.75 38.75L18.75 79.25L59.25 79.25Z" stroke="#F0F0F0" stroke-width="0.5"/>
<path d="M59.25 120.25L59.25 79.75L18.75 79.75L18.75 120.25L59.25 120.25Z" stroke="#F0F0F0" stroke-width="0.5"/>
<path d="M59.25 161.25L59.25 120.75L18.75 120.75L18.75 161.25L59.25 161.25Z" stroke="#F0F0F0" stroke-width="0.5"/>
<path d="M59.25 202.25L59.25 161.75L18.75 161.75L18.75 202.25L59.25 202.25Z" stroke="#F0F0F0" stroke-width="0.5"/>
<path d="M59.25 243.25L59.25 202.75L18.75 202.75L18.75 243.25L59.25 243.25Z" stroke="#F0F0F0" stroke-width="0.5"/>
<path d="M59.25 284.25L59.25 243.75L18.75 243.75L18.75 284.25L59.25 284.25Z" stroke="#F0F0F0" stroke-width="0.5"/>
<path d="M59.25 325.25L59.25 284.75L18.75 284.75L18.75 325.25L59.25 325.25Z" stroke="#F0F0F0" stroke-width="0.5"/>
<path d="M59.25 366.25L59.25 325.75L18.75 325.75L18.75 366.25L59.25 366.25Z" stroke="#F0F0F0" stroke-width="0.5"/>
<path d="M59.25 407.25L59.25 366.75L18.75 366.75L18.75 407.25L59.25 407.25Z" stroke="#F0F0F0" stroke-width="0.5"/>
<path d="M59.25 448.25L59.25 407.75L18.75 407.75L18.75 448.25L59.25 448.25Z" stroke="#F0F0F0" stroke-width="0.5"/>
<path d="M59.25 489.25L59.25 448.75L18.75 448.75L18.75 489.25L59.25 489.25Z" stroke="#F0F0F0" stroke-width="0.5"/>
<path d="M59.25 530.25L59.25 489.75L18.75 489.75L18.75 530.25L59.25 530.25Z" stroke="#F0F0F0" stroke-width="0.5"/>
<path d="M59.25 571.25L59.25 530.75L18.75 530.75L18.75 571.25L59.25 571.25Z" stroke="#F0F0F0" stroke-width="0.5"/>
<path d="M59.25 612.25L59.25 571.75L18.75 571.75L18.75 612.25L59.25 612.25Z" stroke="#F0F0F0" stroke-width="0.5"/>
<path d="M59.25 653.25L59.25 612.75L18.75 612.75L18.75 653.25L59.25 653.25Z" stroke="#F0F0F0" stroke-width="0.5"/>
<path d="M59.25 694.25L59.25 653.75L18.75 653.75L18.75 694.25L59.25 694.25Z" stroke="#F0F0F0" stroke-width="0.5"/>
<path d="M59.25 735.25L59.25 694.75L18.75 694.75L18.75 735.25L59.25 735.25Z" stroke="#F0F0F0" stroke-width="0.5"/>
<path d="M18.25 38.25L18.25 -2.25L-22.25 -2.25L-22.25 38.25L18.25 38.25Z" stroke="#F0F0F0" stroke-width="0.5"/>
<path d="M18.25 79.25L18.25 38.75L-22.25 38.75L-22.25 79.25L18.25 79.25Z" stroke="#F0F0F0" stroke-width="0.5"/>
<path d="M18.25 120.25L18.25 79.75L-22.25 79.75L-22.25 120.25L18.25 120.25Z" stroke="#F0F0F0" stroke-width="0.5"/>
<path d="M18.25 161.25L18.25 120.75L-22.25 120.75L-22.25 161.25L18.25 161.25Z" stroke="#F0F0F0" stroke-width="0.5"/>
<path d="M18.25 202.25L18.25 161.75L-22.25 161.75L-22.25 202.25L18.25 202.25Z" stroke="#F0F0F0" stroke-width="0.5"/>
<path d="M18.25 243.25L18.25 202.75L-22.25 202.75L-22.25 243.25L18.25 243.25Z" stroke="#F0F0F0" stroke-width="0.5"/>
<path d="M18.25 284.25L18.25 243.75L-22.25 243.75L-22.25 284.25L18.25 284.25Z" stroke="#F0F0F0" stroke-width="0.5"/>
<path d="M18.25 325.25L18.25 284.75L-22.25 284.75L-22.25 325.25L18.25 325.25Z" stroke="#F0F0F0" stroke-width="0.5"/>
<path d="M18.25 366.25L18.25 325.75L-22.25 325.75L-22.25 366.25L18.25 366.25Z" stroke="#F0F0F0" stroke-width="0.5"/>
<path d="M18.25 407.25L18.25 366.75L-22.25 366.75L-22.25 407.25L18.25 407.25Z" stroke="#F0F0F0" stroke-width="0.5"/>
<path d="M18.25 448.25L18.25 407.75L-22.25 407.75L-22.25 448.25L18.25 448.25Z" stroke="#F0F0F0" stroke-width="0.5"/>
<path d="M18.25 489.25L18.25 448.75L-22.25 448.75L-22.25 489.25L18.25 489.25Z" stroke="#F0F0F0" stroke-width="0.5"/>
<path d="M18.25 530.25L18.25 489.75L-22.25 489.75L-22.25 530.25L18.25 530.25Z" stroke="#F0F0F0" stroke-width="0.5"/>
<path d="M18.25 571.25L18.25 530.75L-22.25 530.75L-22.25 571.25L18.25 571.25Z" stroke="#F0F0F0" stroke-width="0.5"/>
<path d="M18.25 612.25L18.25 571.75L-22.25 571.75L-22.25 612.25L18.25 612.25Z" stroke="#F0F0F0" stroke-width="0.5"/>
<path d="M18.25 653.25L18.25 612.75L-22.25 612.75L-22.25 653.25L18.25 653.25Z" stroke="#F0F0F0" stroke-width="0.5"/>
<path d="M18.25 694.25L18.25 653.75L-22.25 653.75L-22.25 694.25L18.25 694.25Z" stroke="#F0F0F0" stroke-width="0.5"/>
<path d="M18.25 735.25L18.25 694.75L-22.25 694.75L-22.25 735.25L18.25 735.25Z" stroke="#F0F0F0" stroke-width="0.5"/>
</g>
<defs>
<clipPath id="clip0_2042_25046">
<rect width="1280" height="943" fill="white" transform="translate(715.5 -289.5) rotate(90)"/>
</clipPath>
</defs>
</svg>
