<svg width="121" height="95" viewBox="0 0 121 95" fill="none" xmlns="http://www.w3.org/2000/svg">
<path opacity="0.4" d="M18.3133 9.75152C18.0452 10.7329 17.6111 11.5431 17.0108 12.1822C16.4196 12.8238 15.7183 13.266 14.907 13.5088C14.0981 13.7426 13.2435 13.7365 12.3432 13.4906C11.4428 13.2447 10.6993 12.8142 10.1126 12.1993C9.53735 11.5777 9.15822 10.8404 8.97518 9.9874C8.79214 9.13437 8.83464 8.21716 9.10269 7.23577C9.37074 6.25439 9.80039 5.44292 10.3917 4.80137C10.9944 4.15328 11.7002 3.71233 12.509 3.47852C13.3203 3.23571 14.1762 3.23726 15.0765 3.48318C15.9859 3.73156 16.7237 4.16528 17.2899 4.78435C17.8676 5.39687 18.2467 6.13416 18.4273 6.9962C18.6193 7.85169 18.5813 8.77014 18.3133 9.75152ZM17.3139 9.47855C17.5352 8.66823 17.5752 7.91965 17.4339 7.2328C17.295 6.53695 17.0021 5.94418 16.5554 5.45449C16.1176 4.96727 15.5386 4.62529 14.8183 4.42855C14.107 4.23428 13.4346 4.23443 12.8009 4.42901C12.1672 4.6236 11.6137 4.9852 11.1404 5.51383C10.6785 6.03591 10.3369 6.70211 10.1156 7.51243C9.89672 8.31374 9.85223 9.0611 9.98213 9.75449C10.121 10.4503 10.4139 11.0431 10.8606 11.5328C11.3074 12.0225 11.8864 12.3645 12.5977 12.5587C13.318 12.7555 13.9904 12.7553 14.6151 12.5583C15.2487 12.3637 15.8022 12.0021 16.2756 11.4735C16.7489 10.9448 17.095 10.2799 17.3139 9.47855ZM24.9305 9.7303L25.8623 9.98482L24.077 16.5214L23.2667 16.3001L23.4476 15.1594C23.1642 15.4884 22.779 15.7121 22.2919 15.8306C21.8138 15.9516 21.3182 15.942 20.805 15.8018C20.0397 15.5928 19.5163 15.1886 19.235 14.5893C18.9626 13.9925 18.9346 13.2979 19.151 12.5056L20.2613 8.44047L21.2067 8.69869L20.1775 12.4667C19.9661 13.241 19.9748 13.8287 20.2039 14.2299C20.4419 14.6336 20.8176 14.9055 21.3308 15.0457C21.961 15.2178 22.507 15.1492 22.9688 14.84C23.4331 14.5217 23.771 13.9755 23.9825 13.2012L24.9305 9.7303ZM31.2425 11.3673L31.0138 12.2046L30.5006 12.0644C29.8973 11.8996 29.3652 11.9527 28.9043 12.2234C28.4523 12.4967 28.1403 12.9484 27.9681 13.5787L26.95 17.3061L26.0182 17.0516L27.8035 10.515L28.6814 10.7548L28.412 12.0599L28.3174 12.0341C28.523 11.6355 28.8371 11.3537 29.2595 11.1885C29.6844 11.0143 30.149 10.996 30.6532 11.1337C30.7522 11.1608 30.85 11.1923 30.9466 11.2284C31.0432 11.2644 31.1418 11.3107 31.2425 11.3673ZM35.2297 19.5676L34.4194 19.3463L37.1085 9.50091L38.0404 9.75544L36.7899 14.3337C37.1478 13.909 37.5703 13.6374 38.0574 13.5189C38.5559 13.3938 39.0843 13.4076 39.6425 13.56C40.2818 13.7346 40.7802 14.0352 41.1378 14.4619C41.5068 14.8819 41.737 15.385 41.8285 15.9712C41.9289 16.5598 41.8894 17.1827 41.7099 17.84C41.5328 18.4882 41.2514 19.0403 40.8657 19.4961C40.4824 19.9429 40.0252 20.2534 39.4938 20.4275C38.9625 20.6017 38.3772 20.6014 37.738 20.4268C37.1977 20.2793 36.7448 20.0249 36.379 19.6638C36.0157 19.2937 35.7858 18.8245 35.6894 18.2564L35.2297 19.5676ZM36.2611 16.3227C36.1234 16.8269 36.0905 17.3017 36.1624 17.747C36.2367 18.1833 36.4097 18.5595 36.6813 18.8756C36.9644 19.1852 37.3446 19.4051 37.8218 19.5354C38.299 19.6658 38.7336 19.6684 39.1258 19.5433C39.5204 19.4092 39.8561 19.1719 40.1329 18.8315C40.4212 18.4845 40.6342 18.0589 40.7719 17.5548C40.9096 17.0506 40.9413 16.5803 40.867 16.144C40.8017 15.7101 40.6332 15.3351 40.3615 15.019C40.0899 14.7029 39.7155 14.4797 39.2383 14.3494C38.7611 14.2191 38.3207 14.2197 37.9171 14.3514C37.5225 14.4854 37.1822 14.7215 36.8964 15.0595C36.6106 15.3974 36.3988 15.8185 36.2611 16.3227ZM45.0036 22.4113C44.3733 22.2392 43.8545 21.9427 43.447 21.5218C43.0485 21.1033 42.7843 20.6006 42.6543 20.0136C42.5244 19.4267 42.5529 18.791 42.7398 18.1068C42.9242 17.4315 43.2171 16.8729 43.6183 16.431C44.0311 15.9826 44.5109 15.6783 45.0578 15.518C45.6071 15.3488 46.1924 15.349 46.8136 15.5187C47.4079 15.681 47.8899 15.953 48.2598 16.3346C48.6386 16.7186 48.8857 17.178 49.0009 17.7125C49.1276 18.2406 49.1061 18.8152 48.9364 19.4365L48.811 19.8956L43.2198 18.3685L43.4312 17.7006L48.0635 18.9658C48.2357 18.3356 48.1843 17.7798 47.9095 17.2983C47.6461 16.8103 47.2082 16.4827 46.596 16.3155C46.1458 16.1926 45.7214 16.1879 45.3227 16.3015C44.933 16.4176 44.5952 16.6447 44.3094 16.9826C44.0261 17.3116 43.8131 17.7372 43.6705 18.2594C43.4344 19.1237 43.4492 19.8486 43.7151 20.434C43.9899 21.0218 44.4964 21.4166 45.2347 21.6182C45.7659 21.7633 46.2333 21.77 46.637 21.6384C47.0406 21.5068 47.3599 21.2408 47.595 20.8406L48.4864 21.0841C48.1284 21.7216 47.6514 22.1574 47.0554 22.3913C46.4618 22.6161 45.7779 22.6228 45.0036 22.4113ZM49.3893 21.4614L50.2807 21.7048C50.1774 22.083 50.2301 22.4215 50.4387 22.7203C50.6498 23.0102 50.9804 23.2166 51.4306 23.3396C51.9348 23.4773 52.3535 23.4852 52.6867 23.3634C53.0314 23.235 53.2517 22.9952 53.3476 22.6441C53.4214 22.374 53.4039 22.137 53.2951 21.9331C53.1863 21.7293 52.9518 21.5249 52.5917 21.3201L51.5482 20.7304C51.0204 20.4314 50.6574 20.0952 50.4595 19.7219C50.2615 19.3485 50.2228 18.9412 50.3433 18.5001C50.4466 18.1219 50.6354 17.8203 50.9097 17.5953C51.1865 17.3613 51.5213 17.2157 51.9143 17.1586C52.3162 17.1039 52.7513 17.1405 53.2195 17.2684C53.6786 17.3938 54.0572 17.5843 54.355 17.8398C54.6529 18.0953 54.8558 18.3974 54.9637 18.7462C55.0831 19.0884 55.092 19.4633 54.9903 19.8709L54.0855 19.6238C54.1822 19.2342 54.1328 18.9014 53.9373 18.6255C53.7417 18.3495 53.4234 18.1513 52.9822 18.0308C52.523 17.9054 52.1416 17.9028 51.8378 18.023C51.5431 18.1457 51.3478 18.3826 51.2518 18.7337C51.1141 19.2379 51.3763 19.6772 52.0384 20.0515L53.0819 20.6413C53.6098 20.9403 53.9661 21.265 54.151 21.6154C54.3449 21.9683 54.3779 22.3788 54.25 22.847C54.1443 23.2342 53.9473 23.548 53.659 23.7886C53.3708 24.0291 53.0155 24.1788 52.5931 24.2376C52.1821 24.2898 51.729 24.2483 51.2339 24.1131C50.5046 23.9139 49.973 23.5752 49.6392 23.097C49.3079 22.6098 49.2246 22.0646 49.3893 21.4614ZM56.3533 18.313L59.8917 19.2795L59.6777 20.0628L56.1393 19.0963L56.3533 18.313ZM56.7963 25.4582L55.8779 25.2074L58.2277 16.6045L59.146 16.8553L56.7963 25.4582ZM62.2871 30.0201L64.8507 20.634L65.6611 20.8553L65.3941 22.2046C65.7659 21.7644 66.2011 21.4817 66.6997 21.3567C67.2097 21.2251 67.7348 21.233 68.275 21.3806C68.9053 21.5527 69.4049 21.8488 69.7739 22.2689C70.1429 22.689 70.3789 23.1888 70.4818 23.7684C70.5848 24.348 70.5465 24.9665 70.3669 25.6237C70.1874 26.281 69.9048 26.8375 69.5191 27.2933C69.1424 27.7516 68.6871 28.0723 68.1533 28.2554C67.631 28.4321 67.0457 28.4318 66.3974 28.2548C65.8392 28.1023 65.3805 27.8512 65.0213 27.5016C64.6645 27.1429 64.4375 26.6987 64.3403 26.1691L63.2189 30.2747L62.2871 30.0201ZM64.9034 24.1605C64.7682 24.6557 64.7365 25.1259 64.8084 25.5713C64.8827 26.0076 65.0557 26.3838 65.3273 26.6999C65.608 27.0184 65.9869 27.2429 66.4641 27.3732C66.9413 27.5035 67.3772 27.5016 67.7718 27.3675C68.1664 27.2334 68.5021 26.9962 68.7789 26.6558C69.0672 26.3088 69.2789 25.8877 69.4142 25.3925C69.5519 24.8883 69.5836 24.418 69.5093 23.9817C69.4464 23.5388 69.2779 23.1639 69.0038 22.8568C68.7322 22.5407 68.3577 22.3175 67.8806 22.1872C67.4034 22.0568 66.963 22.0575 66.5594 22.1891C66.1672 22.3142 65.827 22.5502 65.5387 22.8972C65.2529 23.2352 65.0411 23.6563 64.9034 24.1605ZM76.1766 23.6404L75.9479 24.4777L75.4347 24.3375C74.8314 24.1728 74.2993 24.2258 73.8384 24.4966C73.3864 24.7698 73.0744 25.2215 72.9022 25.8518L71.8841 29.5792L70.9523 29.3247L72.7376 22.7882L73.6155 23.0279L73.3461 24.3331L73.2515 24.3072C73.4571 23.9087 73.7712 23.6268 74.1936 23.4616C74.6185 23.2874 75.0831 23.2691 75.5873 23.4069C75.6863 23.4339 75.7841 23.4655 75.8807 23.5015C75.9773 23.5376 76.0759 23.5839 76.1766 23.6404ZM77.1771 31.1991C76.4838 31.0097 75.9883 30.6809 75.6905 30.2125C75.4017 29.7467 75.3348 29.2301 75.4897 28.6629C75.6545 28.0596 76.0021 27.637 76.5327 27.3949C77.0632 27.1528 77.7197 27.1047 78.5022 27.2507L80.711 27.6654L80.7701 27.4493C80.8881 27.0171 80.9038 26.6586 80.8171 26.3737C80.7329 26.0798 80.5738 25.8476 80.3397 25.6773C80.1057 25.5069 79.8266 25.3775 79.5025 25.289C78.9262 25.1316 78.4474 25.1314 78.0659 25.2884C77.6843 25.4454 77.4333 25.7445 77.3128 26.1857L76.462 25.9533C76.5825 25.5121 76.7995 25.1602 77.1132 24.8976C77.4268 24.6349 77.8108 24.4689 78.2651 24.3995C78.7194 24.3301 79.2122 24.3679 79.7434 24.513C80.2566 24.6532 80.6822 24.8662 81.0202 25.152C81.3606 25.4288 81.593 25.7825 81.7172 26.2132C81.8529 26.6372 81.8421 27.1374 81.6847 27.7136L80.5302 31.9408L79.7468 31.7268L79.9388 30.5457C79.6276 30.9057 79.224 31.1438 78.7279 31.2598C78.2432 31.3694 77.7263 31.3491 77.1771 31.1991ZM77.5997 30.5018C78.293 30.6912 78.889 30.6169 79.3876 30.279C79.8863 29.9411 80.2315 29.4211 80.4233 28.7188L80.5192 28.3676L78.5474 27.9887C77.9204 27.8755 77.4374 27.9081 77.0985 28.0864C76.7595 28.2647 76.5408 28.5339 76.4425 28.8941C76.3343 29.2902 76.3869 29.6287 76.6005 29.9096C76.8165 30.1815 77.1496 30.3789 77.5997 30.5018ZM82.8299 29.0713C83.0168 28.3871 83.3109 27.824 83.7122 27.3821C84.1249 26.9337 84.6047 26.6293 85.1516 26.4691C85.7099 26.3023 86.3042 26.305 86.9345 26.4772C87.6908 26.6837 88.2702 27.0597 88.6727 27.605C89.0843 28.1528 89.2608 28.7816 89.2025 29.4912L88.2706 29.2367C88.2675 28.7521 88.1236 28.3403 87.8388 28.0013C87.5541 27.6623 87.1821 27.4301 86.723 27.3047C86.2908 27.1866 85.8741 27.1889 85.473 27.3116C85.0718 27.4342 84.7181 27.6665 84.4118 28.0086C84.117 28.3441 83.8971 28.7775 83.752 29.3087C83.6093 29.8309 83.5752 30.3101 83.6495 30.7465C83.7238 31.1828 83.8935 31.5533 84.1587 31.8579C84.4328 32.165 84.7904 32.3788 85.2316 32.4993C85.7268 32.6345 86.1876 32.6298 86.6142 32.4851C87.0432 32.3313 87.3785 32.0601 87.6201 31.6714L88.5655 31.9296C88.346 32.3437 88.0511 32.6792 87.681 32.9361C87.3109 33.193 86.893 33.3594 86.4272 33.4354C85.9728 33.5048 85.4981 33.4719 85.0029 33.3366C84.3816 33.1669 83.875 32.8786 83.4831 32.4716C83.1026 32.0581 82.8519 31.559 82.731 30.9745C82.61 30.39 82.643 29.7556 82.8299 29.0713ZM90.4726 27.6322L94.011 28.5987L93.797 29.382L90.2586 28.4155L90.4726 27.6322ZM90.9156 34.7774L89.9973 34.5266L92.347 25.9237L93.2653 26.1746L90.9156 34.7774ZM93.4391 35.4667L95.2244 28.9301L96.1563 29.1846L94.371 35.7212L93.4391 35.4667ZM96.1742 27.2593C95.9852 27.2077 95.8415 27.0959 95.7434 26.924C95.6452 26.752 95.6219 26.5715 95.6736 26.3824C95.7252 26.1934 95.837 26.0497 96.009 25.9516C96.1834 25.8444 96.3651 25.8166 96.5542 25.8683C96.7432 25.9199 96.8856 26.0362 96.9813 26.2172C97.0885 26.3916 97.1163 26.5733 97.0646 26.7624C97.013 26.9515 96.8967 27.0938 96.7158 27.1896C96.5438 27.2877 96.3633 27.311 96.1742 27.2593ZM96.7441 32.8718C96.931 32.1875 97.225 31.6244 97.6263 31.1826C98.039 30.7341 98.5189 30.4298 99.0657 30.2696C99.6241 30.1028 100.218 30.1055 100.849 30.2776C101.605 30.4842 102.184 30.8601 102.587 31.4055C102.998 31.9533 103.175 32.582 103.117 33.2917L102.185 33.0372C102.182 32.5526 102.038 32.1408 101.753 31.8018C101.468 31.4628 101.096 31.2305 100.637 31.1051C100.205 30.9871 99.7883 30.9894 99.3871 31.112C98.986 31.2347 98.6322 31.467 98.326 31.8091C98.0311 32.1446 97.8112 32.5779 97.6661 33.1091C97.5235 33.6313 97.4893 34.1106 97.5636 34.5469C97.638 34.9833 97.8077 35.3537 98.0728 35.6584C98.3469 35.9654 98.7045 36.1792 99.1457 36.2997C99.6409 36.435 100.102 36.4302 100.528 36.2855C100.957 36.1318 101.293 35.8606 101.534 35.4718L102.48 35.73C102.26 36.1441 101.965 36.4797 101.595 36.7366C101.225 36.9935 100.807 37.1599 100.341 37.2358C99.887 37.3052 99.4122 37.2723 98.917 37.1371C98.2958 36.9674 97.7892 36.679 97.3972 36.272C97.0167 35.8585 96.766 35.3595 96.6451 34.775C96.5242 34.1905 96.5572 33.5561 96.7441 32.8718ZM106.028 39.0793C105.398 38.9072 104.879 38.6106 104.471 38.1897C104.073 37.7713 103.809 37.2686 103.679 36.6816C103.549 36.0946 103.577 35.459 103.764 34.7747C103.949 34.0995 104.241 33.5409 104.643 33.099C105.055 32.6506 105.535 32.3462 106.082 32.186C106.631 32.0168 107.217 32.017 107.838 32.1867C108.432 32.349 108.914 32.6209 109.284 33.0025C109.663 33.3866 109.91 33.8459 110.025 34.3805C110.152 34.9085 110.13 35.4832 109.961 36.1044L109.835 36.5636L104.244 35.0364L104.456 34.3686L109.088 35.6338C109.26 35.0036 109.209 34.4477 108.934 33.9663C108.67 33.4783 108.233 33.1507 107.62 32.9835C107.17 32.8605 106.746 32.8559 106.347 32.9695C105.957 33.0856 105.62 33.3126 105.334 33.6506C105.05 33.9795 104.837 34.4051 104.695 34.9273C104.459 35.7917 104.474 36.5165 104.739 37.1019C105.014 37.6898 105.521 38.0845 106.259 38.2862C106.79 38.4313 107.258 38.438 107.661 38.3064C108.065 38.1747 108.384 37.9088 108.619 37.5086L109.511 37.7521C109.153 38.3896 108.676 38.8253 108.08 39.0592C107.486 39.2841 106.802 39.2908 106.028 39.0793ZM110.414 38.1293L111.305 38.3728C111.202 38.7509 111.254 39.0894 111.463 39.3883C111.674 39.6782 112.005 39.8846 112.455 40.0075C112.959 40.1452 113.378 40.1532 113.711 40.0313C114.056 39.903 114.276 39.6632 114.372 39.3121C114.446 39.0419 114.428 38.805 114.319 38.6011C114.211 38.3972 113.976 38.1929 113.616 37.9881L112.573 37.3983C112.045 37.0993 111.682 36.7632 111.484 36.3898C111.286 36.0165 111.247 35.6092 111.368 35.168C111.471 34.7899 111.66 34.4883 111.934 34.2633C112.211 34.0293 112.546 33.8837 112.939 33.8266C113.341 33.7719 113.776 33.8085 114.244 33.9363C114.703 34.0618 115.082 34.2522 115.379 34.5077C115.677 34.7632 115.88 35.0654 115.988 35.4141C116.107 35.7564 116.116 36.1313 116.015 36.5389L115.11 36.2917C115.207 35.9021 115.157 35.5694 114.962 35.2934C114.766 35.0175 114.448 34.8193 114.007 34.6988C113.547 34.5733 113.166 34.5707 112.862 34.691C112.567 34.8136 112.372 35.0505 112.276 35.4017C112.139 35.9059 112.401 36.3451 113.063 36.7195L114.106 37.3093C114.634 37.6083 114.991 37.933 115.175 38.2834C115.369 38.6363 115.402 39.0468 115.274 39.515C115.169 39.9021 114.972 40.216 114.683 40.4566C114.395 40.6971 114.04 40.8468 113.617 40.9056C113.207 40.9578 112.753 40.9163 112.258 40.781C111.529 40.5818 110.997 40.2431 110.664 39.765C110.332 39.2778 110.249 38.7326 110.414 38.1293Z" fill="#485169"/>
<path opacity="0.4" d="M56.102 38.8774C49.9982 45.9894 43.004 50.3948 33.4195 48.5366C30.1932 47.9111 26.3925 45.2357 31.1196 42.7839C35.5107 40.5064 42.2533 43.5545 44.1809 47.9664C47.0736 54.5871 41.7433 60.5523 36.2899 63.854C27.8528 68.9621 18.971 73.3523 9.46446 75.9679C7.52804 76.5007 14.6558 66.0293 12.6787 69.9013C11.2833 72.6343 9.42725 74.5559 7.31467 76.732C5.79344 78.299 7.29188 77.807 8.95363 77.6544C11.6543 77.4063 15.1092 77.9391 17.4798 79.3141" stroke="#485169" stroke-linecap="round"/>
</svg>
