<svg width="135" height="90" viewBox="0 0 135 90" fill="none" xmlns="http://www.w3.org/2000/svg">
<path opacity="0.4" d="M8.31882 6.05263C7.56425 5.92472 6.87667 5.98803 6.25607 6.24256C5.63547 6.49708 5.11952 6.91608 4.70822 7.49955C4.30769 8.07537 4.03566 8.78658 3.89216 9.63317C3.74709 10.489 3.77874 11.2516 3.9871 11.9212C4.19546 12.5908 4.55222 13.1388 5.05739 13.5652C5.57177 13.9932 6.19704 14.2696 6.9332 14.3944C7.3565 14.4661 7.77075 14.4795 8.17595 14.4346C8.58116 14.3897 8.95587 14.2734 9.30009 14.0856C9.65508 13.8902 9.95891 13.6056 10.2116 13.2319C10.4658 12.849 10.6429 12.3631 10.7427 11.7742L10.9088 10.7942L11.31 11.3592L7.25191 10.6713L7.404 9.77408L11.9176 10.5392L11.0098 15.8948L10.223 15.7614L10.4451 13.6975L10.5433 13.9556C10.3352 14.2895 10.0398 14.5802 9.65709 14.8277C9.2851 15.0676 8.84964 15.2352 8.35069 15.3304C7.85175 15.4257 7.31242 15.4242 6.73269 15.326C5.80328 15.1684 5.01479 14.8218 4.36722 14.286C3.73042 13.7426 3.2743 13.0547 2.99888 12.2223C2.73266 11.3914 2.68534 10.4699 2.85693 9.45768C3.02851 8.44546 3.37766 7.58639 3.90438 6.8805C4.4403 6.17616 5.10379 5.66857 5.89487 5.35774C6.6875 5.03771 7.55312 4.95725 8.49173 5.11636C9.19109 5.23491 9.80497 5.46676 10.3334 5.81193C10.8618 6.1571 11.2764 6.58711 11.5773 7.10196C11.8797 7.60762 12.0446 8.17043 12.0721 8.7904L10.9954 8.6079C10.9084 7.89263 10.6223 7.31874 10.1371 6.88623C9.65187 6.45372 9.04579 6.17586 8.31882 6.05263ZM15.5529 16.8211C14.9087 16.7119 14.3631 16.468 13.9162 16.0893C13.4784 15.7121 13.1659 15.2379 12.9787 14.6666C12.7916 14.0953 12.7573 13.4599 12.8758 12.7606C12.9928 12.0704 13.2292 11.4857 13.585 11.0064C13.9515 10.5195 14.399 10.1694 14.9274 9.956C15.4574 9.73345 16.0399 9.67598 16.6748 9.78361C17.2821 9.88656 17.7886 10.1097 18.1943 10.453C18.6092 10.7978 18.9003 11.2306 19.0676 11.7512C19.2457 12.2642 19.281 12.8381 19.1733 13.4731L19.0938 13.9424L13.3793 12.9737L13.5239 12.2882L18.2583 13.0908C18.3675 12.4466 18.2616 11.8986 17.9407 11.4466C17.6305 10.9869 17.1625 10.7041 16.5367 10.598C16.0766 10.52 15.6538 10.5572 15.2683 10.7096C14.8919 10.8635 14.5782 11.1227 14.3271 11.4872C14.0775 11.8425 13.9075 12.287 13.817 12.8207C13.6673 13.7041 13.7535 14.424 14.0757 14.9803C14.4071 15.5382 14.9501 15.8811 15.7047 16.009C16.2476 16.1011 16.7134 16.0617 17.1021 15.8909C17.4908 15.7201 17.7824 15.424 17.9769 15.0026L18.8879 15.1571C18.5945 15.8268 18.1628 16.3074 17.5927 16.5989C17.0242 16.8812 16.3442 16.9552 15.5529 16.8211ZM20.3911 10.5982L24.0075 11.2112L23.8718 12.0118L20.2553 11.3987L20.3911 10.5982ZM21.5361 17.6649L20.5975 17.5058L22.0879 8.71324L23.0266 8.87235L21.5361 17.6649ZM28.3305 11.944L31.9469 12.557L31.8112 13.3576L28.1948 12.7446L28.3305 11.944ZM29.4756 19.0108L28.537 18.8516L30.0274 10.0591L30.966 10.2182L29.4756 19.0108ZM32.0842 16.0166C32.2012 15.3265 32.4514 14.7441 32.8348 14.2695C33.2182 13.7949 33.6933 13.4494 34.26 13.2331C34.8268 13.0168 35.4323 12.9632 36.0764 13.0724C36.7298 13.1832 37.2838 13.4333 37.7384 13.8227C38.2023 14.2138 38.537 14.6965 38.7425 15.2709C38.9481 15.8453 38.9923 16.4776 38.8754 17.1678C38.7615 17.8395 38.5121 18.4173 38.1271 18.9011C37.7438 19.3757 37.2687 19.7212 36.7019 19.9375C36.1443 20.1554 35.5388 20.2089 34.8855 20.0982C34.2413 19.989 33.6874 19.7389 33.2235 19.3479C32.7597 18.9569 32.425 18.4741 32.2194 17.8997C32.0154 17.3161 31.9704 16.6884 32.0842 16.0166ZM33.0528 16.1666C32.9639 16.6911 32.9863 17.173 33.1201 17.6122C33.2647 18.0438 33.4969 18.405 33.8168 18.6959C34.1475 18.9791 34.5521 19.1613 35.0306 19.2424C35.5091 19.3235 35.9465 19.2841 36.3428 19.124C36.7499 18.9564 37.0882 18.6919 37.3577 18.3305C37.638 17.9615 37.8226 17.5147 37.9115 16.9902C37.9988 16.4749 37.9702 16.0014 37.8257 15.5699C37.6903 15.1399 37.4581 14.7787 37.129 14.4862C36.8091 14.1953 36.4099 14.0093 35.9314 13.9282C35.4529 13.8471 35.0101 13.8904 34.603 14.058C34.2051 14.2272 33.8668 14.4918 33.5881 14.8516C33.3186 15.2129 33.1401 15.6513 33.0528 16.1666ZM44.6545 21.5837L43.702 21.4223L45.4077 11.3598L46.3602 11.5213L45.202 18.3538L49.0997 15.4646L50.3005 15.6682L47.2816 17.897L49.1819 22.3512L48.0776 22.164L46.5182 18.4633L44.9937 19.5823L44.6545 21.5837ZM51.272 22.7055L50.3195 22.544L51.452 15.8633L52.2802 16.0037L52.2217 17.1866C52.5143 16.8007 52.8825 16.5271 53.3264 16.3657C53.7811 16.1966 54.2522 16.1534 54.7399 16.2361C55.6602 16.3921 56.2798 16.7574 56.5989 17.3322C56.918 17.9069 57.0066 18.613 56.8646 19.4504L56.1721 23.5361L55.2196 23.3747L55.8771 19.496C56.0097 18.7138 55.9369 18.1382 55.6586 17.7692C55.3896 17.4017 54.979 17.1712 54.4269 17.0776C53.746 16.9622 53.1778 17.1025 52.7226 17.4987C52.278 17.8872 51.9918 18.4587 51.8639 19.2133L51.272 22.7055ZM58.1672 20.438C58.2842 19.7478 58.5344 19.1655 58.9178 18.6909C59.3012 18.2162 59.7762 17.8708 60.343 17.6545C60.9098 17.4382 61.5153 17.3846 62.1594 17.4938C62.8128 17.6045 63.3668 17.8546 63.8214 18.2441C64.2853 18.6351 64.6199 19.1178 64.8255 19.6923C65.0311 20.2667 65.0753 20.899 64.9584 21.5892C64.8445 22.2609 64.5951 22.8387 64.2101 23.3225C63.8268 23.7971 63.3517 24.1426 62.7849 24.3589C62.2273 24.5767 61.6218 24.6303 60.9685 24.5196C60.3243 24.4104 59.7703 24.1603 59.3065 23.7692C58.8427 23.3782 58.508 22.8955 58.3024 22.3211C58.0984 21.7374 58.0534 21.1097 58.1672 20.438ZM59.1358 20.588C59.0469 21.1125 59.0693 21.5943 59.2031 22.0336C59.3477 22.4651 59.5799 22.8263 59.8998 23.1172C60.2305 23.4005 60.635 23.5827 61.1136 23.6638C61.5921 23.7449 62.0295 23.7054 62.4258 23.5454C62.8329 23.3778 63.1712 23.1132 63.4407 22.7519C63.721 22.3829 63.9056 21.9361 63.9945 21.4116C64.0818 20.8963 64.0532 20.4228 63.9086 19.9913C63.7733 19.5612 63.541 19.2 63.212 18.9076C62.8921 18.6167 62.4929 18.4307 62.0144 18.3496C61.5359 18.2685 61.0931 18.3117 60.686 18.4794C60.2881 18.6486 59.9498 18.9131 59.6711 19.2729C59.4016 19.6343 59.2231 20.0727 59.1358 20.588ZM67.0268 25.3761L65.9507 18.3211L66.9308 18.4872L67.5588 22.74C67.595 22.9733 67.6258 23.2104 67.6512 23.4514C67.6859 23.6939 67.712 23.9587 67.7296 24.2457C67.796 24.0771 67.8733 23.9008 67.9612 23.7169C68.0508 23.5239 68.1318 23.353 68.2043 23.2044C68.286 23.0573 68.3423 22.9485 68.3732 22.878L70.3815 19.0721L71.3616 19.2382L71.9896 23.491C72.0016 23.5877 72.0159 23.699 72.0324 23.8249C72.0505 23.9415 72.0678 24.0628 72.0844 24.1887C72.1009 24.3145 72.1113 24.4488 72.1155 24.5915C72.1305 24.7266 72.1454 24.8617 72.1604 24.9967C72.2392 24.8113 72.3025 24.6611 72.3504 24.5462C72.3998 24.422 72.4592 24.2948 72.5286 24.1646C72.5981 24.0344 72.6898 23.8559 72.804 23.6291L74.8123 19.8232L75.8062 19.9917L72.41 26.2886L71.4852 26.1319L70.8162 21.7017C70.7755 21.4393 70.7408 21.1967 70.7123 20.9742C70.693 20.7531 70.6821 20.5383 70.6796 20.3296C70.6024 20.5059 70.5136 20.6943 70.4133 20.8951C70.3238 21.0882 70.2096 21.3149 70.0708 21.5754L67.9792 25.5376L67.0268 25.3761ZM85.5171 21.6378L86.4695 21.7992L85.337 28.4799L84.5088 28.3395L84.5765 27.1866C84.3269 27.5419 83.9656 27.8025 83.4926 27.9685C83.0287 28.136 82.5345 28.1753 82.01 28.0863C81.2278 27.9538 80.6672 27.6031 80.3281 27.0345C79.9983 26.4674 79.902 25.7789 80.0393 24.9691L80.7435 20.8144L81.7097 20.9782L81.057 24.8292C80.9228 25.6206 80.9895 26.2046 81.2569 26.5813C81.5336 26.9595 81.9342 27.1931 82.4587 27.282C83.1029 27.3912 83.6395 27.2692 84.0686 26.9159C84.4992 26.5535 84.7816 25.9765 84.9157 25.1852L85.5171 21.6378ZM86.9385 26.8202L87.8495 26.9746C87.784 27.3611 87.8698 27.6928 88.1068 27.9696C88.3454 28.2373 88.6948 28.4101 89.1549 28.4881C89.6702 28.5755 90.0877 28.5421 90.4073 28.388C90.7376 28.2263 90.9332 27.966 90.994 27.6071C91.0408 27.331 91 27.0969 90.8717 26.9047C90.7433 26.7126 90.4899 26.5324 90.1113 26.3641L89.0148 25.88C88.4601 25.6345 88.0658 25.3357 87.832 24.9837C87.5982 24.6317 87.5195 24.2302 87.596 23.7793C87.6615 23.3928 87.8196 23.0741 88.0704 22.8232C88.3228 22.563 88.6417 22.3852 89.0271 22.2896C89.4217 22.1955 89.8582 22.189 90.3367 22.2702C90.806 22.3497 91.2015 22.5019 91.5231 22.7269C91.8447 22.9518 92.0764 23.2324 92.2181 23.5689C92.3707 23.8976 92.4164 24.2699 92.3554 24.6855L91.4306 24.5287C91.4885 24.1315 91.4066 23.8052 91.1848 23.5499C90.963 23.2946 90.6266 23.1287 90.1757 23.0523C89.7064 22.9727 89.3266 23.0077 89.0362 23.1573C88.755 23.3084 88.5839 23.5634 88.5231 23.9223C88.4357 24.4376 88.74 24.8489 89.4357 25.1562L90.5322 25.6402C91.087 25.8857 91.4737 26.1737 91.6922 26.5042C91.9199 26.8363 91.9932 27.2416 91.912 27.7201C91.845 28.1158 91.6799 28.4475 91.4168 28.7153C91.1536 28.9831 90.8148 29.1671 90.4002 29.2672C89.9964 29.3597 89.5415 29.363 89.0353 29.2772C88.29 29.1509 87.7276 28.8662 87.3483 28.4233C86.9706 27.9711 86.834 27.4368 86.9385 26.8202ZM97.8275 30.5972L96.9993 30.4568L98.705 20.3944L99.6575 20.5558L98.8643 25.235C99.1786 24.7771 99.5722 24.4652 100.045 24.2993C100.529 24.1257 101.056 24.0872 101.627 24.184C102.28 24.2947 102.806 24.5447 103.204 24.934C103.612 25.3157 103.891 25.7937 104.04 26.3679C104.198 26.9438 104.22 27.5676 104.106 28.2393C103.994 28.9019 103.768 29.4789 103.429 29.9705C103.092 30.4529 102.667 30.807 102.156 31.0327C101.644 31.2583 101.062 31.3158 100.408 31.2051C99.8561 31.1115 99.3803 30.903 98.9807 30.5797C98.5827 30.2471 98.3077 29.8029 98.1558 29.2471L97.8275 30.5972ZM98.5341 27.2664C98.4468 27.7818 98.4608 28.2575 98.5762 28.6935C98.6932 29.1204 98.9024 29.4778 99.2039 29.7655C99.5161 30.0456 99.9161 30.227 100.404 30.3097C100.892 30.3924 101.324 30.3522 101.702 30.189C102.082 30.0167 102.392 29.7475 102.634 29.3814C102.887 29.0077 103.057 28.5632 103.144 28.0479C103.232 27.5326 103.217 27.0615 103.1 26.6346C102.992 26.2093 102.788 25.8528 102.486 25.565C102.185 25.2772 101.79 25.092 101.302 25.0093C100.815 24.9267 100.376 24.9707 99.9877 25.1415C99.6082 25.3138 99.2929 25.5822 99.0418 25.9467C98.7907 26.3112 98.6215 26.7511 98.5341 27.2664ZM107.834 32.4638C107.19 32.3546 106.644 32.1107 106.197 31.732C105.76 31.3548 105.447 30.8806 105.26 30.3093C105.073 29.738 105.039 29.1027 105.157 28.4033C105.274 27.7131 105.51 27.1284 105.866 26.6491C106.233 26.1622 106.68 25.8121 107.209 25.5987C107.739 25.3762 108.321 25.3187 108.956 25.4263C109.563 25.5293 110.07 25.7524 110.476 26.0957C110.89 26.4406 111.181 26.8733 111.349 27.3939C111.527 27.9069 111.562 28.4809 111.455 29.1158L111.375 29.5851L105.661 28.6164L105.805 27.931L110.54 28.7335C110.649 28.0894 110.543 27.5413 110.222 27.0893C109.912 26.6297 109.444 26.3468 108.818 26.2407C108.358 26.1627 107.935 26.1999 107.549 26.3523C107.173 26.5062 106.859 26.7654 106.608 27.1299C106.359 27.4852 106.189 27.9297 106.098 28.4634C105.948 29.3468 106.035 30.0667 106.357 30.6231C106.688 31.181 107.231 31.5239 107.986 31.6518C108.529 31.7438 108.995 31.7044 109.383 31.5337C109.772 31.3629 110.064 31.0668 110.258 30.6454L111.169 30.7998C110.876 31.4695 110.444 31.9501 109.874 32.2416C109.305 32.5239 108.625 32.598 107.834 32.4638ZM112.672 26.2409L116.289 26.8539L116.153 27.6545L112.537 27.0415L112.672 26.2409ZM113.817 33.3077L112.879 33.1485L114.369 24.356L115.308 24.5151L113.817 33.3077ZM116.837 26.9469L120.454 27.56L120.318 28.3605L116.702 27.7475L116.837 26.9469ZM117.983 34.0137L117.044 33.8546L118.534 25.062L119.473 25.2211L117.983 34.0137ZM123.268 35.0801C122.624 34.9709 122.078 34.7269 121.631 34.3482C121.194 33.9711 120.881 33.4969 120.694 32.9256C120.507 32.3543 120.473 31.7189 120.591 31.0196C120.708 30.3294 120.945 29.7447 121.3 29.2654C121.667 28.7785 122.114 28.4283 122.643 28.215C123.173 27.9924 123.755 27.935 124.39 28.0426C124.997 28.1456 125.504 28.3687 125.91 28.712C126.325 29.0568 126.616 29.4896 126.783 30.0102C126.961 30.5232 126.996 31.0971 126.889 31.7321L126.809 32.2014L121.095 31.2327L121.239 30.5472L125.974 31.3498C126.083 30.7056 125.977 30.1576 125.656 29.7056C125.346 29.2459 124.878 28.9631 124.252 28.857C123.792 28.779 123.369 28.8162 122.984 28.9686C122.607 29.1225 122.294 29.3817 122.042 29.7462C121.793 30.1015 121.623 30.546 121.532 31.0797C121.383 31.9631 121.469 32.683 121.791 33.2393C122.122 33.7972 122.665 34.1401 123.42 34.268C123.963 34.3601 124.429 34.3207 124.817 34.1499C125.206 33.9791 125.498 33.683 125.692 33.2616L126.603 33.416C126.31 34.0858 125.878 34.5664 125.308 34.8579C124.74 35.1402 124.06 35.2142 123.268 35.0801ZM132.425 29.5041L132.28 30.3599L131.756 30.271C131.139 30.1664 130.615 30.2716 130.183 30.5865C129.76 30.903 129.494 31.3833 129.385 32.0274L128.739 35.8371L127.787 35.6756L128.919 28.9949L129.816 29.147L129.677 30.4723L129.58 30.456C129.746 30.0391 130.03 29.7276 130.434 29.5216C130.84 29.3064 131.301 29.2424 131.816 29.3298C131.917 29.3469 132.018 29.3687 132.117 29.395C132.217 29.4214 132.32 29.4577 132.425 29.5041Z" fill="#485169"/>
<path opacity="0.4" d="M63.0381 38.0208C57.665 45.6997 51.1389 50.773 41.418 49.8684C38.1457 49.564 34.0999 47.2762 38.5623 44.3705C42.7076 41.6713 49.7178 44.04 52.0708 48.2404C55.6019 54.5438 50.8855 61.0053 45.784 64.8284C37.8915 70.7431 29.4856 75.9874 20.2831 79.5271C18.4086 80.2482 24.4696 69.1253 22.8838 73.1733C21.7646 76.0305 20.1069 78.1257 18.2191 80.4994C16.8597 82.2087 18.3024 81.5714 19.941 81.2557C22.6041 80.7427 26.0946 80.9324 28.5892 82.067" stroke="#485169" stroke-linecap="round"/>
</svg>
