<svg width="143" height="143" viewBox="0 0 143 143" fill="none" xmlns="http://www.w3.org/2000/svg">
<rect width="143" height="143" rx="12" fill="#D9D9D9"/>
<rect width="143" height="143" rx="12" fill="#F6B0B0"/>
<g clip-path="url(#clip0_2066_20157)">
<path d="M73.1172 74.625C73.0234 74.9219 72.9727 75.3828 72.9648 76.0078H69.8008C69.8477 74.6875 69.9727 73.7773 70.1758 73.2773C70.3789 72.7695 70.9023 72.1875 71.7461 71.5312L72.6016 70.8633C72.8828 70.6523 73.1094 70.4219 73.2812 70.1719C73.5938 69.7422 73.75 69.2695 73.75 68.7539C73.75 68.1602 73.5742 67.6211 73.2227 67.1367C72.8789 66.6445 72.2461 66.3984 71.3242 66.3984C70.418 66.3984 69.7734 66.6992 69.3906 67.3008C69.0156 67.9023 68.8281 68.5273 68.8281 69.1758H65.4414C65.5352 66.9492 66.3125 65.3711 67.7734 64.4414C68.6953 63.8477 69.8281 63.5508 71.1719 63.5508C72.9375 63.5508 74.4023 63.9727 75.5664 64.8164C76.7383 65.6602 77.3242 66.9102 77.3242 68.5664C77.3242 69.582 77.0703 70.4375 76.5625 71.1328C76.2656 71.5547 75.6953 72.0938 74.8516 72.75L74.0195 73.3945C73.5664 73.7461 73.2656 74.1562 73.1172 74.625ZM73.2109 81H69.7188V77.6133H73.2109V81Z" fill="white"/>
</g>
<defs>
<clipPath id="clip0_2066_20157">
<rect width="13" height="18" fill="white" transform="translate(65 63)"/>
</clipPath>
</defs>
</svg>
