<svg width="163" height="163" viewBox="0 0 163 163" fill="none" xmlns="http://www.w3.org/2000/svg">
<rect width="163" height="163" rx="12" fill="#D9D9D9"/>
<rect width="163" height="163" rx="12" fill="#8B94B7"/>
<g clip-path="url(#clip0_2066_20187)">
<path d="M83.1172 84.625C83.0234 84.9219 82.9727 85.3828 82.9648 86.0078H79.8008C79.8477 84.6875 79.9727 83.7773 80.1758 83.2773C80.3789 82.7695 80.9023 82.1875 81.7461 81.5312L82.6016 80.8633C82.8828 80.6523 83.1094 80.4219 83.2812 80.1719C83.5938 79.7422 83.75 79.2695 83.75 78.7539C83.75 78.1602 83.5742 77.6211 83.2227 77.1367C82.8789 76.6445 82.2461 76.3984 81.3242 76.3984C80.418 76.3984 79.7734 76.6992 79.3906 77.3008C79.0156 77.9023 78.8281 78.5273 78.8281 79.1758H75.4414C75.5352 76.9492 76.3125 75.3711 77.7734 74.4414C78.6953 73.8477 79.8281 73.5508 81.1719 73.5508C82.9375 73.5508 84.4023 73.9727 85.5664 74.8164C86.7383 75.6602 87.3242 76.9102 87.3242 78.5664C87.3242 79.582 87.0703 80.4375 86.5625 81.1328C86.2656 81.5547 85.6953 82.0938 84.8516 82.75L84.0195 83.3945C83.5664 83.7461 83.2656 84.1562 83.1172 84.625ZM83.2109 91H79.7188V87.6133H83.2109V91Z" fill="white"/>
</g>
<defs>
<clipPath id="clip0_2066_20187">
<rect width="13" height="18" fill="white" transform="translate(75 73)"/>
</clipPath>
</defs>
</svg>
