<svg width="131" height="132" viewBox="0 0 131 132" fill="none" xmlns="http://www.w3.org/2000/svg">
<path d="M78.2181 3.96204L77.4506 13.9566L76.4456 13.8794L77.213 3.88487L78.2181 3.96204ZM83.0329 5.25849L77.1842 4.80937L77.2549 3.88808L83.1037 4.3372L83.0329 5.25849ZM81.8782 9.87362L76.8251 9.48561L76.8948 8.57828L81.9479 8.96629L81.8782 9.87362ZM87.4497 7.84423L87.3832 8.70968L86.8528 8.66895C86.2293 8.62107 85.7168 8.77361 85.3152 9.12658C84.923 9.48025 84.7019 9.9828 84.6519 10.6342L84.356 14.4869L83.3929 14.4129L83.9116 7.6568L84.819 7.72647L84.8009 9.059L84.7032 9.05149C84.8298 8.62126 85.085 8.28514 85.4686 8.04314C85.853 7.79183 86.3058 7.68618 86.8269 7.7262C86.9293 7.73406 87.0313 7.74657 87.1329 7.76374C87.2346 7.78091 87.3401 7.80774 87.4497 7.84423ZM90.7667 15.1476C90.1152 15.0976 89.5497 14.9044 89.0701 14.568C88.5997 14.2324 88.2453 13.7886 88.0069 13.2367C87.7684 12.6848 87.6763 12.0553 87.7306 11.348C87.7842 10.6501 87.9663 10.0462 88.2769 9.53653C88.5976 9.01823 89.0113 8.62876 89.518 8.36813C90.0255 8.09819 90.6003 7.98787 91.2424 8.03718C91.8566 8.08434 92.3814 8.26036 92.8166 8.56525C93.2612 8.87085 93.5905 9.27525 93.8046 9.77846C94.0288 10.2731 94.1162 10.8414 94.0669 11.4835L94.0304 11.9581L88.2514 11.5144L88.333 10.8186L93.1209 11.1862C93.1709 10.5348 93.0155 9.99868 92.6546 9.57782C92.3038 9.14837 91.812 8.90934 91.1792 8.86075C90.7139 8.82502 90.2962 8.9006 89.9262 9.08748C89.5654 9.27508 89.2766 9.56181 89.0598 9.94767C88.8436 10.3242 88.7148 10.7824 88.6734 11.3221C88.6048 12.2155 88.7563 12.9245 89.1279 13.4492C89.5088 13.9745 90.0808 14.2665 90.8439 14.3251C91.3929 14.3673 91.8532 14.2856 92.2247 14.0801C92.5962 13.8746 92.8595 13.5532 93.0148 13.1158L93.9361 13.1865C93.705 13.8802 93.3189 14.3982 92.7777 14.7404C92.2373 15.0733 91.567 15.2091 90.7667 15.1476ZM98.1414 15.7139C97.49 15.6639 96.9245 15.4707 96.4448 15.1343C95.9745 14.7987 95.6201 14.3549 95.3816 13.803C95.1432 13.2511 95.0511 12.6216 95.1054 11.9143C95.159 11.2164 95.3411 10.6125 95.6517 10.1028C95.9723 9.58452 96.386 9.19505 96.8928 8.93442C97.4003 8.66448 97.9751 8.55416 98.6172 8.60347C99.2314 8.65063 99.7561 8.82666 100.191 9.13154C100.636 9.43714 100.965 9.84154 101.179 10.3447C101.404 10.8394 101.491 11.4077 101.442 12.0498L101.405 12.5244L95.6262 12.0807L95.7077 11.3849L100.496 11.7525C100.546 11.1011 100.39 10.565 100.029 10.1441C99.6786 9.71466 99.1868 9.47564 98.554 9.42704C98.0887 9.39131 97.671 9.46689 97.3009 9.65377C96.9402 9.84137 96.6514 10.1281 96.4345 10.514C96.2184 10.8905 96.0896 11.3487 96.0482 11.8884C95.9796 12.7818 96.1311 13.4908 96.5027 14.0155C96.8836 14.5408 97.4555 14.8328 98.2186 14.8914C98.7677 14.9336 99.2279 14.8519 99.5994 14.6464C99.9709 14.4409 100.234 14.1195 100.39 13.6821L101.311 13.7528C101.08 14.4465 100.694 14.9644 100.153 15.3067C99.6121 15.6396 98.9417 15.7754 98.1414 15.7139ZM56.2026 26.5207C55.272 26.4492 54.4695 26.1723 53.7951 25.6899C53.1308 25.199 52.6282 24.5519 52.2873 23.7488C51.9558 22.9464 51.8293 22.0334 51.9079 21.0097C51.9865 19.9861 52.2556 19.1034 52.715 18.3617C53.1752 17.6108 53.78 17.0488 54.5295 16.6757C55.2796 16.2933 56.12 16.1379 57.0506 16.2094C57.7764 16.2651 58.4221 16.4504 58.9877 16.7653C59.5532 17.0802 60.0171 17.4996 60.3794 18.0235C60.7424 18.5382 60.9633 19.1355 61.0422 19.8156L59.9673 19.733C59.809 18.9907 59.4618 18.393 58.9256 17.94C58.3893 17.4869 57.7257 17.23 56.9347 17.1693C56.2089 17.1136 55.5532 17.2411 54.9677 17.5518C54.3922 17.854 53.9266 18.3097 53.5709 18.9189C53.2252 19.5195 53.0199 20.2433 52.9549 21.0901C52.8913 21.9183 52.9887 22.6606 53.2472 23.317C53.5057 23.9734 53.8959 24.4995 54.4178 24.8953C54.9404 25.2818 55.5647 25.5029 56.2905 25.5586C57.0815 25.6194 57.7855 25.4722 58.4025 25.117C59.0195 24.7619 59.4604 24.2622 59.7252 23.6179L60.8 23.7004C60.6033 24.3125 60.2773 24.8397 59.8221 25.2822C59.3762 25.7253 58.8404 26.0586 58.2148 26.2821C57.5899 26.4962 56.9192 26.5757 56.2026 26.5207ZM61.8831 23.4045C61.9367 22.7065 62.1327 22.1038 62.4713 21.5962C62.8098 21.0886 63.2514 20.7013 63.7961 20.4342C64.3408 20.1671 64.9389 20.0586 65.5903 20.1086C66.251 20.1594 66.8255 20.3579 67.3138 20.7043C67.8113 21.0514 68.1886 21.5016 68.4457 22.055C68.7027 22.6083 68.8045 23.2339 68.7509 23.9318C68.6987 24.6112 68.503 25.2093 68.1638 25.7261C67.8252 26.2337 67.3836 26.621 66.8389 26.8881C66.3035 27.1559 65.7054 27.2644 65.0447 27.2137C64.3933 27.1637 63.8188 26.9651 63.3213 26.618C62.8237 26.2709 62.4464 25.8207 62.1894 25.2674C61.933 24.7048 61.8309 24.0838 61.8831 23.4045ZM62.8613 23.4655C62.8205 23.996 62.8868 24.4738 63.0601 24.899C63.2434 25.3156 63.5076 25.6541 63.8527 25.9146C64.2078 26.1666 64.6273 26.3111 65.1112 26.3483C65.5951 26.3854 66.0271 26.3063 66.4072 26.1108C66.7973 25.9067 67.11 25.6125 67.3455 25.228C67.591 24.835 67.7341 24.3733 67.7748 23.8428C67.8148 23.3217 67.7432 22.8528 67.5599 22.4363C67.3859 22.0204 67.1217 21.6818 66.7673 21.4206C66.4222 21.1601 66.0078 21.0112 65.5238 20.9741C65.0399 20.9369 64.6029 21.0204 64.2128 21.2244C63.832 21.4292 63.5193 21.7235 63.2745 22.1072C63.039 22.4916 62.9013 22.9444 62.8613 23.4655ZM70.9951 27.5021L70.032 27.4282L70.5508 20.6721L71.3883 20.7364L71.4378 21.9196C71.6941 21.5087 72.0358 21.2027 72.4631 21.0014C72.9005 20.7916 73.3658 20.7057 73.859 20.7436C74.7896 20.815 75.44 21.1224 75.8101 21.6656C76.1803 22.2089 76.3328 22.904 76.2678 23.7508L75.9505 27.8826L74.9874 27.8087L75.2886 23.8862C75.3493 23.0952 75.2243 22.5287 74.9136 22.1865C74.6122 21.8451 74.1823 21.653 73.624 21.6101C72.9353 21.5572 72.3824 21.7488 71.9651 22.1848C71.5578 22.6122 71.3249 23.2074 71.2663 23.9705L70.9951 27.5021ZM77.3619 26.0814L78.2832 26.1522C78.2532 26.543 78.3688 26.8655 78.6301 27.1196C78.8922 27.3643 79.2558 27.5046 79.7211 27.5403C80.2423 27.5803 80.6549 27.5091 80.9591 27.3265C81.2734 27.1353 81.4444 26.8583 81.4723 26.4953C81.4937 26.2162 81.4318 25.9867 81.2864 25.8071C81.1411 25.6274 80.8723 25.4711 80.48 25.338L79.3439 24.9559C78.769 24.7619 78.3492 24.5004 78.0843 24.1711C77.8194 23.8419 77.7044 23.4492 77.7394 22.9933C77.7694 22.6024 77.8979 22.2706 78.1248 21.9978C78.3524 21.7158 78.6537 21.5096 79.0288 21.3792C79.4132 21.2496 79.8473 21.2034 80.3312 21.2405C80.8058 21.277 81.2135 21.3925 81.5543 21.5872C81.895 21.7819 82.1513 22.0402 82.3232 22.3623C82.5051 22.6759 82.5846 23.0424 82.5617 23.4618L81.6265 23.39C81.6479 22.9891 81.5365 22.6717 81.2924 22.4376C81.0483 22.2036 80.6982 22.0691 80.2422 22.0341C79.7676 21.9976 79.3925 22.0671 79.117 22.2425C78.8507 22.4186 78.7036 22.6882 78.6758 23.0511C78.6357 23.5722 78.9762 23.9541 79.697 24.1967L80.8331 24.5788C81.408 24.7727 81.8192 25.0242 82.067 25.3334C82.324 25.6434 82.4339 26.0403 82.3968 26.5242C82.366 26.9244 82.2319 27.2698 81.9943 27.5604C81.7566 27.8511 81.436 28.0652 81.0323 28.2027C80.6386 28.3316 80.1858 28.3764 79.674 28.3371C78.9202 28.2792 78.3343 28.047 77.9162 27.6404C77.4988 27.2246 77.314 26.7049 77.3619 26.0814ZM89.1057 22.0969L90.0689 22.1708L89.5501 28.9269L88.7126 28.8626L88.6748 27.7083C88.4587 28.0849 88.1227 28.3774 87.6667 28.5857C87.2201 28.7948 86.7315 28.879 86.2011 28.8383C85.4101 28.7775 84.8198 28.4794 84.4303 27.9441C84.0502 27.4094 83.8915 26.7326 83.9544 25.9137L84.277 21.712L85.2542 21.7871L84.9551 25.6816C84.8936 26.4819 85.0133 27.0574 85.314 27.4081C85.624 27.7596 86.0442 27.9557 86.5746 27.9964C87.226 28.0464 87.7493 27.876 88.1444 27.4851C88.5402 27.0849 88.7688 26.4846 88.8303 25.6843L89.1057 22.0969ZM92.5615 29.1582L91.5984 29.0842L92.3798 18.9082L93.3429 18.9821L92.5615 29.1582ZM94.375 22.5015L98.0322 22.7823L97.9701 23.5919L94.3128 23.3111L94.375 22.5015ZM96.1594 29.4344L95.2102 29.3615L95.893 20.4697L96.8422 20.5426L96.1594 29.4344ZM100.586 29.9428C99.8695 29.8878 99.3208 29.6585 98.9399 29.2548C98.5683 28.8518 98.4051 28.3572 98.4501 27.7709C98.498 27.1474 98.7595 26.6667 99.2348 26.3288C99.7101 25.9908 100.346 25.8197 101.142 25.8153L103.389 25.8053L103.406 25.582C103.441 25.1353 103.388 24.7802 103.249 24.5168C103.111 24.2441 102.911 24.0462 102.649 23.9231C102.387 23.8 102.088 23.7256 101.753 23.6999C101.158 23.6542 100.688 23.7444 100.343 23.9707C99.9976 24.1969 99.8076 24.538 99.7726 24.994L98.8932 24.9265C98.9282 24.4705 99.0749 24.0839 99.3332 23.7668C99.5916 23.4496 99.9373 23.2141 100.37 23.0601C100.803 22.9062 101.294 22.8503 101.844 22.8924C102.374 22.9332 102.832 23.0619 103.218 23.2788C103.605 23.4863 103.9 23.7898 104.103 24.1892C104.316 24.58 104.4 25.0732 104.354 25.6688L104.019 30.0379L103.209 29.9758L103.175 28.7796C102.937 29.192 102.586 29.502 102.12 29.7096C101.665 29.9087 101.154 29.9864 100.586 29.9428ZM100.869 29.1783C101.586 29.2333 102.157 29.0478 102.583 28.6219C103.009 28.1959 103.25 27.62 103.305 26.8941L103.333 26.5312L101.325 26.5314C100.688 26.5387 100.22 26.6619 99.921 26.901C99.6218 27.1401 99.4579 27.4458 99.4293 27.818C99.3979 28.2275 99.5136 28.55 99.7763 28.7854C100.04 29.0116 100.404 29.1426 100.869 29.1783ZM105.594 23.3629L109.251 23.6438L109.189 24.4534L105.532 24.1726L105.594 23.3629ZM107.378 30.2959L106.429 30.223L107.112 21.3312L108.061 21.4041L107.378 30.2959ZM109.987 30.4962L110.505 23.7401L111.469 23.814L110.95 30.5701L109.987 30.4962ZM111.123 21.92C110.927 21.905 110.765 21.8223 110.636 21.672C110.507 21.5217 110.45 21.3488 110.465 21.1534C110.48 20.958 110.563 20.7958 110.713 20.667C110.864 20.5288 111.038 20.4672 111.233 20.4822C111.428 20.4972 111.59 20.5845 111.718 20.7442C111.857 20.8952 111.918 21.0684 111.903 21.2638C111.888 21.4592 111.801 21.621 111.641 21.7492C111.491 21.8781 111.318 21.935 111.123 21.92ZM112.743 27.3099C112.797 26.6119 112.993 26.0092 113.331 25.5016C113.67 24.994 114.111 24.6067 114.656 24.3396C115.201 24.0726 115.799 23.964 116.45 24.014C117.111 24.0648 117.686 24.2633 118.174 24.6097C118.671 24.9569 119.049 25.4071 119.306 25.9604C119.563 26.5137 119.664 27.1393 119.611 27.8372C119.559 28.5166 119.363 29.1147 119.024 29.6316C118.685 30.1391 118.244 30.5265 117.699 30.7935C117.164 31.0613 116.565 31.1699 115.905 31.1191C115.253 31.0691 114.679 30.8705 114.181 30.5234C113.684 30.1763 113.306 29.7261 113.049 29.1728C112.793 28.6102 112.691 27.9892 112.743 27.3099ZM113.721 27.371C113.681 27.9014 113.747 28.3792 113.92 28.8044C114.103 29.221 114.368 29.5595 114.713 29.82C115.068 30.072 115.487 30.2165 115.971 30.2537C116.455 30.2908 116.887 30.2117 117.267 30.0162C117.657 29.8121 117.97 29.5179 118.206 29.1334C118.451 28.7404 118.594 28.2787 118.635 27.7483C118.675 27.2271 118.603 26.7583 118.42 26.3417C118.246 25.9258 117.982 25.5872 117.627 25.326C117.282 25.0655 116.868 24.9167 116.384 24.8795C115.9 24.8423 115.463 24.9258 115.073 25.1299C114.692 25.3346 114.379 25.6289 114.135 26.0126C113.899 26.397 113.761 26.8498 113.721 27.371ZM121.855 31.4075L120.892 31.3336L121.411 24.5775L122.248 24.6418L122.298 25.8251C122.554 25.4141 122.896 25.1081 123.323 24.9069C123.761 24.6971 124.226 24.6111 124.719 24.649C125.65 24.7204 126.3 25.0278 126.67 25.5711C127.04 26.1143 127.193 26.8094 127.128 27.6562L126.811 31.7881L125.847 31.7141L126.149 27.7917C126.209 27.0006 126.084 26.4341 125.774 26.092C125.472 25.7505 125.042 25.5584 124.484 25.5155C123.795 25.4626 123.242 25.6542 122.825 26.0902C122.418 26.5176 122.185 27.1129 122.126 27.8759L121.855 31.4075Z" fill="#485169"/>
<path d="M83.588 45.1567C96.4608 56.2966 103.268 70.0096 88.4414 83.0296C77.0196 93.0593 55.0651 90.243 49.4245 74.4593C48.073 70.6776 51.4299 66.2622 54.6111 64.5354C59.6437 61.8038 64.4458 63.4239 68.2953 67.558C75.2882 75.0681 77.9299 89.4687 69.6339 96.7765C56.6514 108.213 37.7385 106.043 22.8955 98.679C19.9389 97.2121 -0.110795 82.7462 13.095 86.953C15.4917 87.7165 22.5785 90.2793 20.1407 89.6659C16.0989 88.6489 13.8678 87.9112 10.246 85.6286C9.52691 85.1755 6.09395 82.2917 6.41332 84.679C7.06723 89.5669 7.33888 94.4751 8.10661 99.3577" stroke="#485169" stroke-linecap="round"/>
</svg>
