<svg width="178" height="128" viewBox="0 0 178 128" fill="none" xmlns="http://www.w3.org/2000/svg">
<path opacity="0.4" d="M30.2419 7.83947L29.9162 16.2187L34.2579 8.93638L35.6823 9.32543L35.7193 17.8037L39.6983 10.4223L41.1359 10.815L35.9445 19.8069L34.5663 19.4305L34.5246 10.7879L30.0821 18.2057L28.7039 17.8292L28.8176 7.45042L30.2419 7.83947ZM44.2276 14.3098C44.7288 14.4466 45.1822 14.698 45.5877 15.0639C45.9945 15.4254 46.2699 15.8266 46.414 16.2675C46.5542 16.6885 46.599 17.1471 46.5484 17.6435C46.5299 17.9881 46.4234 18.5164 46.2289 19.2286L41.0523 17.8147C40.8785 18.5373 40.8905 19.1595 41.0881 19.6811C41.287 20.1984 41.7183 20.5477 42.3822 20.7291C43.0021 20.8984 43.5525 20.829 44.0334 20.521C44.3093 20.3413 44.5338 20.1073 44.707 19.8192L45.8742 20.138C45.7726 20.389 45.59 20.6509 45.3265 20.9238C45.0686 21.1935 44.8043 21.4001 44.5337 21.5435C44.0771 21.7967 43.566 21.9122 43.0005 21.89C42.6955 21.8823 42.3628 21.8292 42.0023 21.7308C41.123 21.4906 40.4649 20.9683 40.028 20.164C39.5922 19.3552 39.5316 18.3749 39.8462 17.2231C40.156 16.0889 40.7153 15.2519 41.5241 14.7122C42.3329 14.1725 43.2341 14.0384 44.2276 14.3098ZM45.2665 17.9524C45.3586 17.4249 45.3588 16.9832 45.267 16.6274C45.0977 15.9671 44.6329 15.533 43.8723 15.3253C43.3272 15.1764 42.8159 15.2493 42.3386 15.5441C41.8624 15.8345 41.5305 16.2801 41.3428 16.8807L45.2665 17.9524ZM53.2456 14.0872L54.4325 14.4114L53.4455 18.0251C53.8241 17.7458 54.1454 17.5643 54.4092 17.4805C54.8601 17.3343 55.3713 17.3393 55.9428 17.4954C56.9672 17.7752 57.5639 18.3232 57.7331 19.1395C57.824 19.5848 57.7747 20.1547 57.5849 20.8494L56.3476 25.3797L55.1276 25.0465L56.3434 20.5953C56.4851 20.0765 56.523 19.6782 56.4571 19.4004C56.3474 18.9547 55.9958 18.6508 55.4023 18.4887C54.9099 18.3542 54.4174 18.4016 53.9249 18.6308C53.4324 18.8601 53.0577 19.4451 52.8007 20.3859L51.7777 24.1315L50.5907 23.8073L53.2456 14.0872ZM59.5316 24.2298C59.4379 24.5727 59.4894 24.8773 59.6859 25.1435C59.8825 25.4098 60.1522 25.5898 60.4951 25.6834C60.9128 25.7975 61.3437 25.8113 61.7878 25.7247C62.5348 25.5839 63.0081 25.1486 63.2074 24.4188L63.4686 23.4626C63.2983 23.5153 63.0904 23.5412 62.845 23.5403C62.5996 23.5394 62.3634 23.5222 62.1363 23.4885L61.3923 23.3845C60.9459 23.324 60.5982 23.3258 60.3491 23.3901C59.9278 23.4971 59.6553 23.777 59.5316 24.2298ZM63.0624 22.6147C63.3445 22.654 63.5582 22.5895 63.7034 22.4213C63.7849 22.3302 63.8527 22.1857 63.9068 21.9879C64.0172 21.5835 63.952 21.2515 63.7111 20.992C63.4758 20.7293 63.0899 20.5247 62.5536 20.3782C61.9337 20.2089 61.4485 20.2559 61.0978 20.5191C60.9023 20.6642 60.7328 20.9131 60.5891 21.266L59.4813 20.9634C59.741 20.0989 60.1875 19.5713 60.8207 19.3805C61.4595 19.1865 62.1372 19.1873 62.8538 19.3831C63.6846 19.61 64.3162 19.9526 64.7485 20.4108C65.1765 20.8678 65.2991 21.4305 65.1166 22.0987L64.0053 26.1674C63.9717 26.2905 63.9689 26.396 63.9968 26.484C64.0292 26.5731 64.1267 26.6399 64.2893 26.6843C64.3421 26.6987 64.402 26.7128 64.4692 26.7264C64.5375 26.7356 64.6109 26.7438 64.6892 26.751L64.4496 27.6281C64.2506 27.6304 64.1009 27.625 64.0006 27.6117C63.9003 27.5985 63.7666 27.5691 63.5995 27.5234C63.1907 27.4118 62.9335 27.1856 62.8282 26.8451C62.7735 26.6648 62.7648 26.4286 62.802 26.1364C62.4738 26.3869 62.0514 26.5668 61.535 26.6761C61.0185 26.7854 60.4877 26.7656 59.9426 26.6167C59.2876 26.4378 58.8052 26.0935 58.4957 25.5838C58.1917 25.0708 58.1214 24.5154 58.2847 23.9175C58.4636 23.2625 58.8067 22.8106 59.314 22.5617C59.8213 22.3129 60.4183 22.2374 61.1049 22.3352L63.0624 22.6147ZM68.1352 21.0098L68.4506 27.2753L71.9929 22.0635L73.292 22.4184L68.6988 28.7533L67.4327 28.4074L66.757 20.6334L68.1352 21.0098ZM77.2918 23.3408C77.793 23.4777 78.2464 23.7291 78.6519 24.0949C79.0587 24.4564 79.3341 24.8576 79.4783 25.2986C79.6184 25.7195 79.6632 26.1782 79.6126 26.6746C79.5941 27.0191 79.4876 27.5475 79.2931 28.2597L74.1165 26.8458C73.9428 27.5684 73.9547 28.1905 74.1524 28.7122C74.3512 29.2295 74.7826 29.5788 75.4464 29.7601C76.0663 29.9294 76.6167 29.8601 77.0976 29.5521C77.3735 29.3723 77.598 29.1384 77.7712 28.8503L78.9384 29.1691C78.8368 29.42 78.6542 29.682 78.3907 29.9549C78.1328 30.2246 77.8685 30.4311 77.5979 30.5745C77.1413 30.8277 76.6303 30.9433 76.0647 30.9211C75.7597 30.9133 75.427 30.8603 75.0665 30.7618C74.1873 30.5216 73.5291 29.9994 73.0922 29.195C72.6564 28.3863 72.5958 27.406 72.9104 26.2541C73.2202 25.1199 73.7795 24.2829 74.5883 23.7433C75.3971 23.2036 76.2983 23.0694 77.2918 23.3408ZM78.3307 26.9835C78.4228 26.4559 78.423 26.0142 78.3312 25.6585C78.162 24.9981 77.6971 24.564 76.9365 24.3563C76.3914 24.2074 75.8801 24.2804 75.4028 24.5751C74.9266 24.8656 74.5947 25.3111 74.407 25.9118L78.3307 26.9835ZM88.3632 26.3152C89.1589 26.5325 89.7524 26.9025 90.1435 27.425C90.539 27.9488 90.6582 28.6971 90.5012 29.6699L89.3471 29.3547C89.3957 28.9002 89.3337 28.4959 89.1611 28.1417C88.9898 27.7831 88.6272 27.5282 88.0732 27.3769C87.3171 27.1703 86.6755 27.3919 86.1484 28.0416C85.8065 28.4632 85.5395 29.0257 85.3474 29.7291C85.1541 30.4369 85.1408 31.0734 85.3077 31.6386C85.4746 32.2039 85.8789 32.5742 86.5208 32.7495C87.0132 32.884 87.443 32.8407 87.8105 32.6199C88.1835 32.3958 88.4964 32.0372 88.7492 31.544L89.9032 31.8592C89.5155 32.7596 88.9985 33.3554 88.3521 33.6465C87.7068 33.9332 86.9732 33.9643 86.1511 33.7398C85.2279 33.4876 84.5833 32.9502 84.2175 32.1275C83.8529 31.3003 83.8087 30.3812 84.0849 29.3701C84.4235 28.1303 84.9882 27.2476 85.779 26.7219C86.5698 26.1962 87.4312 26.0606 88.3632 26.3152ZM93.4191 34.6832C94.206 34.8982 94.8256 34.7485 95.2779 34.2343C95.7357 33.7169 96.0643 33.0932 96.2636 32.3635C96.4437 31.704 96.4847 31.1389 96.3866 30.668C96.2302 29.9261 95.7431 29.4435 94.9254 29.2201C94.2 29.022 93.5968 29.1549 93.1158 29.6187C92.6348 30.0826 92.2874 30.7058 92.0737 31.4883C91.8684 32.2401 91.8621 32.9116 92.0549 33.5028C92.2478 34.094 92.7025 34.4875 93.4191 34.6832ZM95.2412 28.1938C96.1512 28.4424 96.8377 28.9558 97.3006 29.7342C97.7636 30.5126 97.8342 31.4909 97.5124 32.6691C97.2014 33.8077 96.6674 34.6729 95.9106 35.2646C95.1537 35.8562 94.1928 35.993 93.0278 35.6748C92.0562 35.4094 91.3741 34.8711 90.9815 34.06C90.5901 33.2444 90.5457 32.2827 90.8483 31.1749C91.1725 29.9879 91.7318 29.125 92.5262 28.5861C93.3207 28.0472 94.2256 27.9164 95.2412 28.1938ZM100.604 27.0579L101.791 27.3821L99.1451 37.0692L97.9581 36.745L100.604 27.0579ZM103.611 27.8792L104.798 28.2034L102.152 37.8906L100.965 37.5664L103.611 27.8792ZM108.853 31.9612C109.354 32.098 109.807 32.3494 110.213 32.7153C110.619 33.0768 110.895 33.478 111.039 33.9189C111.179 34.3399 111.224 34.7985 111.173 35.2949C111.155 35.6395 111.048 36.1678 110.854 36.88L105.677 35.4661C105.503 36.1887 105.515 36.8109 105.713 37.3325C105.912 37.8498 106.343 38.1991 107.007 38.3805C107.627 38.5498 108.177 38.4804 108.658 38.1724C108.934 37.9927 109.159 37.7587 109.332 37.4706L110.499 37.7894C110.397 38.0404 110.215 38.3023 109.951 38.5752C109.694 38.8449 109.429 39.0515 109.159 39.1949C108.702 39.4481 108.191 39.5636 107.625 39.5414C107.32 39.5337 106.988 39.4806 106.627 39.3822C105.748 39.142 105.09 38.6197 104.653 37.8154C104.217 37.0066 104.157 36.0263 104.471 34.8745C104.781 33.7403 105.34 32.9033 106.149 32.3636C106.958 31.8239 107.859 31.6898 108.853 31.9612ZM109.891 35.6038C109.984 35.0763 109.984 34.6346 109.892 34.2788C109.723 33.6185 109.258 33.1844 108.497 32.9767C107.952 32.8278 107.441 32.9007 106.963 33.1955C106.487 33.4859 106.155 33.9315 105.968 34.5321L109.891 35.6038ZM116.165 33.9089C116.961 34.1262 117.554 34.4962 117.945 35.0187C118.341 35.5425 118.46 36.2908 118.303 37.2636L117.149 36.9484C117.198 36.4939 117.136 36.0896 116.963 35.7354C116.792 35.3768 116.429 35.1219 115.875 34.9706C115.119 34.764 114.477 34.9856 113.95 35.6354C113.608 36.0569 113.341 36.6194 113.149 37.3228C112.956 38.0306 112.943 38.6671 113.11 39.2323C113.276 39.7976 113.681 40.1679 114.323 40.3432C114.815 40.4777 115.245 40.4345 115.612 40.2136C115.985 39.9895 116.298 39.6309 116.551 39.1377L117.705 39.4529C117.317 40.3533 116.8 40.9491 116.154 41.2402C115.509 41.5269 114.775 41.558 113.953 41.3335C113.03 41.0813 112.385 40.5439 112.019 39.7212C111.655 38.894 111.611 37.9749 111.887 36.9638C112.225 35.724 112.79 34.8413 113.581 34.3156C114.372 33.7899 115.233 33.6543 116.165 33.9089ZM120.914 33.3069L122.115 33.6348L121.576 35.6065L122.704 35.9145L122.439 36.8838L121.311 36.5759L120.052 41.1853C119.985 41.4315 120.024 41.6192 120.168 41.7483C120.247 41.8219 120.394 41.8881 120.61 41.947C120.667 41.9626 120.728 41.9794 120.794 41.9974C120.861 42.011 120.94 42.0254 121.03 42.0407L120.775 42.9771C120.628 42.9794 120.477 42.9689 120.323 42.9457C120.173 42.9237 120.012 42.8892 119.841 42.8424C119.287 42.6911 118.949 42.4478 118.828 42.1124C118.708 41.7726 118.71 41.3763 118.834 40.9235L120.111 36.248L119.155 35.9869L119.42 35.0175L120.376 35.2787L120.914 33.3069ZM126.882 36.8855C127.383 37.0224 127.836 37.2738 128.242 37.6397C128.648 38.0012 128.924 38.4024 129.068 38.8433C129.208 39.2642 129.253 39.7229 129.202 40.2193C129.184 40.5639 129.077 41.0922 128.883 41.8044L123.706 40.3905C123.532 41.1131 123.544 41.7352 123.742 42.2569C123.941 42.7742 124.372 43.1235 125.036 43.3048C125.656 43.4741 126.206 43.4048 126.687 43.0968C126.963 42.9171 127.188 42.6831 127.361 42.395L128.528 42.7138C128.427 42.9648 128.244 43.2267 127.98 43.4996C127.723 43.7693 127.458 43.9759 127.188 44.1192C126.731 44.3725 126.22 44.488 125.654 44.4658C125.349 44.4581 125.017 44.405 124.656 44.3065C123.777 44.0664 123.119 43.5441 122.682 42.7398C122.246 41.931 122.186 40.9507 122.5 39.7989C122.81 38.6647 123.369 37.8277 124.178 37.288C124.987 36.7483 125.888 36.6142 126.882 36.8855ZM127.92 40.5282C128.013 40.0006 128.013 39.559 127.921 39.2032C127.752 38.5428 127.287 38.1088 126.526 37.901C125.981 37.7521 125.47 37.8251 124.993 38.1199C124.516 38.4103 124.184 38.8558 123.997 39.4565L127.92 40.5282ZM131.18 42.1129C130.973 42.869 130.961 43.5459 131.142 44.1435C131.324 44.7412 131.769 45.1366 132.476 45.33C133.026 45.48 133.541 45.3679 134.021 44.9936C134.507 44.6161 134.87 43.9855 135.112 43.1018C135.355 42.2094 135.353 41.5001 135.105 40.974C134.857 40.4435 134.466 40.105 133.929 39.9585C133.331 39.7952 132.783 39.8911 132.285 40.2463C131.79 40.6026 131.422 41.2248 131.18 42.1129ZM133.988 38.862C134.529 39.0097 134.95 39.2476 135.253 39.5759C135.428 39.7654 135.604 40.0617 135.782 40.4647L136.757 36.8971L137.898 37.2087L135.243 46.9288L134.174 46.637L134.443 45.6545C134.047 46.014 133.634 46.2389 133.203 46.3291C132.772 46.4192 132.312 46.3977 131.824 46.2644C131.037 46.0495 130.446 45.5336 130.05 44.7169C129.656 43.8958 129.608 42.9357 129.909 41.8366C130.19 40.8079 130.694 39.9891 131.423 39.3802C132.157 38.7681 133.012 38.5954 133.988 38.862ZM143.467 39.4669L144.667 39.7947L144.129 41.7665L145.256 42.0745L144.992 43.0438L143.864 42.7358L142.605 47.3453C142.538 47.5915 142.576 47.7792 142.721 47.9083C142.8 47.9819 142.947 48.0481 143.162 48.1069C143.219 48.1226 143.281 48.1394 143.347 48.1574C143.414 48.171 143.493 48.1854 143.583 48.2006L143.327 49.137C143.18 49.1394 143.03 49.1289 142.875 49.1057C142.725 49.0836 142.565 49.0492 142.393 49.0024C141.839 48.8511 141.502 48.6077 141.381 48.2723C141.261 47.9325 141.263 47.5362 141.387 47.0834L142.664 42.408L141.708 42.1468L141.972 41.1775L142.929 41.4386L143.467 39.4669ZM147.176 39.7429L148.363 40.0671L147.376 43.6809C147.754 43.4016 148.076 43.2201 148.34 43.1362C148.79 42.9901 149.302 42.9951 149.873 43.1512C150.898 43.431 151.494 43.979 151.663 44.7953C151.754 45.2406 151.705 45.8105 151.515 46.5051L150.278 51.0355L149.058 50.7022L150.274 46.251C150.415 45.7323 150.453 45.334 150.387 45.0562C150.278 44.6105 149.926 44.3066 149.333 44.1445C148.84 44.01 148.348 44.0573 147.855 44.2866C147.363 44.5158 146.988 45.1008 146.731 46.0416L145.708 49.7873L144.521 49.463L147.176 39.7429ZM156.952 45.0988C157.453 45.2357 157.906 45.4871 158.312 45.853C158.719 46.2145 158.994 46.6157 159.138 47.0566C159.279 47.4775 159.323 47.9362 159.273 48.4326C159.254 48.7772 159.148 49.3055 158.953 50.0177L153.777 48.6038C153.603 49.3264 153.615 49.9485 153.812 50.4702C154.011 50.9875 154.443 51.3368 155.107 51.5181C155.726 51.6874 156.277 51.6181 156.758 51.3101C157.034 51.1304 157.258 50.8964 157.431 50.6083L158.599 50.9271C158.497 51.1781 158.314 51.44 158.051 51.7129C157.793 51.9826 157.529 52.1892 157.258 52.3325C156.801 52.5858 156.29 52.7013 155.725 52.6791C155.42 52.6714 155.087 52.6183 154.727 52.5198C153.847 52.2797 153.189 51.7574 152.752 50.9531C152.317 50.1443 152.256 49.164 152.571 48.0122C152.88 46.878 153.44 46.041 154.248 45.5013C155.057 44.9616 155.958 44.8275 156.952 45.0988ZM157.991 48.7415C158.083 48.2139 158.083 47.7723 157.991 47.4165C157.822 46.7561 157.357 46.3221 156.597 46.1143C156.051 45.9655 155.54 46.0384 155.063 46.3332C154.587 46.6236 154.255 47.0691 154.067 47.6698L157.991 48.7415ZM21.0164 24.7261L22.1902 25.0467L21.9165 26.0491C22.2927 25.7786 22.6167 25.5955 22.8885 25.4996C23.3531 25.3383 23.8337 25.3255 24.3305 25.4612C24.8932 25.6149 25.3082 25.8771 25.5755 26.2477C25.7257 26.4588 25.8379 26.7398 25.9121 27.0908C26.2791 26.7848 26.6653 26.5903 27.0706 26.5073C27.4772 26.4199 27.9024 26.4368 28.3465 26.5581C29.2961 26.8175 29.8486 27.3369 30.0042 28.1164C30.088 28.5361 30.0446 29.0581 29.8741 29.6824L28.5899 34.3842L27.3568 34.0473L28.6968 29.1411C28.8253 28.6707 28.7949 28.3152 28.6055 28.0745C28.4205 27.835 28.1588 27.669 27.8203 27.5766C27.3543 27.4493 26.9094 27.4955 26.4856 27.7151C26.0662 27.936 25.7569 28.4113 25.5576 29.1411L24.4355 33.2494L23.2287 32.9198L24.4877 28.3103C24.6186 27.8311 24.6569 27.466 24.6026 27.215C24.5124 26.8361 24.2211 26.5793 23.7288 26.4448C23.2803 26.3224 22.8241 26.3843 22.3599 26.6308C21.9002 26.8784 21.546 27.4573 21.2975 28.3673L20.2744 32.1129L19.0874 31.7887L21.0164 24.7261ZM33.349 34.862C34.1359 35.077 34.7555 34.9273 35.2078 34.4131C35.6656 33.8956 35.9942 33.272 36.1935 32.5422C36.3736 31.8828 36.4146 31.3176 36.3165 30.8467C36.1601 30.1048 35.673 29.6222 34.8553 29.3989C34.1299 29.2007 33.5267 29.3336 33.0457 29.7975C32.5647 30.2614 32.2173 30.8846 32.0036 31.6671C31.7983 32.4189 31.792 33.0903 31.9848 33.6816C32.1777 34.2728 32.6324 34.6663 33.349 34.862ZM35.1711 28.3726C36.0811 28.6211 36.7676 29.1346 37.2305 29.913C37.6935 30.6914 37.7641 31.6697 37.4423 32.8479C37.1313 33.9865 36.5973 34.8517 35.8405 35.4433C35.0836 36.035 34.1227 36.1717 32.9577 35.8535C31.9861 35.5882 31.304 35.0499 30.9114 34.2388C30.52 33.4232 30.4756 32.4615 30.7782 31.3537C31.1024 30.1667 31.6617 29.3037 32.4561 28.7648C33.2506 28.2259 34.1555 28.0952 35.1711 28.3726ZM39.1658 34.8918C39.0929 35.2971 39.109 35.6274 39.214 35.8829C39.4085 36.347 39.875 36.6799 40.6136 36.8817C41.0532 37.0017 41.4659 37.0129 41.8516 36.9151C42.2386 36.8129 42.4867 36.5618 42.596 36.1618C42.6788 35.8584 42.6078 35.591 42.3828 35.3595C42.2378 35.2159 41.9299 35.0114 41.4591 34.7458L40.581 34.2508C40.0195 33.9368 39.6211 33.6485 39.3858 33.3858C38.9635 32.9256 38.8298 32.4119 38.9847 31.8448C39.1672 31.1766 39.5545 30.7013 40.1466 30.4189C40.743 30.1378 41.4479 30.1083 42.2612 30.3304C43.3251 30.621 44.007 31.1427 44.3069 31.8954C44.4934 32.3715 44.5198 32.837 44.3861 33.2918L43.2651 32.9856C43.3163 32.7114 43.2884 32.4416 43.1814 32.1762C42.9941 31.7896 42.5641 31.5044 41.8915 31.3207C41.4431 31.1982 41.079 31.1909 40.7991 31.2987C40.5237 31.4077 40.3476 31.6029 40.2707 31.8843C40.1867 32.192 40.2711 32.4796 40.524 32.7471C40.6698 32.9051 40.9028 33.0726 41.2229 33.2498L41.9554 33.6554C42.7518 34.095 43.2687 34.4511 43.506 34.7238C43.8848 35.1532 43.9853 35.6932 43.8076 36.3439C43.6359 36.9726 43.248 37.45 42.6439 37.7764C42.0442 38.1039 41.2564 38.1344 40.2804 37.8678C39.2297 37.5808 38.5494 37.1399 38.2395 36.545C37.9351 35.9469 37.8636 35.292 38.025 34.5802L39.1658 34.8918ZM47.3126 29.7897L48.5128 30.1175L47.9743 32.0893L49.1019 32.3973L48.8371 33.3666L47.7095 33.0586L46.4505 37.6681C46.3833 37.9143 46.4218 38.102 46.566 38.2311C46.6451 38.3047 46.7924 38.3709 47.0078 38.4297C47.0649 38.4454 47.1265 38.4622 47.1924 38.4802C47.2596 38.4938 47.3383 38.5082 47.4286 38.5234L47.1729 39.4598C47.0258 39.4622 46.8751 39.4517 46.7208 39.4285C46.571 39.4064 46.4103 39.372 46.2388 39.3252C45.6849 39.1739 45.3474 38.9305 45.2265 38.5951C45.1067 38.2554 45.1086 37.859 45.2323 37.4062L46.5093 32.7308L45.5531 32.4697L45.8179 31.5003L46.7741 31.7614L47.3126 29.7897ZM55.3239 40.8287C55.8778 40.98 56.4002 40.8747 56.8912 40.5127C57.3878 40.1476 57.7621 39.5034 58.0143 38.5802C58.168 38.0175 58.2187 37.5117 58.1666 37.0628C58.0713 36.2006 57.6149 35.6579 56.7972 35.4345C55.9751 35.21 55.3001 35.4673 54.7722 36.2066C54.4895 36.6018 54.2557 37.1379 54.0707 37.8149C53.9218 38.36 53.8765 38.846 53.9347 39.273C54.0431 40.0868 54.5062 40.6054 55.3239 40.8287ZM53.953 33.7577L55.107 34.0729L54.8512 35.0093C55.1763 34.7532 55.5035 34.5757 55.8329 34.4767C56.305 34.3222 56.8114 34.3188 57.3521 34.4664C58.1523 34.685 58.7474 35.1782 59.1376 35.9462C59.5291 36.7098 59.5693 37.6609 59.2583 38.7995C58.838 40.3382 58.1356 41.3274 57.1509 41.7671C56.5269 42.0455 55.8764 42.0922 55.1993 41.9073C54.6674 41.762 54.253 41.5236 53.9561 41.1921C53.7811 41.0026 53.6078 40.712 53.4361 40.3202L52.4508 43.9273L51.2638 43.6031L53.953 33.7577ZM62.6544 42.8664C63.4413 43.0813 64.0609 42.9317 64.5132 42.4174C64.971 41.9 65.2996 41.2764 65.4989 40.5466C65.6791 39.8872 65.72 39.322 65.6219 38.8511C65.4655 38.1092 64.9784 37.6266 64.1607 37.4032C63.4354 37.2051 62.8322 37.338 62.3511 37.8019C61.8701 38.2657 61.5227 38.8889 61.309 39.6715C61.1037 40.4232 61.0974 41.0947 61.2903 41.6859C61.4831 42.2772 61.9378 42.6707 62.6544 42.8664ZM64.4765 36.3769C65.3865 36.6255 66.073 37.139 66.536 37.9174C66.9989 38.6958 67.0695 39.6741 66.7477 40.8522C66.4367 41.9909 65.9028 42.856 65.1459 43.4477C64.3891 44.0394 63.4281 44.1761 62.2631 43.8579C61.2915 43.5925 60.6095 43.0543 60.2169 42.2431C59.8255 41.4276 59.7811 40.4659 60.0836 39.358C60.4079 38.171 60.9672 37.3081 61.7616 36.7692C62.556 36.2303 63.4609 36.0996 64.4765 36.3769ZM70.359 44.9354C70.913 45.0867 71.4354 44.9813 71.9264 44.6194C72.423 44.2543 72.7973 43.6101 73.0495 42.6869C73.2032 42.1242 73.2539 41.6184 73.2017 41.1695C73.1065 40.3073 72.6501 39.7645 71.8324 39.5412C71.0103 39.3166 70.3353 39.574 69.8074 40.3132C69.5247 40.7084 69.2908 41.2445 69.1059 41.9215C68.957 42.4667 68.9117 42.9527 68.9699 43.3796C69.0783 44.1934 69.5413 44.712 70.359 44.9354ZM68.9881 37.8643L70.1422 38.1795L69.8864 39.1159C70.2114 38.8599 70.5387 38.6823 70.8681 38.5833C71.3402 38.4288 71.8466 38.4254 72.3873 38.5731C73.1874 38.7916 73.7826 39.2849 74.1728 40.0529C74.5642 40.8165 74.6045 41.7676 74.2935 42.9062C73.8732 44.4449 73.1707 45.4341 72.1861 45.8738C71.5621 46.1521 70.9115 46.1988 70.2345 46.0139C69.7026 45.8686 69.2882 45.6302 68.9913 45.2988C68.8163 45.1093 68.643 44.8186 68.4712 44.4268L67.486 48.034L66.299 47.7097L68.9881 37.8643ZM77.794 40.2341L76.5134 44.9227C76.415 45.2832 76.3917 45.5934 76.4435 45.8532C76.5393 46.3329 76.8751 46.6514 77.451 46.8087C78.2775 47.0344 78.9411 46.8188 79.4418 46.1619C79.7125 45.8107 79.9421 45.29 80.1306 44.5997L81.0781 41.1311L82.265 41.4553L80.336 48.5179L79.215 48.2117L79.5127 47.1734C79.2856 47.3995 79.0325 47.5737 78.7535 47.6959C78.1998 47.9415 77.5999 47.9761 76.9536 47.7995C75.9469 47.5246 75.3529 47.0009 75.1717 46.2286C75.0724 45.8141 75.1049 45.3057 75.2695 44.7034L76.5807 39.9027L77.794 40.2341ZM84.8745 39.3477L86.0615 39.6719L83.4156 49.359L82.2286 49.0348L84.8745 39.3477ZM86.626 48.2163C86.5324 48.5592 86.5838 48.8638 86.7804 49.1301C86.9769 49.3964 87.2466 49.5763 87.5895 49.67C88.0072 49.7841 88.4381 49.7978 88.8822 49.7112C89.6293 49.5704 90.1025 49.1351 90.3018 48.4054L90.563 47.4492C90.3927 47.5019 90.1848 47.5278 89.9394 47.5269C89.694 47.526 89.4578 47.5087 89.2307 47.4751L88.4867 47.371C88.0403 47.3105 87.6926 47.3124 87.4435 47.3766C87.0222 47.4836 86.7497 47.7635 86.626 48.2163ZM90.1568 46.6013C90.439 46.6405 90.6526 46.5761 90.7978 46.4078C90.8793 46.3167 90.9472 46.1723 91.0012 45.9745C91.1117 45.57 91.0464 45.238 90.8055 44.9785C90.5702 44.7158 90.1844 44.5112 89.648 44.3647C89.0281 44.1954 88.5429 44.2424 88.1922 44.5057C87.9967 44.6507 87.8272 44.8996 87.6835 45.2525L86.5757 44.9499C86.8354 44.0855 87.2819 43.5578 87.9151 43.367C88.5539 43.173 89.2316 43.1739 89.9482 43.3696C90.7791 43.5965 91.4106 43.9391 91.843 44.3974C92.2709 44.8544 92.3936 45.417 92.211 46.0852L91.0997 50.154C91.0661 50.2771 91.0633 50.3826 91.0912 50.4705C91.1236 50.5597 91.2211 50.6265 91.3837 50.6709C91.4365 50.6853 91.4964 50.6993 91.5636 50.7129C91.6319 50.7221 91.7053 50.7304 91.7836 50.7376L91.544 51.6146C91.345 51.617 91.1953 51.6115 91.095 51.5983C90.9947 51.5851 90.861 51.5556 90.6939 51.51C90.2851 51.3983 90.028 51.1722 89.9226 50.8316C89.8679 50.6513 89.8592 50.4151 89.8964 50.1229C89.5682 50.3734 89.1458 50.5533 88.6294 50.6626C88.1129 50.772 87.5821 50.7522 87.037 50.6033C86.382 50.4244 85.8997 50.08 85.5901 49.5703C85.2861 49.0574 85.2158 48.502 85.3791 47.9041C85.558 47.249 85.9011 46.7971 86.4084 46.5483C86.9157 46.2995 87.5127 46.2239 88.1994 46.3217L90.1568 46.6013ZM94.6823 44.8469L95.8099 45.1549L95.4767 46.3749C95.6338 46.1627 95.9389 45.9366 96.3919 45.6965C96.846 45.4521 97.3083 45.3941 97.7787 45.5226C97.8007 45.5286 97.8374 45.541 97.889 45.5598C97.9405 45.5786 98.0283 45.612 98.1521 45.66L97.8099 46.9129C97.7432 46.8805 97.6797 46.8537 97.6193 46.8325C97.5634 46.8125 97.5002 46.7929 97.4299 46.7737C96.832 46.6104 96.3197 46.6783 95.8931 46.9776C95.4678 47.2724 95.1866 47.6704 95.0497 48.1715L93.9402 52.2337L92.7532 51.9095L94.6823 44.8469ZM102.68 50.9288C102.513 51.5399 102.459 52.0754 102.517 52.5355C102.62 53.3526 103.063 53.8679 103.845 54.0817C104.672 54.3074 105.347 54.0761 105.87 53.3876C106.158 53.008 106.393 52.4862 106.574 51.8224C106.741 51.2113 106.786 50.6755 106.708 50.2151C106.578 49.4284 106.109 48.9246 105.3 48.7037C104.786 48.5632 104.283 48.6667 103.791 49.0142C103.305 49.3586 102.934 49.9968 102.68 50.9288ZM105.468 47.6227C106.052 47.7824 106.505 48.0642 106.824 48.468C107.001 48.6863 107.148 48.977 107.266 49.3399L107.535 48.3574L108.662 48.6654L105.964 58.5437L104.771 58.2177L105.761 54.5908C105.477 54.8533 105.133 55.0311 104.73 55.124C104.332 55.2138 103.872 55.1873 103.349 55.0444C102.597 54.839 102.005 54.3608 101.572 53.6096C101.139 52.8584 101.088 51.8805 101.417 50.6759C101.725 49.5461 102.256 48.6941 103.008 48.12C103.764 47.5471 104.584 47.3814 105.468 47.6227ZM111.61 49.4705L110.329 54.1591C110.231 54.5196 110.208 54.8297 110.26 55.0896C110.355 55.5692 110.691 55.8877 111.267 56.045C112.093 56.2708 112.757 56.0552 113.258 55.3983C113.528 55.047 113.758 54.5263 113.947 53.8361L114.894 50.3675L116.081 50.6917L114.152 57.7543L113.031 57.4481L113.329 56.4097C113.102 56.6359 112.849 56.8101 112.569 56.9323C112.016 57.1779 111.416 57.2124 110.77 57.0359C109.763 56.7609 109.169 56.2373 108.988 55.465C108.888 55.0505 108.921 54.5421 109.085 53.9398L110.397 49.1391L111.61 49.4705ZM120.925 51.8447C121.426 51.9815 121.879 52.2329 122.285 52.5988C122.692 52.9603 122.967 53.3615 123.111 53.8024C123.252 54.2234 123.296 54.682 123.246 55.1784C123.227 55.523 123.121 56.0513 122.926 56.7635L117.75 55.3496C117.576 56.0722 117.588 56.6944 117.785 57.216C117.984 57.7333 118.416 58.0826 119.08 58.2639C119.699 58.4333 120.25 58.3639 120.731 58.0559C121.007 57.8762 121.231 57.6422 121.404 57.3541L122.572 57.6729C122.47 57.9239 122.287 58.1858 122.024 58.4587C121.766 58.7284 121.502 58.935 121.231 59.0784C120.774 59.3316 120.263 59.4471 119.698 59.4249C119.393 59.4172 119.06 59.3641 118.7 59.2657C117.82 59.0255 117.162 58.5032 116.725 57.6989C116.29 56.8901 116.229 55.9098 116.544 54.758C116.853 53.6238 117.413 52.7868 118.221 52.2471C119.03 51.7074 119.931 51.5733 120.925 51.8447ZM121.964 55.4873C122.056 54.9598 122.056 54.5181 121.964 54.1623C121.795 53.5019 121.33 53.0679 120.57 52.8602C120.024 52.7113 119.513 52.7842 119.036 53.079C118.56 53.3694 118.228 53.815 118.04 54.4156L121.964 55.4873ZM124.84 58.2925C124.767 58.6978 124.783 59.0281 124.888 59.2836C125.083 59.7477 125.549 60.0807 126.288 60.2824C126.727 60.4025 127.14 60.4136 127.526 60.3158C127.913 60.2137 128.161 59.9625 128.27 59.5625C128.353 59.2591 128.282 58.9917 128.057 58.7602C127.912 58.6166 127.604 58.4121 127.133 58.1465L126.255 57.6515C125.694 57.3376 125.295 57.0492 125.06 56.7865C124.638 56.3263 124.504 55.8126 124.659 55.2455C124.841 54.5773 125.229 54.102 125.821 53.8196C126.417 53.5385 127.122 53.509 127.935 53.7311C128.999 54.0217 129.681 54.5434 129.981 55.2961C130.168 55.7722 130.194 56.2377 130.06 56.6925L128.939 56.3863C128.99 56.1121 128.963 55.8423 128.856 55.5769C128.668 55.1903 128.238 54.9051 127.566 54.7214C127.117 54.5989 126.753 54.5916 126.473 54.6994C126.198 54.8084 126.022 55.0036 125.945 55.285C125.861 55.5927 125.945 55.8803 126.198 56.1478C126.344 56.3058 126.577 56.4733 126.897 56.6505L127.63 57.0561C128.426 57.4957 128.943 57.8518 129.18 58.1245C129.559 58.5539 129.659 59.094 129.482 59.7446C129.31 60.3733 128.922 60.8508 128.318 61.1771C127.718 61.5046 126.931 61.5351 125.955 61.2685C124.904 60.9815 124.224 60.5406 123.914 59.9457C123.609 59.3477 123.538 58.6927 123.699 57.9809L124.84 58.2925ZM132.987 53.1904L134.187 53.5182L133.648 55.49L134.776 55.798L134.511 56.7673L133.384 56.4593L132.125 61.0688C132.057 61.315 132.096 61.5027 132.24 61.6318C132.319 61.7054 132.467 61.7716 132.682 61.8305C132.739 61.8461 132.801 61.8629 132.867 61.8809C132.934 61.8945 133.012 61.9089 133.103 61.9241L132.847 62.8606C132.7 62.8629 132.549 62.8524 132.395 62.8292C132.245 62.8072 132.084 62.7727 131.913 62.7259C131.359 62.5746 131.022 62.3313 130.901 61.9959C130.781 61.6561 130.783 61.2598 130.906 60.8069L132.183 56.1315L131.227 55.8704L131.492 54.901L132.448 55.1622L132.987 53.1904ZM135.961 56.157L137.167 56.4866L135.247 63.5162L134.041 63.1866L135.961 56.157ZM136.687 53.4994L137.893 53.829L137.526 55.1743L136.319 54.8447L136.687 53.4994ZM140.059 64.0084C140.846 64.2234 141.466 64.0737 141.918 63.5595C142.376 63.042 142.704 62.4184 142.904 61.6887C143.084 61.0292 143.125 60.4641 143.027 59.9932C142.87 59.2513 142.383 58.7686 141.566 58.5453C140.84 58.3472 140.237 58.48 139.756 58.9439C139.275 59.4078 138.928 60.031 138.714 60.8135C138.509 61.5653 138.502 62.2368 138.695 62.828C138.888 63.4192 139.343 63.8127 140.059 64.0084ZM141.881 57.519C142.791 57.7675 143.478 58.281 143.941 59.0594C144.404 59.8378 144.474 60.8161 144.153 61.9943C143.842 63.1329 143.308 63.9981 142.551 64.5898C141.794 65.1814 140.833 65.3182 139.668 64.9999C138.696 64.7346 138.014 64.1963 137.622 63.3852C137.23 62.5696 137.186 61.6079 137.488 60.5001C137.813 59.3131 138.372 58.4502 139.166 57.9113C139.961 57.3724 140.866 57.2416 141.881 57.519ZM146.494 58.9986L147.622 59.3066L147.348 60.309C147.795 59.987 148.23 59.7869 148.653 59.7087C149.076 59.6305 149.516 59.6539 149.973 59.7788C150.976 60.0526 151.557 60.587 151.718 61.382C151.807 61.8173 151.754 62.3911 151.56 63.1033L150.322 67.6336L149.115 67.304L150.331 62.8528C150.449 62.422 150.48 62.0573 150.425 61.7587C150.334 61.2614 150.011 60.9371 149.457 60.7858C149.176 60.709 148.937 60.6745 148.741 60.6824C148.39 60.6903 148.051 60.8057 147.726 61.0286C147.464 61.2076 147.268 61.4139 147.138 61.6477C147.014 61.8783 146.889 62.2244 146.763 62.686L145.752 66.3854L144.565 66.0612L146.494 58.9986ZM153.394 66.0916C153.321 66.4968 153.337 66.8272 153.442 67.0826C153.636 67.5468 154.103 67.8797 154.841 68.0814C155.281 68.2015 155.694 68.2126 156.079 68.1149C156.466 68.0127 156.715 67.7616 156.824 67.3615C156.907 67.0582 156.836 66.7907 156.611 66.5592C156.466 66.4157 156.158 66.2111 155.687 65.9455L154.809 65.4506C154.247 65.1366 153.849 64.8483 153.614 64.5856C153.191 64.1253 153.058 63.6117 153.213 63.0446C153.395 62.3763 153.782 61.901 154.374 61.6187C154.971 61.3375 155.676 61.308 156.489 61.5301C157.553 61.8207 158.235 62.3424 158.535 63.0952C158.721 63.5713 158.748 64.0367 158.614 64.4915L157.493 64.1853C157.544 63.9112 157.516 63.6414 157.409 63.3759C157.222 62.9893 156.792 62.7042 156.119 62.5205C155.671 62.398 155.307 62.3907 155.027 62.4985C154.752 62.6075 154.575 62.8027 154.499 63.084C154.415 63.3918 154.499 63.6794 154.752 63.9469C154.898 64.1048 155.131 64.2724 155.451 64.4496L156.183 64.8551C156.98 65.2947 157.497 65.6508 157.734 65.9235C158.113 66.353 158.213 66.893 158.035 67.5436C157.864 68.1723 157.476 68.6498 156.872 68.9761C156.272 69.3036 155.484 69.3341 154.508 69.0676C153.458 68.7806 152.777 68.3396 152.467 67.7448C152.163 67.1467 152.091 66.4918 152.253 65.78L153.394 66.0916Z" fill="#485169" fill-opacity="0.6"/>
<path opacity="0.4" d="M73.7387 67.7499C67.6349 74.8619 60.6407 79.2674 51.0563 77.4092C47.8299 76.7836 44.0292 74.1082 48.7563 71.6565C53.1475 69.379 59.89 72.427 61.8176 76.8389C64.7103 83.4596 59.38 89.4249 53.9266 92.7266C45.4895 97.8346 36.6077 102.225 27.1012 104.84C25.1648 105.373 32.2925 94.9018 30.3155 98.7739C28.92 101.507 27.064 103.428 24.9514 105.605C23.4302 107.172 24.9286 106.68 26.5904 106.527C29.291 106.279 32.7459 106.812 35.1165 108.187" stroke="#485169" stroke-linecap="round"/>
</svg>
